<svg xmlns="http://www.w3.org/2000/svg" xmlns:xlink="http://www.w3.org/1999/xlink" width="1831.17" height="453.13" viewBox="0 0 1831.17 453.13"><defs><style>.cls-1{fill:#0f680b;}.cls-2{fill:none;}.cls-3{fill:#006e63;}.cls-4{fill:#65918a;}.cls-5{fill:#2d5750;}.cls-6{fill:#a4432b;}.cls-7{fill:#b34938;}.cls-8{fill:#c14e44;}.cls-9{fill:#d05350;}.cls-10{fill:#de585d;}.cls-11{fill:#d56056;}.cls-12{fill:#ca594b;}.cls-13{fill:#bd5240;}.cls-14{fill:#b14a36;}.cls-15{fill:#b03133;}.cls-16{fill:#bf4241;}.cls-17{fill:#cd5550;}.cls-18{fill:#dc6760;}.cls-19{fill:#ea7c71;}.cls-20{fill:#77212c;}.cls-21{fill:#903239;}.cls-22{fill:#ac4749;}.cls-23{fill:#ca5f5c;}.cls-24{fill:#fffad2;}.cls-25{fill:#ca102c;}.cls-26{fill:#ec676d;}.cls-27{fill:#db5e5c;}.cls-28{fill:#c9554b;}.cls-29{fill:#b74c3b;}.cls-30{fill:#f3997b;}.cls-31{fill:#931004;}.cls-32{fill:#af4634;}.cls-33{fill:#b9483d;}.cls-34{fill:#c44945;}.cls-35{fill:#cf4a4e;}.cls-36{fill:#bc3c3c;}.cls-37{fill:#c84745;}.cls-38{fill:#d3534f;}.cls-39{fill:#df5f59;}.cls-40{fill:#e08271;}.cls-41{fill:#cf0f2d;}.cls-42{fill:#d83a40;}.cls-43{fill:#e15c57;}.cls-44{fill:#ee9185;}.cls-45{fill:#f39b8e;}.cls-46{fill:#e27e73;}.cls-47{fill:#d2635c;}.cls-48{fill:#c14a46;}.cls-49{fill:#d95f57;}.cls-50{fill:#c9443f;}.cls-51{fill:#b82b2b;}.cls-52{fill:#a80e1a;}.cls-53{fill:#c43d3a;}.cls-54{fill:#d1524a;}.cls-55{fill:#dd665d;}.cls-56{fill:#b6503b;}.cls-57{fill:#c85e4c;}.cls-58{fill:#d96c5e;}.cls-59{fill:#ba3330;}.cls-60{fill:#ce564c;}.cls-61{fill:#e17a6c;}.cls-62{fill:#bb3c35;}.cls-63{fill:#345e04;}</style><symbol id="Impressionism" data-name="Impressionism" viewBox="0 0 64.73 51.12"><path class="cls-1" d="M25.74,11.57a8.07,8.07,0,0,1,.92,7.22.6.6,0,0,0,1.08.53c1.31-2.51.81-6.44-1.53-8.3,0,0,0,.08,0,.1a.31.31,0,0,0-.46,0,.29.29,0,0,0,0,.42Z"/><path class="cls-1" d="M45.46,16.82a7.9,7.9,0,0,0-2.41-1.07l-.19-.07.34.33L43,15.58c-1.07-1-.36-2.62-1.21-3.69l-.65-.81.17.52,0-.28c1-3.46,4.12-5.89,7.72-4.72s4.57,5.22,4.49,8.6a3.3,3.3,0,0,0,.81,1.93l1.12,1.24a.85.85,0,0,0,.38.24l1,.21a13,13,0,0,0,7.45-.76A.56.56,0,0,0,64,17a12.71,12.71,0,0,1-5.74.48l-2.07-.29.38.22L56,16.77l0,.05c-.42-.5-1-1-1-1.62,0-3.69-1.24-7.88-4.81-9.48a7.07,7.07,0,0,0-9.64,4.14l-.48,1.58a.79.79,0,0,0,.1.4l.73.95V12.7c.34,1,.1,2.19.93,3.05l.36.62a.5.5,0,0,0,.36.33l1,.34s0,0,0-.05a2.86,2.86,0,0,1,1.67.38.32.32,0,0,0,.41-.12.34.34,0,0,0-.12-.43Z"/><path class="cls-1" d="M31.56,15.12C32.51,9.67,35.25,4.21,40,1.21a.45.45,0,0,0,.11-.64.46.46,0,0,0-.64-.15,17.75,17.75,0,0,0-8.57,14.7.31.31,0,1,0,.62,0Z"/><path class="cls-1" d="M37.91,8.94a6.33,6.33,0,0,1,4.33-5.28l.26-.05-.36,0,.24.12c.52.07,1.1-.29,1.5.64A.52.52,0,0,0,44.57,4a.53.53,0,0,0-.26-.7c-.15-.45-.29-.9-1.55-.45l-.17-.14a.38.38,0,0,0-.33,0l-.76.38a6.58,6.58,0,0,0-4.16,5.74.31.31,0,0,0,.23.36.31.31,0,0,0,.34-.27Z"/><path class="cls-1" d="M30.89,5.75c.15-.24.34-.47.49-.7l0-.24a.47.47,0,0,0,0-.12l-.1-.37C29.1-1.3,21.71-.91,17.9,2.49c-4.45,4-1.62,10.66,2.48,14.06a.47.47,0,0,0,.66,0,.46.46,0,0,0,0-.67c-3.46-3.26-6.46-8.82-2.57-12.59,3.08-3,9.4-3.88,11.81.71l.43.88,0-.11-.08.81c.06-.32-.15-.09-.24-.12a.29.29,0,0,0,.12.39.29.29,0,0,0,.39-.11Z"/><path class="cls-1" d="M19.09,6.8a5.37,5.37,0,0,0,.74,1.61L20,8.7a.37.37,0,0,0,.29.17l.76.09c2.6.62,6-1.12,5.86-4.05a.44.44,0,0,0-.38-.45.42.42,0,0,0-.45.38c.09,1.76-1.46,3.15-3.5,3.24L20.45,8l.31.16-.55-.93a1.22,1.22,0,0,1,.07.17,2.23,2.23,0,0,0-.66-.88.32.32,0,0,0-.41-.12.31.31,0,0,0-.12.41Z"/><path class="cls-1" d="M.53,39.3c2.33-3.58,6.19-9.18,11-6,2.38,1.57,2.19,4.74,4.29,6.48l.5.57a.65.65,0,0,0,.33.19l1.48.28c3.69,1,7.45-.21,11.09-.88a.45.45,0,0,0,.38-.54A.48.48,0,0,0,29,39a49.5,49.5,0,0,1-9.16.93l-3-.6.33.19-1-1.12v0c-1.64-1.72-1.57-4.41-3.74-5.86C7,28.86,2.38,34.72.05,39a.31.31,0,0,0,.07.41.31.31,0,0,0,.41-.07Z"/><path class="cls-1" d="M22.47,36.84c0,.26.07.55.1.81l-.15,0a.3.3,0,0,0,.22.3l.36.15c5.68.74,9.28-4.65,12-8.79,3.41-2.53,7-1.19,9.71,1l.19.17-.19-.26.17.52c1,3.46.52,8-2.88,9.77a2.46,2.46,0,0,1-3.31-1.17,2.67,2.67,0,0,1,.5-2.31l.14-.72-.5.53.67-.21c.28-.15.55-.32.83-.46a.53.53,0,0,0,.29-.71.54.54,0,0,0-.72-.31l-1.38.38a1.13,1.13,0,0,0-.45.26,8.59,8.59,0,0,1-.43,1.36,6.33,6.33,0,0,0-.47,1.52,4.89,4.89,0,0,0,1.9,3.2,16.73,16.73,0,0,0,3.14.16A11.67,11.67,0,0,0,47,34c-1-3.89-.75-3.31-1.08-4a.92.92,0,0,0-.07-.19,6.31,6.31,0,0,1-.62-.54s-4.56-2.56-5.81-2.64c-.49,0-3.75,0-5.3,2.52a29.65,29.65,0,0,1-6.8,7.35,6.34,6.34,0,0,1-4.39.94l.21.31-.67-.84h.41c.21,0,.21-.16.09-.28a.6.6,0,0,0-.45.12Z"/><path class="cls-1" d="M38.9,32.41,38.16,32l-.69-.05a.35.35,0,0,0-.31.17l-.1.14c-3.64,1.64-5.59,7.1-3,10.51,3,4.05,8.11,5.19,12.75,3.83,8.38-2.43,13.31-11.22,14.67-19.34A.54.54,0,1,0,60.37,27C58.75,34.6,54.49,43,46.58,45.37c-4.14,1.29-8.76.4-11.52-3.26-2.16-2.89-.69-7.53,2.36-9.2l.36-.45-.31.17h.76c.36-.24.26.16.38.26a.28.28,0,0,0,.29-.48Z"/><path class="cls-1" d="M32.09,25.55c-3.1,2.07-5.6,6.12-9.86,5.19-2.21-.47-2.95-2.83-3-4.93a.6.6,0,1,0-1.19.1,5.88,5.88,0,0,0,2.05,5.19c1.81,1.6,4.35,1.29,6.31.24,2.45-1.29,4.14-3.46,6.09-5.31a.31.31,0,1,0-.38-.48Z"/><path class="cls-1" d="M25.19,27.46l-.24-1,.12.26,0-.22s2.67-4.86-2.33-7.62C19.37,17,15,15.7,10.83,17.83c-3.78,1.94-5.78,4.76-5.93,6.64C4.78,26,6,27,6.17,27.48a4.06,4.06,0,0,1,.56.51c.26.09-.06.11.56.32a4.25,4.25,0,0,0,4.84-.45c2.66-2.1,1.82-3,1.85-3.4a.93.93,0,0,0-.08-.36l-.47-.53a1.84,1.84,0,0,1-.88-1.47c-1.36.66-1.72.64-2,.93a1.23,1.23,0,0,0,.24.95,8.19,8.19,0,0,1,1,.12c.31,0,.31,0,.95.83l-.19-.47.07,1.09,0,0a3.9,3.9,0,0,1-2.47,2.19A2.82,2.82,0,0,1,8,27.4s-1.19-.72-.78-.39a1,1,0,0,1-.66-.72s-1.76-1,.39-4.24a10.17,10.17,0,0,1,8.09-4.5c3.51-.13,9.57,1.53,9.57,5a17.76,17.76,0,0,1-.33,4.16v0l.16.9s-.19-.59.05-.12c.07.07.12.24.29.33a.58.58,0,0,0,.42-.26Z"/><path class="cls-1" d="M10.67,37.61a5.27,5.27,0,0,0,1.59,5.12c3.81,3,9.07,2.83,13.35,1.66a.43.43,0,0,0,.27-.57.42.42,0,0,0-.57-.26c-5.19,1.17-14.17,1.17-14.07-6a.29.29,0,1,0-.57,0Z"/><path class="cls-1" d="M38.9,23.43c5,.52,10.68,2.74,11.73,8.19a.54.54,0,0,0,.71.36.56.56,0,0,0,.36-.74c-.78-6-7.52-8.28-12.8-8.43a.3.3,0,0,0-.29.31.3.3,0,0,0,.29.31Z"/><path class="cls-1" d="M53.82,35.91c4.12-3.16,4-8.69,3.09-13.29-.66-3.29-4.52-3.86-7.42-4.12a.6.6,0,0,0-.29,1.17c2.41.66,5.71.47,6.43,3.14,1.14,4.29.83,9.17-2.24,12.67a.3.3,0,0,0,.43.43Z"/><path class="cls-1" d="M34.34,48.52a17.4,17.4,0,0,1,3.26,1c10.47,5.17,21.92-2.86,26.9-11.84a.53.53,0,0,0-.12-.71.5.5,0,0,0-.72.12c-5.14,7.65-13.49,15.27-23.42,12.2A44.38,44.38,0,0,0,34.5,48a.28.28,0,0,0-.35.19.3.3,0,0,0,.19.36Z"/><path class="cls-1" d="M27.74,25.23c-.25-2.4,1.73-4.32,3.11-6.16a11.36,11.36,0,0,1,5.3-4.19,3.43,3.43,0,0,1,3.74,1.36,2.43,2.43,0,0,1-.25,2.92l-.17.24a.61.61,0,0,1-.28.19l-.52.18c-.57.2-1.42.52-1.89-.23a.5.5,0,0,1-.29-.63.49.49,0,0,1,.63-.26l.91,0,.76-.15-.29.18L39,18s0,.07,0,.1c.59-1.24-.88-2.26-1.86-2-4.36.89-7.51,5.06-8.73,9.24a.3.3,0,0,1-.31.28.29.29,0,0,1-.28-.32Z"/></symbol><symbol id="Red_Rose" data-name="Red Rose" viewBox="0 0 68.19 60.11"><rect class="cls-2" width="68.19" height="60.11"/><path class="cls-3" d="M42.79,48.85s-4.08-2.15-5.45-1.48S27,49.66,23.7,48.26c0,0,5,1.92,7.07,1.61s4.56-.93,6.45-.12S45.4,52.29,42.79,48.85Z"/><path class="cls-3" d="M42.2,50.52s.38,4.85,2.43,5.43,4.17.78,5-.6a30.7,30.7,0,0,0,2.09-6.11C52.07,47.9,42.52,45.27,42.2,50.52Z"/><path class="cls-4" d="M48.18,50.2s-.06,2,2.44,2.14,4.41-1.58,6.23-.28,9.5,3,11.34,2.53a7.32,7.32,0,0,1-3.11-1.12c-1.48-1-3.16-2.39-4.51-2.6A11.72,11.72,0,0,1,56,49.4C55,48.61,48.4,47.2,48.18,50.2Z"/><path class="cls-4" d="M42,48.47s-2.7,1.1-3.14,2.29-.9,4.15-2.43,5-4,4.31-4,4.31.06-.37,1.43-1,3.11.23,5.23-1.2,9.37-3.46,8.49-7.51S43.75,47.86,42,48.47Z"/><path class="cls-5" d="M45,50.17a10,10,0,0,0-2,1c-.66.48-1.21,2.5-2,3.08a37.59,37.59,0,0,0-3.56,2.6c-.44.51-2,.85-2.54,1.24s.15-.21.15-.21a7.56,7.56,0,0,0,1.59-1.16c.43-.51,3-1.87,3.73-2.92s2.6-3.93,4.16-4.15S45.62,49.32,45,50.17Z"/><path class="cls-4" d="M45.2,39.29s-3.38-1.58-6-.72-3.6,1-4.6,2.55-1.21,4.44-2.26,5-4.31-.57-6.56-.59-4.08-.36-5.19,1.4a5.46,5.46,0,0,1-4.18,2.42c-1.07,0-.94.57-2.08,1.59s-4.42,1.68-6.81.92-5.61-1-7.49.2c0,0,1.38-.37,3.85-2.73a111.12,111.12,0,0,0,9.63-10.46c1.83-2.54,4.09-4.78,8.82-4.44s13.17,0,15.05,1.41,3.58,1.25,5.33,1.93a10.49,10.49,0,0,0,2.92.73Z"/><path class="cls-5" d="M27.13,36.32a56.94,56.94,0,0,0-7.43,2.55,21.5,21.5,0,0,1-4.49,1.59s.18-.1,2-1.27,1.24-2.27.21-2.16-1-1.12,2.81.08,2-.76,1.62-1.16.68-.27,2.16.21A7,7,0,0,0,27.13,36.32Z"/><path class="cls-5" d="M29.15,39.24s-4.41-.37-5.6.07-6,2.1-6.71,2.75-3.25,2.08-4.18,3c0,0,2.13-1.1,3-1.62s2.19-1.84,3-1.93.8.14-.25,1.46-2.5,4.66-2.27,5.49c0,0,.36-2.73,1.61-3.91a14.11,14.11,0,0,0,2.39-3.17s2.35-1.57,3.51-1.63.58,1.22-.33,2.58a9.4,9.4,0,0,0-1.18,2.35,11.61,11.61,0,0,1,1.09-1.46,20.49,20.49,0,0,0,2-3.42c.17-.34,3.5,0,4.58.87Z"/><path class="cls-5" d="M5,49.62a4.08,4.08,0,0,0,2.88-1.07c1.64-1.28,4.44-4.67,6.57-5.88s10.13-4.76,12.36-4a9.89,9.89,0,0,0,3.11.7l0-.65S27.11,38,26,37.87,15.39,41,14,42.12,7.62,48.91,5,49.62Z"/><path class="cls-4" d="M34.47,22.84s-5.08-3.67-6.35-6.06-1-7.62-1.27-9.17S25.16.85,24.17,0c0,0,1.41,1.27,3.39,3s4.65,0,9.3,3.1,7,13.26,5.36,17.34S36.72,24.67,34.47,22.84Z"/><path class="cls-5" d="M39.12,21.88s-1.25-1.67-1.88-2.61-4.58-8.65-6.15-9.69a55,55,0,0,1,3.44,6s-4.59-1.25-5.73-1c0,0,4.69.94,5.84,1.67,0,0,1,1.56,1.35,2s-3.75.42-4.9.73c0,0,4.17-.42,4.69-.1a4.25,4.25,0,0,1,1.36,1.35c.42.63,1.46,2,1.46,2Z"/><path class="cls-5" d="M39.43,19.27a3.16,3.16,0,0,1-.73-2.19c.21-1-1-1.77-1.87-3s-1-2.61-1.88-3a39.54,39.54,0,0,0,3.13,3.86c.94.83,1-.42.52-2s.94,1,1,3.33,1.15,1.25,1.56.1.73,1.88-.1,3.55S40.27,20,39.43,19.27Z"/><path class="cls-5" d="M40.34,20.82a9.82,9.82,0,0,1-3-3.91c-1-2.45-4.3-7.74-6-9.21S26.05,2.81,25.66,2a5.29,5.29,0,0,0,.88,1.47c.78,1.07,3,2.93,3.91,4.2s3.53,4.12,4.21,5.58a73.22,73.22,0,0,0,5.09,8Z"/><path class="cls-6" d="M64.29,40l-.59-.28s-1.62,1.92-1.46,1.81a3.43,3.43,0,0,0-2.53.47,3.32,3.32,0,0,0-1.1,1.72c-.22.7-.36,1.48-.55,2.21a4.53,4.53,0,0,1-.91,1.91L59.46,47c.67-.23,1.21-.43,1.57-.58.81-.34,1.52-1.54,2.08-2.87A26.4,26.4,0,0,0,64.29,40Z"/><path class="cls-7" d="M63.71,39.9a2.43,2.43,0,0,1-.19,1.1,1.17,1.17,0,0,1-.43.61,21.58,21.58,0,0,0-2.05.71,1.19,1.19,0,0,1-.45.35c-1.16.55-1.77,1.52-2.22,1.37a.85.85,0,0,1-.31-.09c-.17,0-1.14-.6-1.29-.6a10,10,0,0,0-3.43-1.26,2.78,2.78,0,0,1-1.19-.26,2,2,0,0,1-1-.76.84.84,0,0,0-.24-.45c-.3.27-.83.49-.69,1.19.17.91.62,1,.58,1.75a11.69,11.69,0,0,0,.1,2.21,4.79,4.79,0,0,1-.07,1.72c.9-.1,1.79-.18,2.58-.29a8.56,8.56,0,0,1,1.77-.26c1.65.22,2.37.92,5.1-1.34a2.63,2.63,0,0,1,.88-.57,7.69,7.69,0,0,1,1.94-.82c0-.14.34-.25.78-.78C65.23,41.76,64.06,40.47,63.71,39.9Z"/><path class="cls-8" d="M63.77,39.85A2.64,2.64,0,0,1,64,42.32a1.83,1.83,0,0,1-.78,1.12c-.43.21-2.5.28-3.48.71a1.64,1.64,0,0,1-.73.48c-2,.64-2.87,2.22-3.86,2a1.91,1.91,0,0,1-.47-.17c-.11,0-1.85-1.17-2-1.17-1.9-1.19-4.28-2.72-5.49-2.79a4.33,4.33,0,0,1-2-.77,3.34,3.34,0,0,1-1.6-1.91,2.79,2.79,0,0,0-.3-1.13c-.51.42-1.5.71-1.15,2,.45,1.59,1.38,1.61,1.43,2.83a4.94,4.94,0,0,0,.75,2.2c.31.55.54,1.11.77,1.54,1,.07,1.92.16,2.84.2.74,0,1.42,0,2,0,2.66.29,3.42,3.07,8.36-.37a6,6,0,0,1,1.5-.57c1.25-.37,2.86-.73,3.41-.35a4.51,4.51,0,0,0,1.36-1C67.08,42.47,64.59,40.52,63.77,39.85Z"/><path class="cls-9" d="M63.86,39.82a3.85,3.85,0,0,1,.62,3.83,2.54,2.54,0,0,1-1.13,1.63c-.57.26-3.57.22-4.91.71a2.06,2.06,0,0,1-1,.61c-2.76.74-4,2.92-5.5,2.56a2.34,2.34,0,0,1-.63-.26c-.06,0-2.57-1.73-2.62-1.73-2.57-1.79-5.91-4.15-7.54-4.33a6.12,6.12,0,0,1-2.79-1.26c-1.21-.92-2.17-2.15-2.19-3.07a4.56,4.56,0,0,0-.37-1.8c-.71.55-2.15.91-1.59,2.7.72,2.3,2.07,2.21,2.26,3.92a4,4,0,0,0,1.42,2.21,16.07,16.07,0,0,0,1.6,1.35c1,.24,2.06.49,3.11.68.77.13,1.52.22,2.19.35,3.64.73,4.48,5.21,11.63.61A12.26,12.26,0,0,1,58.54,48c1.78-.37,4.11-.67,4.86.12a3.8,3.8,0,0,0,2-1.23C69,43.18,65.14,40.6,63.86,39.82Z"/><path class="cls-10" d="M63.94,39.76c2.32,2.08,1.18,6.66-.44,7.35-.72.3-4.64.14-6.35.7a2.45,2.45,0,0,1-1.28.73c-4,1-5.43,4.35-7.94,2.83l-3.28-2.3c-3.25-2.39-7.55-5.58-9.59-5.87-2.79-.4-6.38-3.78-6.38-6a6.57,6.57,0,0,0-.43-2.48c-.92.69-2.82,1.12-2,3.46,1,3,2.71,2.81,3.1,5s5.71,4,10.29,5.21S45.13,55.76,54.5,50c0,0,7.48-2,9.08,0,0,0,1,.11,2.54-1.45C70.83,43.89,65.7,40.65,63.94,39.76Z"/><path class="cls-11" d="M63.14,38.42a12.66,12.66,0,0,1-6.41,2.43,9.15,9.15,0,0,1-2,3.72,39,39,0,0,1-3.6,3.9,12.41,12.41,0,0,0,4.3-1.26,37.5,37.5,0,0,0,3.41-3.11,59.31,59.31,0,0,1,4.8-4.29c.6-1.16,1.07-2.17,1.36-2.84C64.37,37.45,63.72,37.92,63.14,38.42Z"/><path class="cls-12" d="M64.67,37.67c-.63.49-1.28,1-1.87,1.49a14.22,14.22,0,0,1-3.07,1.94,17.78,17.78,0,0,1-3.19,1.24c-.07.18-.15.35-.23.52a10.39,10.39,0,0,1-2.24,2.65l-.65.56c-1,1.14-2.13,2.23-3.08,3.12A8.07,8.07,0,0,0,54,48.4a5.6,5.6,0,0,0,.69-.37c.73-.46,1.88-1.45,3.28-2.49l.47-.42c1.09-1,2.25-2.1,3.36-3.19.49-.47,1-.94,1.44-1.37C63.84,39.43,64.33,38.42,64.67,37.67Z"/><path class="cls-13" d="M64.33,38.39c-.63.47-1.27,1-1.88,1.51a25.44,25.44,0,0,1-3,2.2,20.5,20.5,0,0,1-3.07,1.72c-.12.18-.23.35-.34.49a9.83,9.83,0,0,1-2.63,2.14l-.73.42c-1.11,1.17-2.25,2.25-3.12,3.05a5.52,5.52,0,0,0,3.69-.69,7.44,7.44,0,0,0,.68-.38c.89-.54,2.11-1.48,3.6-2.31.16-.12.33-.25.49-.39a31.9,31.9,0,0,0,3.41-3.3c.48-.52.94-1,1.38-1.54C63.42,40.21,63.94,39.19,64.33,38.39Z"/><path class="cls-14" d="M64,39.1c-.62.47-1.26,1-1.88,1.53-1,.85-2,1.69-3,2.47a28.42,28.42,0,0,1-3,2.2c-.17.18-.32.34-.45.46a9.77,9.77,0,0,1-3,1.62c-.28.11-.56.2-.82.29-1.2,1.2-2.37,2.26-3.17,3,1.24.53,2.46.1,3.74-.58.23-.13.45-.25.67-.39a24.34,24.34,0,0,1,3.92-2.13c.17-.11.35-.23.52-.36A21,21,0,0,0,61,43.76c.47-.56.91-1.14,1.33-1.7C63,41,63.55,40,64,39.1Z"/><path class="cls-6" d="M51.14,48.47c-1.28,1.23-2.48,2.28-3.21,2.9,1.25.76,2.42.29,3.78-.49a18.1,18.1,0,0,1,4.91-2.34,14.27,14.27,0,0,0,4-3.87,34.49,34.49,0,0,0,3-4.86,59.31,59.31,0,0,0-4.8,4.29,37.5,37.5,0,0,1-3.41,3.11A12.41,12.41,0,0,1,51.14,48.47Z"/><path class="cls-6" d="M67.94,30.7a6,6,0,0,1,.19,1.62A2.63,2.63,0,0,0,67.94,30.7Z"/><path class="cls-6" d="M68.13,32.32c-.37,2-2.74,3.74-2.74,3.74s-.13.34-.38.91C66.57,35.78,68.06,34.46,68.13,32.32Z"/><path class="cls-15" d="M37.8,18.91a3.44,3.44,0,0,0-1.69,1.49A1.86,1.86,0,0,0,36,21.72a12.58,12.58,0,0,0,5.2-1.63c2.7-1.76,5.4-.82,7.16.25a10.45,10.45,0,0,1,2,1.55,4.18,4.18,0,0,1,1.21-.5,5.5,5.5,0,0,0-1.18-1.48,7,7,0,0,0-1.6-1.05,11.59,11.59,0,0,0-3.93-1A14.72,14.72,0,0,0,37.8,18.91Z"/><path class="cls-16" d="M37.47,18.52a3.69,3.69,0,0,0-1.79,1.84,3.23,3.23,0,0,0-.14.51.5.5,0,0,1-.2.36,1.8,1.8,0,0,0,.08.21,3.2,3.2,0,0,0,.95.18l1.08-.27a5.2,5.2,0,0,0,.52-.16,9.7,9.7,0,0,0,1.18-.29,5.83,5.83,0,0,0,.89-.84,6.94,6.94,0,0,1,1.07-.66,7.26,7.26,0,0,1,6-.36,7.51,7.51,0,0,1,1.27.63,8.48,8.48,0,0,1,1,.68,6.22,6.22,0,0,1,1.24,1.23,2.46,2.46,0,0,1,.37,0,5.09,5.09,0,0,1,1.1-.29c-.28-.6-.33-1-.53-1.5a20.54,20.54,0,0,1-2.67-1.4,10,10,0,0,0-5-1.08A14.39,14.39,0,0,0,37.47,18.52Z"/><path class="cls-17" d="M37.15,18.13a4.09,4.09,0,0,0-1.9,2.19,3.53,3.53,0,0,0-.14.56c0,.12-.16.08-.41,0a1.75,1.75,0,0,0,.11.24,2.33,2.33,0,0,0,1,.41l1.11-.31c.18-.05.13,0-.05,0a5.67,5.67,0,0,0,1.24-.12A10,10,0,0,1,38.85,20a5.64,5.64,0,0,1,1.15-.8,8.45,8.45,0,0,1,6.9-.94,6.58,6.58,0,0,1,1.49.7,9.55,9.55,0,0,1,1,.72,7,7,0,0,1,1.42,1.55l.38.27a6.21,6.21,0,0,1,1.35-.27c-.26-.62,0-1,.12-1.53A9.26,9.26,0,0,1,48.91,18c-1.25-.93-3.71-1.25-6-1.16A13.3,13.3,0,0,0,37.15,18.13Z"/><path class="cls-18" d="M36.83,17.75a4.51,4.51,0,0,0-2,2.53,3.06,3.06,0,0,0-.13.6c0,.06-.24-.1-.64-.27q.08.15.15.27a2.27,2.27,0,0,0,1,.65c.6-.21,1-.33,1.14-.35a4.07,4.07,0,0,0-.61.21,5,5,0,0,0,1.29.06A2.59,2.59,0,0,1,37.66,20a5.86,5.86,0,0,1,1.24-.94c3.15-1.83,5.73-2.13,7.78-1.52a6.35,6.35,0,0,1,1.71.79,7.45,7.45,0,0,1,1,.75A8.46,8.46,0,0,1,51,21c.14.16.27.32.41.5a6.15,6.15,0,0,1,1.6-.26c-.24-.65.41-1,.76-1.55A8.31,8.31,0,0,1,49,17.55c-1.32-1.06-4.28-1.49-7.07-1.24A11.63,11.63,0,0,0,36.83,17.75Z"/><path class="cls-19" d="M54.86,19.58c-1.19,0-3.07-.08-5.86-2.47-1.4-1.2-4.88-1.8-8.12-1.32a10.29,10.29,0,0,0-4.37,1.57,5,5,0,0,0-2.25,3.53,3.81,3.81,0,0,0-.85-.59,2.43,2.43,0,0,0,1.28,1.18c.69-.25,1.16-.39,1.16-.39s-.47.14-1.16.39a3.5,3.5,0,0,0,1.34.24C35.81,21,36,20,37.8,18.91c3.58-2.18,6.41-2.7,8.66-2.1a6.91,6.91,0,0,1,2.95,1.65,11.39,11.39,0,0,1,2.19,2.93,7.69,7.69,0,0,1,1.85-.24C53.24,20.47,54.23,20.15,54.86,19.58Z"/><path class="cls-2" d="M40.43,40.81a18.66,18.66,0,0,1,2-.38c-.26-.24-.58-.49-.92-.75A2.21,2.21,0,0,0,40.43,40.81Z"/><path class="cls-20" d="M56.44,20.88a5.06,5.06,0,0,0-2.86,1,13.3,13.3,0,0,1,3,.88c1.43.66,3,3.86,3,3.86a6.11,6.11,0,0,1,2.17,3.81C64.32,24.5,58.58,20.88,56.44,20.88Z"/><path class="cls-21" d="M52.88,21.81a13.63,13.63,0,0,1,2.83.7,2.51,2.51,0,0,1,.58.31c1.12.68,2.24,2.36,2.53,2.36,1.22.61,3.09,2.15,2.71,4.27a3.86,3.86,0,0,1-.09,1.85,3.07,3.07,0,0,0,.38,0c2.25-4.87-1.91-8.38-3.45-9h0c-.61,0-1.19-1.7-3.9-1.45A3.79,3.79,0,0,0,52.88,21.81Z"/><path class="cls-22" d="M52.17,21.75a14.33,14.33,0,0,1,2.64.52,4,4,0,0,1,.58.24c1,.27,2.07,1.24,2.63,1.24,1.53.4,4.7,2.64,3.59,6a4.61,4.61,0,0,1-.45,2.75,2,2,0,0,0,.7-.29c2-3.82-.62-7.23-1.56-8.45h0c-.41,0-.83-3.63-5.63-3.47C54,20.47,52.17,21.34,52.17,21.75Z"/><path class="cls-23" d="M51.46,21.69A15.48,15.48,0,0,1,53.9,22a5.54,5.54,0,0,1,.58.17,20.93,20.93,0,0,1,2.75.13c1.83.2,6.29,3.12,4.46,7.77a5.57,5.57,0,0,1-.82,3.65,2.77,2.77,0,0,0,1-.61c1.66-2.76.66-6.08.31-7.9h0c-.2,0-.46-5.58-7.34-5.5C53.92,19.92,51.35,21.15,51.46,21.69Z"/><path class="cls-19" d="M64.14,26.67s-.1-7.53-9.06-7.53c-1.19.22-4.53,1.82-4.32,2.49a16.58,16.58,0,0,1,2.82.24,5.06,5.06,0,0,1,2.86-1c2.14,0,7.88,3.62,5.34,9.54A6.72,6.72,0,0,1,60.59,35,3.91,3.91,0,0,0,62,34c1.37-1.72,1.95-4.93,2.2-7.37Z"/><path class="cls-10" d="M44.47,33.5a27.37,27.37,0,0,0-3.32.41c2.15,1.69,3.72,3.19,4.21,4.57,4.89-1.21,12-2.09,15.23-3.52,1.28-1.85,2.91-5.36-.44-8.29l-3.58-5.18a13.39,13.39,0,0,0-3.12-.34c.45,1.41,2.37,3.13,4.18,5.57"/><path class="cls-24" d="M57.63,26.72a20.22,20.22,0,0,1,1.73,2.73c2.79,5.38-5,5.58-10,4.39a17,17,0,0,0-4.93-.34"/><path class="cls-10" d="M47,32.56c3.84.12,4.89,1.17,8,.58,2.34-.43,4.11-1.19,4.85-2.23a6,6,0,0,0-.54-1.55,18.53,18.53,0,0,0-1.73-2.64,3.3,3.3,0,0,1-.1,2.2A3.5,3.5,0,0,1,56.1,30.4L50.71,30l-5.4-.37A51.64,51.64,0,0,1,40.83,27a9.92,9.92,0,0,0,.61,2.44,11.9,11.9,0,0,0,1,2c.54.86-.49,1.81.06,2.32C43,33.3,44.23,32.48,47,32.56Z"/><path class="cls-9" d="M57.6,27.84a2.82,2.82,0,0,1-.3,1.86,3.42,3.42,0,0,1-1.12,1.12L56,31c-.2.08-4.43-.12-4.71-.07h-.07c-.35.06-4.63-.24-4.88-.28-1.54-.71-3-1.53-4.07-2.1a17.92,17.92,0,0,0,0,1.8,8.3,8.3,0,0,0,.1,1.55c.12.68-.71,1.46-.5,1.93l.08.07A11.42,11.42,0,0,1,47.16,33c3.44.22,4.9,1.05,7.76.5a8.93,8.93,0,0,0,3.53-1.32,2.78,2.78,0,0,0,.85-.9,4.33,4.33,0,0,0-.39-1.19A16.28,16.28,0,0,0,57.6,27.84Z"/><path class="cls-8" d="M58.36,28.92a2.38,2.38,0,0,1-.49,1.51,3.44,3.44,0,0,1-1.06.92l-.19.12c-.4.17-3.55.12-4.1.23h-.07a29.31,29.31,0,0,1-4.37-.18c-1.3-.52-2.54-1.13-3.64-1.56-.23.39-.36.82-.61,1.16a7.92,7.92,0,0,0-.78,1.1c-.27.55-1,1.21-1,1.62l.08.07a19.86,19.86,0,0,1,6-.44c3,.33,4.92.94,7.5.43a7.34,7.34,0,0,0,3.15-1.27,2.76,2.76,0,0,0,.75-.94,3.65,3.65,0,0,0-.24-.93A11.62,11.62,0,0,0,58.36,28.92Z"/><path class="cls-7" d="M59.13,29.94a2.32,2.32,0,0,1-.69,1.17,3.89,3.89,0,0,1-1,.72l-.16.09a29.23,29.23,0,0,1-3.5.52h-.06a16.16,16.16,0,0,1-3.85-.08c-1.08-.33-2.12-.73-3.23-1a11.86,11.86,0,0,1-1.22.5,7.77,7.77,0,0,0-1.66.67,4.06,4.06,0,0,0-1.49,1.3l.09.07a30.13,30.13,0,0,1,6.69-.06c2.64.43,4.92.84,7.22.36A5.83,5.83,0,0,0,59,33a2.37,2.37,0,0,0,.66-1,3.29,3.29,0,0,0-.08-.66A8.54,8.54,0,0,0,59.13,29.94Z"/><path class="cls-6" d="M55.05,33.14c-3.15.59-4.2-.46-8-.58-2.78-.08-4,.74-4.52,1.21l.09.07a38.33,38.33,0,0,1,7.42.33,17,17,0,0,0,7,.28,4.62,4.62,0,0,0,2.39-1.19,2.29,2.29,0,0,0,.56-1,2.88,2.88,0,0,0,0-1.34,4.43,4.43,0,0,1-1.82,1.34A13.32,13.32,0,0,1,55.05,33.14Z"/><path class="cls-25" d="M40.79,26.57a5.27,5.27,0,0,1,1.05-3.65,15.29,15.29,0,0,0-3.61.27,6.46,6.46,0,0,0-2.52,1.06,4.29,4.29,0,0,0-1.54,4.43l.49.38,3.5,2.59a2.81,2.81,0,0,1,.17-3.32A6.48,6.48,0,0,1,40.79,26.57Z"/><path class="cls-25" d="M36.37,25.27a3.94,3.94,0,0,0-1.26,4.05l.42.39,3.38,2.51a2.34,2.34,0,0,1,1-2.6,6.5,6.5,0,0,1,1.33-1.83A5.64,5.64,0,0,1,41.46,25a4.9,4.9,0,0,1,.24-.52,20.38,20.38,0,0,0-2.39-.38l-.44,0A6.52,6.52,0,0,0,36.37,25.27Z"/><path class="cls-25" d="M37,26.29a3.55,3.55,0,0,0-1,3.67l.35.39,3.25,2.43a2.76,2.76,0,0,1,1.74-1.86A8,8,0,0,1,41.61,29a6.42,6.42,0,0,1-.16-2.55c0-.16.07-.32.11-.48-.67-.34-1.26-.66-1.75-.93l-.3-.17A6.55,6.55,0,0,0,37,26.29Z"/><path class="cls-25" d="M37.68,27.31A3.13,3.13,0,0,0,37,30.59a2.71,2.71,0,0,0,.28.41c1.14.85,2.18,1.62,3.11,2.34a6.4,6.4,0,0,1,2.54-1.13,6.94,6.94,0,0,1-.92-2A8.13,8.13,0,0,1,41.45,28a3.39,3.39,0,0,1,0-.45A8.4,8.4,0,0,1,40.32,26a3.07,3.07,0,0,1-.17-.31A6.54,6.54,0,0,0,37.68,27.31Z"/><path class="cls-25" d="M44.47,33.5a6.65,6.65,0,0,1-2-2.05,11.9,11.9,0,0,1-1-2A9.92,9.92,0,0,1,40.83,27c0-.15,0-.3,0-.45a6.48,6.48,0,0,0-2.46,1.76,2.81,2.81,0,0,0-.17,3.32c1.11.82,2.11,1.56,3,2.26A27.37,27.37,0,0,1,44.47,33.5Z"/><path class="cls-26" d="M40.79,26.57a5.27,5.27,0,0,1,1.05-3.65,15.29,15.29,0,0,0-3.61.27,6.46,6.46,0,0,0-2.52,1.06,4.29,4.29,0,0,0-1.54,4.43l.49.38,3.5,2.59a2.81,2.81,0,0,1,.17-3.32A6.48,6.48,0,0,1,40.79,26.57Z"/><path class="cls-27" d="M36.37,25.27a3.94,3.94,0,0,0-1.26,4.05l.42.39,3.38,2.51a2.34,2.34,0,0,1,1-2.6,6.5,6.5,0,0,1,1.33-1.83A5.64,5.64,0,0,1,41.46,25a4.9,4.9,0,0,1,.24-.52,20.38,20.38,0,0,0-2.39-.38l-.44,0A6.52,6.52,0,0,0,36.37,25.27Z"/><path class="cls-28" d="M37,26.29a3.55,3.55,0,0,0-1,3.67l.35.39,3.25,2.43a2.76,2.76,0,0,1,1.74-1.86A8,8,0,0,1,41.61,29a6.42,6.42,0,0,1-.16-2.55c0-.16.07-.32.11-.48-.67-.34-1.26-.66-1.75-.93l-.3-.17A6.55,6.55,0,0,0,37,26.29Z"/><path class="cls-29" d="M37.68,27.31A3.13,3.13,0,0,0,37,30.59a2.71,2.71,0,0,0,.28.41c1.14.85,2.18,1.62,3.11,2.34a6.4,6.4,0,0,1,2.54-1.13,6.94,6.94,0,0,1-.92-2A8.13,8.13,0,0,1,41.45,28a3.39,3.39,0,0,1,0-.45A8.4,8.4,0,0,1,40.32,26a3.07,3.07,0,0,1-.17-.31A6.54,6.54,0,0,0,37.68,27.31Z"/><path class="cls-6" d="M44.47,33.5a6.65,6.65,0,0,1-2-2.05,11.9,11.9,0,0,1-1-2A9.92,9.92,0,0,1,40.83,27c0-.15,0-.3,0-.45a6.48,6.48,0,0,0-2.46,1.76,2.81,2.81,0,0,0-.17,3.32c1.11.82,2.11,1.56,3,2.26A27.37,27.37,0,0,1,44.47,33.5Z"/><path class="cls-30" d="M47,30.49c-.58-.26-1.16-.54-1.73-.83"/><path class="cls-30" d="M56.1,30.4A12.5,12.5,0,0,1,53,31.65c-1.52.43-3.74-.19-5.94-1.16"/><path class="cls-31" d="M50.59,27.46a17.26,17.26,0,0,0,5.07.28,5.22,5.22,0,0,0-2.48-2.67c-7.06-2.7-7.89,2.08-7.87,4.59.57.29,1.15.57,1.73.83C47.16,28.75,49.18,27,50.59,27.46Z"/><path class="cls-6" d="M44.55,46a22.75,22.75,0,0,1,.1,3.13c1.17.87,2.21,1.63,3,2.1a2.8,2.8,0,0,0,.32.2c.68-.57,1.77-1.52,3-2.65.59-.56,1.2-1.17,1.8-1.8s1.19-1.28,1.72-1.93a16.54,16.54,0,0,0-3.59-.71,10.84,10.84,0,0,0-2.79.11A7.48,7.48,0,0,0,44.55,46Z"/><path class="cls-32" d="M44,44.73a4.37,4.37,0,0,1,.3.93,13.33,13.33,0,0,1,.22,1.41c.05.47.08.94.09,1.38a27.41,27.41,0,0,0,3,1.21l.35.13A41.51,41.51,0,0,1,51.77,48c.59-.61,1.19-1.25,1.74-1.89A21.75,21.75,0,0,0,55,44.12a32.63,32.63,0,0,0-3.45-.46l-.31,0a23.61,23.61,0,0,0-2.9,0A10.31,10.31,0,0,0,44,44.73Z"/><path class="cls-33" d="M43.5,43.52a3.89,3.89,0,0,1,.52,1,11.53,11.53,0,0,1,.4,1.64,16.36,16.36,0,0,1,.18,1.67c.93.15,1.94.2,3,.32l.38.05a18,18,0,0,1,4.67-1c.6-.65,1.17-1.33,1.67-2a12.12,12.12,0,0,0,1.25-1.94c-1.26-.1-2.47-.18-3.61-.24l-.32,0c-1.11-.08-2.12-.11-3-.16A13.46,13.46,0,0,0,43.5,43.52Z"/><path class="cls-34" d="M43,42a3.78,3.78,0,0,1,.75,1.1A10.42,10.42,0,0,1,44.3,45a18.5,18.5,0,0,1,.28,1.94,16.09,16.09,0,0,1,3-.56l.42,0a14.11,14.11,0,0,1,5.52-.22,22.05,22.05,0,0,0,1.61-2.08,8.47,8.47,0,0,0,1-1.95c-1.27,0-2.55,0-3.76,0l-.34,0a30.91,30.91,0,0,1-3.14-.29A16.65,16.65,0,0,0,43,42Z"/><path class="cls-35" d="M54.41,45A16,16,0,0,0,56,42.8a5.75,5.75,0,0,0,.78-1.95,23.3,23.3,0,0,1-3.91.2,19.28,19.28,0,0,1-3.62-.44,19.34,19.34,0,0,0-6.76-.18,4.12,4.12,0,0,1,1,1.18,10.4,10.4,0,0,1,.76,2.09,15.72,15.72,0,0,1,.37,2.23A7.48,7.48,0,0,1,48,44.38,13.83,13.83,0,0,1,54.41,45Z"/><path class="cls-15" d="M40.26,42.16a25.48,25.48,0,0,1-4.17-1.9c-1.58-.83-3.23-1.74-4.52-2.33a3.9,3.9,0,0,0-2.86-.4A6.63,6.63,0,0,0,31,41a8.34,8.34,0,0,0,4.06,2.16c1.44.21,4,1.86,6.55,3.66C42.46,45.5,41.87,42.6,40.26,42.16Z"/><path class="cls-15" d="M28.07,35.88a8.24,8.24,0,0,0,.52,1.51A14.29,14.29,0,0,0,30.3,40l.13.18c.45.25,1,.5,1.74.9a17.58,17.58,0,0,0,3.24,1.45c.71.23,1.47.57,2.2.87A6.12,6.12,0,0,1,40,45.75c.78.53,1.59,1.1,2.37,1.66C43,45.85,42.51,43,41.05,42c-.19-.12-.41-.28-.69-.44-.12,0-.47-.28-.6-.33l-3.62-1.91c-1.69-.89-3.46-1.84-5-2.52l-.08,0A7.9,7.9,0,0,0,28.07,35.88Z"/><path class="cls-15" d="M27.44,34.23c.14.43.35,1.21.61,1.8a24.81,24.81,0,0,0,1.71,3l.09.23A7.45,7.45,0,0,1,32,40c1.15.59,2.52,1.29,3.79,1.82,1,.4,1.92.86,2.73,1.14a3.92,3.92,0,0,1,2,3.15c.88.6,1.76,1.24,2.6,1.84a7.42,7.42,0,0,0-1.29-6.08,6.48,6.48,0,0,0-.78-.69c-.08,0-.63-.43-.72-.47-1.11-.68-2.58-1.48-4.16-2.31-1.81-.95-3.76-1.94-5.48-2.73l-.06,0A18,18,0,0,0,27.44,34.23Z"/><path class="cls-15" d="M26.8,32.58c.19.44.43,1.42.7,2.09.1.18,1.54,3.3,1.72,3.47a2.61,2.61,0,0,0,.06.27,4.75,4.75,0,0,1,2.49.56c1.27.61,2.86,1.47,4.34,2.18a27.5,27.5,0,0,0,3.27,1.41c1.41.44,2.08,2.75,1.69,3.93,1,.67,1.92,1.37,2.82,2a10.88,10.88,0,0,0-1.26-6.77,4.59,4.59,0,0,0-.88-.93s-.77-.59-.82-.61a46.86,46.86,0,0,0-4.71-2.71c-1.94-1-4.06-2-6-3l0,0C29.38,34.11,27.27,32.69,26.8,32.58Z"/><path class="cls-15" d="M43.42,41.61a4.12,4.12,0,0,0-1-1.18l-.92-.75a41.31,41.31,0,0,0-5.26-3.12c-2.07-1.07-4.35-2.15-6.51-3.16-.48-.23-3.13-2.26-3.59-2.47.24.46.51,1.62.79,2.37l1.73,3.92c0,.1,0,.21,0,.31a3.9,3.9,0,0,1,2.86.4c2.59,1.18,6.58,3.64,8.69,4.23,1.61.44,2.2,3.34,1.35,4.7,1,.74,2.09,1.51,3,2.21A16.21,16.21,0,0,0,43.42,41.61Z"/><path class="cls-15" d="M40.26,42.16a25.48,25.48,0,0,1-4.17-1.9c-1.58-.83-3.23-1.74-4.52-2.33a3.9,3.9,0,0,0-2.86-.4A6.63,6.63,0,0,0,31,41a8.34,8.34,0,0,0,4.06,2.16c1.44.21,4,1.86,6.55,3.66C42.46,45.5,41.87,42.6,40.26,42.16Z"/><path class="cls-36" d="M28.07,35.88a8.24,8.24,0,0,0,.52,1.51A14.29,14.29,0,0,0,30.3,40l.13.18c.45.25,1,.5,1.74.9a17.58,17.58,0,0,0,3.24,1.45c.71.23,1.47.57,2.2.87A6.12,6.12,0,0,1,40,45.75c.78.53,1.59,1.1,2.37,1.66C43,45.85,42.51,43,41.05,42c-.19-.12-.41-.28-.69-.44-.12,0-.47-.28-.6-.33l-3.62-1.91c-1.69-.89-3.46-1.84-5-2.52l-.08,0A7.9,7.9,0,0,0,28.07,35.88Z"/><path class="cls-37" d="M27.44,34.23c.14.43.35,1.21.61,1.8a24.81,24.81,0,0,0,1.71,3l.09.23A7.45,7.45,0,0,1,32,40c1.15.59,2.52,1.29,3.79,1.82,1,.4,1.92.86,2.73,1.14a3.92,3.92,0,0,1,2,3.15c.88.6,1.76,1.24,2.6,1.84a7.42,7.42,0,0,0-1.29-6.08,6.48,6.48,0,0,0-.78-.69c-.08,0-.63-.43-.72-.47-1.11-.68-2.58-1.48-4.16-2.31-1.81-.95-3.76-1.94-5.48-2.73l-.06,0A18,18,0,0,0,27.44,34.23Z"/><path class="cls-38" d="M26.8,32.58c.19.44.43,1.42.7,2.09.1.18,1.54,3.3,1.72,3.47a2.61,2.61,0,0,0,.06.27,4.75,4.75,0,0,1,2.49.56c1.27.61,2.86,1.47,4.34,2.18a27.5,27.5,0,0,0,3.27,1.41c1.41.44,2.08,2.75,1.69,3.93,1,.67,1.92,1.37,2.82,2a10.88,10.88,0,0,0-1.26-6.77,4.59,4.59,0,0,0-.88-.93s-.77-.59-.82-.61a46.86,46.86,0,0,0-4.71-2.71c-1.94-1-4.06-2-6-3l0,0C29.38,34.11,27.27,32.69,26.8,32.58Z"/><path class="cls-39" d="M43.42,41.61a4.12,4.12,0,0,0-1-1.18l-.92-.75a41.31,41.31,0,0,0-5.26-3.12c-2.07-1.07-4.35-2.15-6.51-3.16-.48-.23-3.13-2.26-3.59-2.47.24.46.51,1.62.79,2.37l1.73,3.92c0,.1,0,.21,0,.31a3.9,3.9,0,0,1,2.86.4c2.59,1.18,6.58,3.64,8.69,4.23,1.61.44,2.2,3.34,1.35,4.7,1,.74,2.09,1.51,3,2.21A16.21,16.21,0,0,0,43.42,41.61Z"/><path class="cls-40" d="M54.5,29.28a2.83,2.83,0,0,0,0-2.3c-.85-1.09-2.57-1.26-3.15-1.45-1-.34-3.76,1.81-3.8,3.52C48.26,30.13,53.33,30.68,54.5,29.28Z"/><path class="cls-41" d="M31.75,28.62a4.28,4.28,0,0,1-2-1.91,17.29,17.29,0,0,1,.57,3.46,9.09,9.09,0,0,1-.55,3.23l2.62,1.23L35,35.9c1.71.86,3.32,1.72,4.68,2.55.72-1.66-.63-3.79-2.47-5.68a24.42,24.42,0,0,0-2.93-2.54A19.08,19.08,0,0,0,31.75,28.62Z"/><path class="cls-42" d="M30,26A7.77,7.77,0,0,0,30,28.14l0,.19c.12.46.25.9.4,1.33.07.18.14.35.2.54a10.28,10.28,0,0,1,.39,2.54c.6.34,1.21.7,1.8,1.08.35.23.69.45,1,.69a11.13,11.13,0,0,1,2.27,2c.63.33,1.24.67,1.81,1,1,.28,2.09.61,3.13.91.41-1.58-1-3.56-2.9-5.4a36.19,36.19,0,0,0-3.34-2.75c-.53-.4-1.05-.76-1.54-1.09L32,28.34A4.86,4.86,0,0,1,30,26Z"/><path class="cls-43" d="M30.21,25.26a3.93,3.93,0,0,0-.3,2.32,1.91,1.91,0,0,1,0,.21,5.25,5.25,0,0,0,.68,1.36c.12.18.26.34.39.52a13.61,13.61,0,0,1,1.34,2.42c.65.42,1.31.89,1.93,1.38.38.3.75.6,1.08.91a5.91,5.91,0,0,1,1.94,2.79q1,.55,1.83,1.08c1,0,2.16.14,3.37.21.11-1.51-1.34-3.34-3.34-5.12-1.1-1-2.39-2-3.75-3-.55-.41-1.12-.81-1.67-1.2s-1.06-.78-1.47-1.1A5.4,5.4,0,0,1,30.21,25.26Z"/><path class="cls-19" d="M30.45,24.52A3,3,0,0,0,29.8,27c0,.09,0,.15,0,.23a4.4,4.4,0,0,0,.95,1.4,7.71,7.71,0,0,0,.59.5,16.68,16.68,0,0,1,2.28,2.28c.7.52,1.42,1.09,2.08,1.69.4.37.79.75,1.14,1.14,1.09,1.22,1.8,2.5,1.6,3.55.68.39,1.3.78,1.85,1.16a28.68,28.68,0,0,1,3.6-.5c-.18-1.45-1.69-3.11-3.77-4.85-1.19-1-2.6-2-4.15-3.19l-1.8-1.32a19.5,19.5,0,0,1-1.66-1.34A5.68,5.68,0,0,1,30.45,24.52Z"/><path class="cls-44" d="M45.36,38.48c-.49-1.38-2.06-2.88-4.21-4.57-1.74-1.37-3.93-2.93-6.49-4.85-3-2.26-3.89-4-4-5.27a2.81,2.81,0,0,0-1,2.68c0,.08,0,.16.05.24a4.28,4.28,0,0,0,2,1.91,24.06,24.06,0,0,1,5.43,4.15c1.84,1.89,3.19,4,2.47,5.68.7.42,1.33.83,1.87,1.23A17,17,0,0,1,45.36,38.48Z"/><path class="cls-45" d="M28.46,24.75c.88-2.32,2.84-2.77,5-2.75.44-.2.86-.38,1.22-.52a2.43,2.43,0,0,1-1.28-1.18c-1.07-.57-3.09-1.12-5.72.59a17.8,17.8,0,0,0-4,4.16C22.29,27.32,22,30,26.59,31.59l1.76,1.15,5.08,2.41a3.29,3.29,0,0,0-.19-2.23,36.61,36.61,0,0,1-3.31-4C28.86,27.35,28.09,25.76,28.46,24.75Z"/><path class="cls-46" d="M24.89,25c-1.15,2-1.17,4.37,2.54,6a12.86,12.86,0,0,0,1.75,1.43c.49.33,3.87,2.06,4.34,2.34a3.93,3.93,0,0,0-.45-2.1c-.48-.56-1.12-1.3-1.76-2.11-.43-.55-.86-1.13-1.25-1.72a8.9,8.9,0,0,1-1.3-2.66,2.1,2.1,0,0,1,0-1.14,3.66,3.66,0,0,1,1.64-2.07,6.6,6.6,0,0,1,2.85-.78c.41-.19.8-.36,1.14-.5a2.18,2.18,0,0,1-1.14-.88,4.55,4.55,0,0,0-1.83-.4,5.67,5.67,0,0,0-3,1A13,13,0,0,0,24.89,25Z"/><path class="cls-47" d="M26.08,24.9c-.89,1.64-.64,3.77,2.18,5.35A12.44,12.44,0,0,0,30,32c.52.45,3.08,1.85,3.53,2.18a4.6,4.6,0,0,0-.65-1.88c-.44-.58-1-1.28-1.57-2-.39-.52-.78-1.07-1.13-1.62a8.55,8.55,0,0,1-1.13-2.39,2.12,2.12,0,0,1,0-1.06,3.58,3.58,0,0,1,1.44-2,6.77,6.77,0,0,1,2.55-1c.36-.18.72-.34,1-.48a2.12,2.12,0,0,1-1-.58,4.38,4.38,0,0,0-1.51-.24,5.12,5.12,0,0,0-2.5.77A9.21,9.21,0,0,0,26.08,24.9Z"/><path class="cls-48" d="M27.27,24.83c-.63,1.32-.13,3.18,1.83,4.75a14.66,14.66,0,0,0,1.74,2c.55.57,2.15,1.6,2.59,2a5.68,5.68,0,0,0-.71-1.62c-.4-.6-.9-1.26-1.39-1.95-.35-.5-.7-1-1-1.52a7.55,7.55,0,0,1-.95-2.12,2.17,2.17,0,0,1,0-1,3.42,3.42,0,0,1,1.24-1.87,7.39,7.39,0,0,1,2.23-1.16c.33-.17.65-.33,1-.46a2.4,2.4,0,0,1-.84-.29,5.6,5.6,0,0,0-1.19-.07,4.5,4.5,0,0,0-2,.59A6.14,6.14,0,0,0,27.27,24.83Z"/><path class="cls-15" d="M30.68,23.79A10.63,10.63,0,0,1,33.47,22a10.16,10.16,0,0,0-1.58.1,5,5,0,0,0-1.41.4,3.82,3.82,0,0,0-2,2.25c-.37,1,.4,2.6,1.47,4.17.54.78,1.15,1.55,1.74,2.25s1.14,1.3,1.57,1.75a20.71,20.71,0,0,0-1.9-3.19,10.71,10.71,0,0,1-1.66-3.26A2.81,2.81,0,0,1,30.68,23.79Z"/><path class="cls-19" d="M41.23,20.09s-2.4.24-6,.5c-1.15.43-3.62,1.16-4.53,3.2.09,1.17-1.61,2.46,3.49,4.89a4.15,4.15,0,0,1-.05-.69,2.7,2.7,0,0,1-.72-2.49c.52-2.33,5.82-2.46,7.37-3.23,1.12-.57,3.8-2.48,5.3-1.63a16.4,16.4,0,0,1,2.32-.3C46.63,19.27,43.93,18.33,41.23,20.09Z"/><path class="cls-49" d="M34.16,28.5a3.58,3.58,0,0,1,0-.65,2.67,2.67,0,0,1-.32-2.29,3.41,3.41,0,0,1,2.29-1.81c1.62-.59,3.65-.86,4.64-1.27.35-.14.78-.36,1.26-.59,1.08-.7,2.52-1.44,3.57-1.1a15.17,15.17,0,0,1,2.16-.36l-.19-.18a6.31,6.31,0,0,0-6.36.35.19.19,0,0,1-.09,0c-.4.12-2.57.34-5.51.62-1.26.44-3.47,1.14-4.22,3C31.36,25.37,30.2,26.54,34.16,28.5Z"/><path class="cls-50" d="M34.14,28.33a4.26,4.26,0,0,1,0-.62,2.74,2.74,0,0,1,.06-2.1,3.84,3.84,0,0,1,2.17-1.67c1.47-.59,3.28-.89,4.34-1.24.36-.12.79-.29,1.22-.46A5.1,5.1,0,0,1,45.08,21a12.48,12.48,0,0,1,2-.42c0-.05,0-.1,0-.15-1.58-.88-4-.43-5.92.73l-.15.07a45.45,45.45,0,0,1-5,.76c-1.36.43-3.33,1.1-3.91,2.71C32,25.77,31.33,26.83,34.14,28.33Z"/><path class="cls-51" d="M34.13,28.16a5.35,5.35,0,0,1,0-.58,3.14,3.14,0,0,1,.46-1.91,4.45,4.45,0,0,1,2-1.53,26.65,26.65,0,0,1,4-1.23l1.2-.33a5.57,5.57,0,0,1,2.7-1.48,12.1,12.1,0,0,1,1.81-.48l.16-.11c-1.49-.84-3.93.19-5.49,1.11l-.19.1a34.55,34.55,0,0,1-4.56.9c-1.47.43-3.18,1.07-3.6,2.45A2.55,2.55,0,0,0,34.13,28.16Z"/><path class="cls-52" d="M40.77,22.27a36.6,36.6,0,0,1-4.07,1c-1.59.42-3,1-3.3,2.2A2.7,2.7,0,0,0,34.12,28c0-1.72,1.26-2.88,2.83-3.66a16.89,16.89,0,0,1,4.89-1.41,7,7,0,0,1,4.23-2.28C44.57,19.79,41.89,21.7,40.77,22.27Z"/><path class="cls-51" d="M58.06,37.28c3.92-1.36,10.1-4.5,6-10C63.8,29.6,63.21,32.46,62,34a3.91,3.91,0,0,1-1.36.92c-2,.9-5.19,1.41-8.48,2A9.5,9.5,0,0,0,58.06,37.28Z"/><path class="cls-53" d="M64.1,27.11l0,.27c.89,2.37-.3,4.29-1.52,5.67a10.77,10.77,0,0,1-3.47,2,4.49,4.49,0,0,1-1.46.67c-.58.17-1.2.26-2,.47l-1.13.3c-1.33.32-2.72.62-4,.93l-.78.36a30,30,0,0,1,3.08.41,12.42,12.42,0,0,0,3.52.21,8.31,8.31,0,0,0,3-.86c2.45-1.28,6.06-2.8,6.52-5.8A5.57,5.57,0,0,0,64.1,27.11Z"/><path class="cls-54" d="M64.12,27c0,.12,0,.24-.05.37,2,3.42-.08,5.85-2.18,7.27a15.82,15.82,0,0,1-5.67,1.5,5.21,5.21,0,0,1-1.56.44,13.23,13.23,0,0,0-2.11.28l-1.14.31c-1.4.34-2.76.68-3.93,1a2.3,2.3,0,0,1-.2.49,18.58,18.58,0,0,1,4.3.34,15.56,15.56,0,0,0,4.85.22,9.84,9.84,0,0,0,4.17-1.39c2.37-1.54,6-3,5.95-6.44A6.39,6.39,0,0,0,64.12,27Z"/><path class="cls-55" d="M64.13,26.82c0,.15,0,.32,0,.48,3,4.47.16,7.46-2.86,8.87a21.26,21.26,0,0,1-7.87,1,5.13,5.13,0,0,1-1.66.2,6.14,6.14,0,0,0-2.22.09l-1.15.32a25.36,25.36,0,0,0-3.82,1.18,3.59,3.59,0,0,1,.36.61,18.56,18.56,0,0,1,5.53.26,18.64,18.64,0,0,0,6.19.24,11.39,11.39,0,0,0,5.29-1.91c2.32-1.78,5.94-3.28,5.38-7.09A7.39,7.39,0,0,0,64.13,26.82Z"/><path class="cls-19" d="M45.23,38.38a15.25,15.25,0,0,0-3.71,1.3c.34.26.66.51.92.75a19.34,19.34,0,0,1,6.76.18,21.84,21.84,0,0,0,7.53.24,12.66,12.66,0,0,0,6.41-2.43c2.3-2,5.88-3.51,4.8-7.72a8.34,8.34,0,0,0-3.79-4c0,.19-.05.39-.07.59,4.08,5.52.4,9.11-3.52,10.47-1.88.65-8.21,1.07-10.07.46-1.93.32-2.3-.58-4.11-.14Z"/><path class="cls-6" d="M43.58,28.76l1.73.9a6.81,6.81,0,0,1,1-3.85c-.27-1.1.87-1.58,2.41-2.46a4.78,4.78,0,0,0,.55-.37C43.72,21.38,43.34,26,43.58,28.76Z"/><path class="cls-56" d="M42.66,28.26c.64.36,1.46.79,2.22,1.17-.7-1.6-.69-4.24,2.13-4.33,0-.94.89-1.43,2.09-2.19a.4.4,0,0,0-.08-.59C43.33,21.08,42.39,25.41,42.66,28.26Z"/><path class="cls-57" d="M41.74,27.75c.68.41,1.73,1,2.7,1.46-1.37-2.1-1.52-5.8,3.31-4.81.18-.79.91-1.3,1.76-1.93,0-.25-.08-.66-.7-.81C42.94,20.79,41.44,24.83,41.74,27.75Z"/><path class="cls-58" d="M40.82,27.24c.72.46,2,1.12,3.19,1.75-2.06-2.59-2.37-7.35,4.48-5.3A9.6,9.6,0,0,1,49.93,22c0-.32-.31-.86-1.33-1C42.54,20.49,40.5,24.25,40.82,27.24Z"/><path class="cls-19" d="M50.34,21.6c-.12-.4-.54-1.08-2-1.26-6.24-.14-8.84,3.33-8.49,6.39.77.51,2.25,1.29,3.68,2-2.75-3.07-3.21-8.9,5.65-5.78A3.48,3.48,0,0,0,50.34,21.6Z"/><path class="cls-52" d="M49.59,23.26a2.46,2.46,0,0,0-2.26,1.56,4.23,4.23,0,0,1,2.3-.55,10.8,10.8,0,0,1,3.55.8,3.15,3.15,0,0,1,1.23.86,7,7,0,0,1,1.14,1.6,5.54,5.54,0,0,0,.06-1.6,3,3,0,0,0-.38-1.15,3,3,0,0,0-1.65-1.27A10.63,10.63,0,0,0,49.59,23.26Z"/><path class="cls-59" d="M49.12,23.28c-1.45.42-2,1.1-2,1.78a4.57,4.57,0,0,1,1.25-.75A6.25,6.25,0,0,1,49.56,24,6.09,6.09,0,0,1,51,23.89a4.82,4.82,0,0,1,2.76,1,3.38,3.38,0,0,1,1,1.27,3.7,3.7,0,0,1,.16.4l.09.12a4.85,4.85,0,0,1,.72,1.59,2.79,2.79,0,0,0,.42-2.12,4.78,4.78,0,0,0-.49-1.19,4.29,4.29,0,0,0-1.49-1.42,7.66,7.66,0,0,0-1.57-.81c-1-.36-1.35-.45-1.91-.14-.12,0-.38.35-.5.32A5.33,5.33,0,0,1,49.12,23.28Z"/><path class="cls-60" d="M48.65,23.3c-1.47.6-1.88,1.19-1.85,2a6.13,6.13,0,0,1,1.38-1.07,4.8,4.8,0,0,1,1.31-.56,6.07,6.07,0,0,1,1.73-.28,3.71,3.71,0,0,1,3.09,1.27A3.87,3.87,0,0,1,55,26.36a4,4,0,0,1,.07.5l.1.16A4.48,4.48,0,0,1,55.83,29a2.66,2.66,0,0,0,.79-2.65A12.37,12.37,0,0,0,56,25.11a6.72,6.72,0,0,0-1.33-1.57,6.39,6.39,0,0,0-1.82-1.35c-1.5-.71-1.69-.86-2.34-.25-.08,0-.43.7-.54.61A3.88,3.88,0,0,1,48.65,23.3Z"/><path class="cls-61" d="M48.18,23.33c-1.5.74-1.8,1.27-1.64,2.23a7.18,7.18,0,0,1,1.51-1.39,3.72,3.72,0,0,1,1.38-.79,6.44,6.44,0,0,1,2-.47c1.16,0,2.7.13,3.42,1.56a4.77,4.77,0,0,1,.46,2.1c0,.2,0,.41,0,.63l.1.18A4.22,4.22,0,0,1,56,29.69a2.79,2.79,0,0,0,1.16-3.17l-.72-1.24a16.39,16.39,0,0,0-1.17-1.74,6,6,0,0,0-2.08-1.87c-2-1.07-2-1.26-2.76-.36,0,0-.5,1-.57.91A4.23,4.23,0,0,1,48.18,23.33Z"/><path class="cls-19" d="M57.73,26.76a26.81,26.81,0,0,1-1.94-3.2,5.82,5.82,0,0,0-2.34-2.41c-2.47-1.43-2.36-1.67-3.19-.47,0,0-.55,1.39-.61,1.21-.2.48-.93.88-1.93,1.46-1.55.88-1.72,1.36-1.45,2.46a8.79,8.79,0,0,1,1.64-1.7c.22-.55,2.32-1.59,3.78-1.69,1.86-.12,4.7.21,3.86,5.11a2.12,2.12,0,0,1,.11.21,4.28,4.28,0,0,1,.44,2.66A3,3,0,0,0,57.73,26.76Z"/><path class="cls-62" d="M55.66,27.74C55,26.5,54.75,26,52.8,25.89a1.86,1.86,0,0,1,.24,2.9c-1.23,1.34-4.78,1.34-5.49.26A3.09,3.09,0,0,0,47,30.49c2.2,1,4.42,1.59,5.94,1.16A12.5,12.5,0,0,0,56.1,30.4,4.28,4.28,0,0,0,55.66,27.74Z"/><path class="cls-6" d="M52.43,27.77s-1.07-1.29-4.61.86c-1.31.79,2.47,1.71,3.65,1.4C53.08,29.6,52.54,28.42,52.43,27.77Z"/></symbol></defs><title>buske</title><g id="busk"><polygon class="cls-63" points="1691.63 105.08 1690.31 97.93 1680.37 100.23 1673.22 98.13 1669.07 84.25 1657.32 105.13 1651.14 101.02 1644.35 99.26 1636.2 89.78 1632.64 109.31 1620.13 91 1623.54 118.01 1605.43 97.96 1600.24 104.64 1585.53 100.7 1601.38 125.86 1580.4 119.74 1580.23 129.07 1573.54 135.46 1570.83 143.72 1578.8 162.56 1571.05 152.05 1567.53 124.54 1557.26 146.07 1550.18 140.16 1543.03 142.86 1536.35 146.04 1523.3 129.39 1524.79 154.4 1520.97 160.83 1500.09 143.28 1491.55 147.51 1498.2 165.16 1491.08 169.45 1501.3 182.66 1491.78 185.89 1492.49 192.93 1482.99 199.53 1491.45 206.48 1488.3 214.44 1476.64 227.42 1491.63 229.66 1514.36 236.76 1503.02 250.22 1484.64 242.04 1498.11 260.03 1478.24 256.44 1487.54 267.2 1486.91 273.07 1489.15 277.51 1478.75 286.42 1466.57 278.9 1461.96 288.15 1455.48 290.37 1456.76 305.31 1448.74 303.79 1425.7 289.05 1445.67 316.32 1434.6 315.46 1427.35 319 1409.22 320.78 1404.02 329.02 1415.6 338.87 1418.19 346.61 1406.95 357.47 1422.38 361.36 1417.05 372.99 1436.17 370.06 1429.54 385.04 1444.32 380.97 1449.94 384.92 1461.2 379.2 1456.99 402.19 1464.11 405.91 1473.03 403.17 1481.57 397.04 1488.95 386.05 1494.73 391.56 1500.71 390.38 1507.18 391.93 1517.16 402.43 1523.48 398.27 1528.93 393.06 1543.27 400.72 1531.64 375.22 1545.48 381.56 1559.84 376.61 1545.63 401.33 1551.44 408.1 1565.95 400.65 1567.59 414.84 1583.7 394.44 1586.41 409.25 1591.85 422.75 1601.48 400.85 1607.85 408.2 1616.02 419.26 1619.83 399.09 1625.86 397.93 1640.68 417.26 1636.11 417.91 1631.27 416.77 1638.52 422.24 1667.63 402.03 1650.43 435.13 1665.25 426.84 1669.25 435.68 1677.94 434.55 1681.8 450.05 1695.37 418.56 1699.12 453.13 1707.87 447.08 1714.82 435.27 1726.1 451.65 1723.49 415.34 1731.18 418.87 1744.41 429.19 1759.58 436.38 1751.12 413.84 1745.35 400.36 1763.74 405.82 1777.48 403.9 1751.62 386.96 1782.13 386.73 1753.39 377.31 1774.62 369.6 1753.94 366.9 1770.7 354.16 1756.45 353.12 1751.03 349.1 1755.51 337.13 1742.65 322.15 1769.86 328.98 1774.75 322.07 1779.71 314.45 1748.52 305.1 1777.24 297.6 1783.23 287.82 1745.13 291.98 1747.7 285.56 1764.13 268.74 1771.95 271.08 1753.24 258.15 1759.23 254.84 1777.92 258.69 1766.01 243.61 1791.88 244.45 1761.04 229.78 1790.03 225.72 1776.63 218.59 1776.51 211.7 1782.13 211.38 1771.65 186.5 1788.67 204.96 1801.78 209.18 1793.89 187.44 1809.39 191.54 1794.51 172.24 1820.97 178.3 1796.7 161.8 1831.17 161.97 1827.15 152.33 1810.78 145.32 1813.94 137.52 1810.05 131.14 1820.94 116.96 1813.64 111.09 1792.19 118.82 1797.48 103.57 1792.96 96.56 1772.85 115.09 1783.97 77.93 1771 87.49 1762.72 88.57 1753.45 99.86 1748.48 84.64 1741.32 87.35 1734.48 88.89 1730.75 104.7 1719.93 88.17 1711.2 86.03 1711.83 103.45 1695.07 89.76 1708.44 118.12 1691.63 105.08"/><use width="64.73" height="51.12" transform="matrix(0.41, -2.67, 2.61, 0.4, 1466.82, 366.29)" xlink:href="#Impressionism"/><use width="64.73" height="51.12" transform="matrix(0.41, -2.67, 2.61, 0.4, 1561.1, 270.76)" xlink:href="#Impressionism"/><use width="68.19" height="60.11" transform="matrix(0.09, -0.62, 0.6, 0.09, 1492.8, 216.53)" xlink:href="#Red_Rose"/><use width="68.19" height="60.11" transform="matrix(0.09, -0.62, 0.6, 0.09, 1577.57, 152.6)" xlink:href="#Red_Rose"/><use width="68.19" height="60.11" transform="matrix(0.09, -0.62, 0.6, 0.09, 1657.32, 157.34)" xlink:href="#Red_Rose"/><use width="68.19" height="60.11" transform="matrix(0.09, -0.62, 0.6, 0.09, 1594.37, 313.85)" xlink:href="#Red_Rose"/><use width="68.19" height="60.11" transform="matrix(0.09, -0.62, 0.6, 0.09, 1512.59, 337.74)" xlink:href="#Red_Rose"/><use width="68.19" height="60.11" transform="matrix(0.09, -0.62, 0.6, 0.09, 1604.56, 211.27)" xlink:href="#Red_Rose"/><use width="68.19" height="60.11" transform="matrix(0.09, -0.62, 0.6, 0.09, 1533.34, 263.21)" xlink:href="#Red_Rose"/><use width="68.19" height="60.11" transform="matrix(0.09, -0.62, 0.6, 0.09, 1513.45, 383.99)" xlink:href="#Red_Rose"/><polygon class="cls-63" points="411.61 259.47 419.23 257.37 415.58 246.85 416.93 238.88 431.34 232.36 406.99 222.98 410.41 216.34 411.23 209.42 420.13 199.61 398.72 199.94 416.42 183.77 388.31 192.78 407.16 170.38 399.66 166.4 402.53 150.56 377.71 171.13 383.1 148.13 373.79 148.84 367.65 141.95 359.77 139.03 348.69 166.24 343.08 157.47 360.8 146.44 337.73 142.37 344.75 137.22 342.7 130.98 340.22 123.97 360.14 112.89 333.08 111.56 326.91 107.03 349.49 87.98 346.98 78.91 327.27 83.22 324.86 75.2 308.56 82.86 308.4 72.12 301.3 70.69 298.97 58.81 289.21 64.64 283.59 58.02 277.98 40.4 269.08 53.55 263.23 74.81 257.27 74.76 245.22 56.59 247.13 80.93 231.72 65.29 233.09 80.6 220.08 88.37 204.94 83.56 204.63 71.96 203.11 58.03 192.93 62.83 185.89 60.39 177 74.09 171.08 67.39 162.53 39.07 148.04 73.32 147.95 54.59 149.12 45.91 159.13 28.94 155.81 19.56 140.16 23.29 132.4 20.29 132.66 3.65 118.52 13.03 114.38 0.1 101.88 16.84 96.6 0 88.08 14.1 81.27 14.94 76.85 27.65 64.33 5.68 56.44 7.6 51.76 16.05 49.94 26.9 52.64 40.79 44.4 40.31 40.93 45.3 34.97 48.52 19.48 47.32 17.85 54.89 17.62 62.61 0.64 66.61 28.8 78.13 12.21 83.98 28.67 89.81 0 101.37 0.39 110.39 17.66 112.94 9.4 125.72 36.5 118.14 28.72 132.24 24.26 147.13 46.61 133.91 47.24 144.23 41.36 150.42 54.55 160.5 50.17 164.87 25.26 156.13 17.84 161.96 14.98 170.44 14.22 179.44 49.43 194.99 8.92 196.19 24.82 204.98 18.65 213.45 24.48 220.9 12.2 233.2 49.08 227.55 19.39 250.95 30.01 255.17 44.55 253.54 26.34 242.41 47.9 275.53 39.17 275.4 21.71 271.19 3.95 270.45 23.11 287.9 34.95 298.34 14.26 299.72 1.04 305.67 33.56 313.98 1.51 322.5 34.27 324.71 12.96 336.77 35.49 335.76 18.66 351.09 33.84 350.22 39.64 353.73 35.1 366.96 53.88 355.68 41.52 383.65 47.4 390.07 53.71 396.95 72.11 366.59 71.19 398.94 78.81 408.33 88.08 367.61 93.56 372.7 103.5 396.2 114.23 405.53 112.07 375.64 118.73 375.26 134.35 388.32 129.4 368.42 152.4 384.11 139.83 348.77 143.44 381.17 154.94 369.84 161.38 372.37 167.35 382.86 175.08 351.01 182.74 377.07 192.56 387.51 194.43 362.71 206.36 374.88 201.9 348.91 222.25 370.12 209.69 340.87 226.38 369.11 224.51 366 240.4 355.32 244.76 362.99 252.38 363.8 256.03 382.66 265.35 380.7 274.08 357.61 282.66 373 291.75 374.4 291.1 344.62 299.94 381.49 304.04 370.56 311.54 374.08 326.24 369.12 320.88 385.51 328.61 387.18 335.31 389.7 347.77 377.41 347.19 398.76 353.36 405.83 362.82 389.59 369.08 412.16 374.47 378.45 386.88 413.54 392.79 402.17 396.81 390.93 407.65 396.13 414.62 392.13 423.75 390.59 424.1 379 411.46 358.75 424.91 361.28 423.48 353.05 448.79 357.01 445.2 347.07 435.79 337.26 443.15 331.28 448.94 323.98 450.47 316.32 421.4 314.01 428.66 306.72 424.12 302.26 441.53 287.17 436.97 281.03 436.59 271.79 411.05 284.73 409.6 278.22 422.96 250.22 411.61 259.47"/></g><g id="busk_grene" data-name="busk grene"><use width="64.73" height="51.12" transform="translate(54.58 74.48) scale(3.31 3.42)" xlink:href="#Impressionism"/><use width="64.73" height="51.12" transform="translate(187.58 176.48) scale(3.31 3.42)" xlink:href="#Impressionism"/></g><g id="buskdetaljer"><use width="68.19" height="60.11" transform="translate(240.58 78.48) scale(0.76 0.78)" xlink:href="#Red_Rose"/><use width="68.19" height="60.11" transform="translate(333.58 174.48) scale(0.76 0.78)" xlink:href="#Red_Rose"/><use width="68.19" height="60.11" transform="translate(342.58 277.48) scale(0.76 0.78)" xlink:href="#Red_Rose"/><use width="68.19" height="60.11" transform="translate(141.58 227.48) scale(0.76 0.78)" xlink:href="#Red_Rose"/><use width="68.19" height="60.11" transform="translate(97.58 127.48) scale(0.76 0.78)" xlink:href="#Red_Rose"/><use width="68.19" height="60.11" transform="translate(267.58 220.48) scale(0.76 0.78)" xlink:href="#Red_Rose"/><use width="68.19" height="60.11" transform="translate(191.58 139.48) scale(0.76 0.78)" xlink:href="#Red_Rose"/><use width="68.19" height="60.11" transform="translate(107.58 44.48) scale(0.76 0.78)" xlink:href="#Red_Rose"/></g></svg>
