<svg xmlns="http://www.w3.org/2000/svg" xmlns:xlink="http://www.w3.org/1999/xlink" width="2800" height="500" viewBox="0 0 2800 500"><defs><style>.cls-1,.cls-2{fill:none;}.cls-1{stroke:#1d1d1b;stroke-width:0.3px;}.cls-3{fill:#664106;}.cls-4{fill:#774f07;}.cls-5{fill:#a5660a;}</style><symbol id="Vertical_Lines" data-name="Vertical Lines" viewBox="0 0 70.93 75.02"><line class="cls-1" x1="70.66" y1="5.25" x2="70.66" y2="10.75"/><line class="cls-1" x1="3.15" y1="42.08" x2="3.15" y2="49.08"/><line class="cls-1" x1="6.75" y1="43.26" x2="6.75" y2="48.77"/><line class="cls-1" x1="12.7" y1="43.45" x2="12.7" y2="50.39"/><line class="cls-1" x1="19.17" y1="43.14" x2="19.17" y2="50.95"/><line class="cls-1" x1="22.89" y1="43.01" x2="22.89" y2="50.89"/><line class="cls-1" x1="25.74" y1="42.83" x2="25.74" y2="50.77"/><line class="cls-1" x1="31.63" y1="42.14" x2="31.63" y2="50.64"/><line class="cls-1" x1="35.17" y1="41.64" x2="35.17" y2="50.45"/><line class="cls-1" x1="38.89" y1="41.08" x2="38.89" y2="50.14"/><line class="cls-1" x1="42.36" y1="40.7" x2="42.36" y2="50.08"/><line class="cls-1" x1="46.46" y1="40.64" x2="46.46" y2="49.95"/><line class="cls-1" x1="52.85" y1="40.95" x2="52.85" y2="49.64"/><line class="cls-1" x1="55.26" y1="41.14" x2="55.26" y2="49.45"/><line class="cls-1" x1="59.49" y1="41.51" x2="59.49" y2="49.89"/><line class="cls-1" x1="63.21" y1="41.76" x2="63.21" y2="50.83"/><line class="cls-1" x1="67.56" y1="41.76" x2="67.56" y2="50.7"/><line class="cls-1" x1="70.78" y1="41.76" x2="70.78" y2="49.89"/><line class="cls-1" x1="14.05" y1="26.13" x2="14.05" y2="34.2"/><line class="cls-1" x1="22.25" y1="26.54" x2="22.25" y2="35.45"/><line class="cls-1" x1="25.59" y1="26.38" x2="25.59" y2="35.76"/><line class="cls-1" x1="28.69" y1="26.01" x2="28.69" y2="35.54"/><line class="cls-1" x1="33.54" y1="25.54" x2="33.54" y2="35.26"/><line class="cls-1" x1="37.89" y1="26.13" x2="37.89" y2="35.07"/><line class="cls-1" x1="43.96" y1="26.85" x2="43.96" y2="34.89"/><line class="cls-1" x1="49.19" y1="27.1" x2="49.19" y2="34.89"/><line class="cls-1" x1="52.04" y1="27.1" x2="52.04" y2="34.82"/><line class="cls-1" x1="11.22" y1="33.89" x2="11.22" y2="43.45"/><line class="cls-1" x1="15.45" y1="34.45" x2="15.45" y2="43.2"/><line class="cls-1" x1="21.27" y1="35.39" x2="21.27" y2="43.01"/><line class="cls-1" x1="28.22" y1="35.7" x2="28.22" y2="42.58"/><line class="cls-1" x1="33.32" y1="35.33" x2="33.32" y2="41.76"/><line class="cls-1" x1="36.04" y1="35.14" x2="36.04" y2="41.51"/><line class="cls-1" x1="39.58" y1="35.01" x2="39.58" y2="40.95"/><line class="cls-1" x1="47.65" y1="34.95" x2="47.65" y2="40.64"/><line class="cls-1" x1="51.06" y1="34.89" x2="51.06" y2="40.83"/><line class="cls-1" x1="56.66" y1="34.95" x2="56.66" y2="41.14"/><line class="cls-1" x1="51.47" y1="40.89" x2="51.47" y2="49.7"/><line class="cls-1" x1="17.63" y1="51.02" x2="17.63" y2="58.96"/><line class="cls-1" x1="21.11" y1="50.89" x2="21.11" y2="59.46"/><line class="cls-1" x1="26.87" y1="50.83" x2="26.87" y2="59.27"/><line class="cls-1" x1="29.53" y1="50.7" x2="29.53" y2="59.08"/><line class="cls-1" x1="37.92" y1="50.27" x2="37.92" y2="58.83"/><line class="cls-1" x1="45.36" y1="50.02" x2="45.36" y2="59.46"/><line class="cls-1" x1="50.09" y1="49.77" x2="50.09" y2="58.33"/><line class="cls-1" x1="53.19" y1="49.58" x2="53.19" y2="59.14"/><line class="cls-1" x1="57.66" y1="49.58" x2="57.66" y2="60.33"/><line class="cls-1" x1="60.01" y1="50.14" x2="60.01" y2="60.77"/><line class="cls-1" x1="3.9" y1="59.52" x2="3.9" y2="68.02"/><line class="cls-1" x1="7.56" y1="58.96" x2="7.56" y2="69.15"/><line class="cls-1" x1="15.26" y1="58.27" x2="15.26" y2="69.52"/><line class="cls-1" x1="18.3" y1="59.02" x2="18.3" y2="68.84"/><line class="cls-1" x1="24.93" y1="59.46" x2="24.93" y2="69.02"/><line class="cls-1" x1="32.5" y1="59.02" x2="32.5" y2="70.15"/><line class="cls-1" x1="36.79" y1="58.83" x2="36.79" y2="70.52"/><line class="cls-1" x1="39.45" y1="58.93" x2="39.45" y2="70.52"/><line class="cls-1" x1="43.11" y1="59.39" x2="43.11" y2="70.4"/><line class="cls-1" x1="49.94" y1="58.52" x2="49.94" y2="69.52"/><line class="cls-1" x1="64.83" y1="60.64" x2="64.83" y2="69.37"/><line class="cls-1" x1="68.12" y1="60.14" x2="68.12" y2="68.65"/><line class="cls-1" x1="59.77" y1="60.71" x2="59.77" y2="69.77"/><line class="cls-1" x1="11.78" y1="13.57" x2="11.78" y2="19.69"/><line class="cls-1" x1="16.45" y1="13.75" x2="16.45" y2="19.41"/><line class="cls-1" x1="19.8" y1="13.69" x2="19.8" y2="18.76"/><line class="cls-1" x1="23.39" y1="13.69" x2="23.39" y2="17.91"/><line class="cls-1" x1="26.99" y1="13.75" x2="26.99" y2="17.85"/><line class="cls-1" x1="36.54" y1="12.82" x2="36.54" y2="19.26"/><line class="cls-1" x1="41.39" y1="12.57" x2="41.39" y2="18.88"/><line class="cls-1" x1="44.99" y1="12.19" x2="44.99" y2="18.51"/><line class="cls-1" x1="48.59" y1="12" x2="48.59" y2="18.16"/><line class="cls-1" x1="52.19" y1="12.19" x2="52.19" y2="18.01"/><line class="cls-1" x1="59.38" y1="11.57" x2="59.38" y2="18.73"/><line class="cls-1" x1="62.98" y1="11.25" x2="62.98" y2="18.66"/><line class="cls-1" x1="65.83" y1="11.07" x2="65.83" y2="18.38"/><line class="cls-1" x1="7.5" y1="18.94" x2="7.5" y2="26.7"/><line class="cls-1" x1="12.47" y1="19.76" x2="12.47" y2="26.32"/><line class="cls-1" x1="18.3" y1="19.07" x2="18.3" y2="25.76"/><line class="cls-1" x1="20.77" y1="18.51" x2="20.77" y2="26.32"/><line class="cls-1" x1="24.56" y1="17.82" x2="24.56" y2="26.45"/><line class="cls-1" x1="29.53" y1="18.32" x2="29.53" y2="25.82"/><line class="cls-1" x1="32.32" y1="18.76" x2="32.32" y2="25.54"/><line class="cls-1" x1="39.45" y1="19.19" x2="39.45" y2="26.45"/><line class="cls-1" x1="43.11" y1="18.76" x2="43.11" y2="26.79"/><line class="cls-1" x1="46.96" y1="18.32" x2="46.96" y2="26.95"/><line class="cls-1" x1="51.25" y1="18.01" x2="51.25" y2="26.95"/><line class="cls-1" x1="54.97" y1="18.19" x2="54.97" y2="26.95"/><line class="cls-1" x1="60.11" y1="18.76" x2="60.11" y2="26.2"/><line class="cls-1" x1="68.56" y1="17.82" x2="68.56" y2="26.95"/><line class="cls-1" x1="55.52" y1="26.85" x2="55.51" y2="34.76"/><line class="cls-1" x1="3.15" y1="5.5" x2="3.15" y2="11.25"/><line class="cls-1" x1="6.75" y1="5.25" x2="6.75" y2="11.63"/><line class="cls-1" x1="11.1" y1="5" x2="11.1" y2="13.38"/><line class="cls-1" x1="14.95" y1="5.13" x2="14.95" y2="13.82"/><line class="cls-1" x1="20.27" y1="7.63" x2="20.27" y2="13.63"/><line class="cls-1" x1="28.34" y1="7.75" x2="28.34" y2="13.57"/><line class="cls-1" x1="51.19" y1="6.25" x2="51.19" y2="12.19"/><line class="cls-1" x1="54.04" y1="5.44" x2="54.04" y2="11.94"/><line class="cls-1" x1="43.47" y1="5.84" x2="43.47" y2="12.34"/><line class="cls-1" x1="64.33" y1="4.31" x2="64.33" y2="11.13"/><line class="cls-1" x1="37.61" y1="6.39" x2="37.61" y2="11.45"/><line class="cls-1" x1="15.95" y1="0.06" x2="15.95" y2="5.25"/><line class="cls-1" x1="26.49" y1="0.06" x2="26.49" y2="7.82"/><line class="cls-1" x1="30.09" y1="0.06" x2="30.09" y2="7.5"/><line class="cls-1" x1="51.69" x2="51.69" y2="6.13"/><line class="cls-1" x1="58.88" y1="0.06" x2="58.88" y2="4.75"/><line class="cls-1" x1="65.33" x2="65.33" y2="4.44"/><line class="cls-1" x1="69.68" x2="69.68" y2="5.13"/><line class="cls-1" x1="1.3" x2="1.3" y2="5.38"/><line class="cls-1" x1="6.4" y1="11.69" x2="6.4" y2="18.63"/><line class="cls-1" x1="0.15" y1="5.44" x2="0.15" y2="10.75"/><line class="cls-1" x1="8.5" y1="75.02" x2="8.5" y2="69.65"/><line class="cls-1" x1="11.6" y1="74.96" x2="11.6" y2="70.15"/><line class="cls-1" x1="19.3" y1="75.02" x2="19.3" y2="68.84"/><line class="cls-1" x1="32.69" y1="75.02" x2="32.69" y2="70.21"/><line class="cls-1" x1="36.04" y1="74.96" x2="36.04" y2="70.52"/><line class="cls-1" x1="65.33" y1="75.02" x2="65.33" y2="69.27"/><line class="cls-1" x1="69.68" y1="75.02" x2="69.68" y2="68.46"/><line class="cls-1" x1="1.3" y1="75.02" x2="1.3" y2="68.08"/></symbol></defs><title>egernspritesheet</title><g id="spritesheet"><rect class="cls-2" x="-0.5" width="350" height="500"/><path class="cls-3" d="M222.54,359.65s40,1.07,37.92,14S241.54,380,241.54,380s14.69-9.66,27.37,1.65-75,0-75,0Z"/><path d="M237.25,375.42s24.95-6.34,22.08,0"/><polygon class="cls-4" points="201.69 313.11 188.38 310.68 190.07 301.43 180.39 298.98 176.1 291.76 176.46 284.27 175.89 274.39 167.97 271.92 165.79 265.52 153.85 266.16 147.15 259.8 150.44 249.66 143.73 246.07 139.37 240.16 135.47 234.44 133.18 223.17 121.07 228.86 117.24 222.7 111.97 215.69 102.09 217.44 96.72 212.21 96.16 201.97 86.92 206.27 79.91 202.38 75.34 196.01 67.52 194.71 64.28 189.83 58.38 180.66 47.42 190.41 39.62 182.11 33.31 188.54 25.28 187.25 21.47 193.78 9.17 195.53 19.59 204.99 19.18 211.53 15.29 218.67 10.43 226.82 12.97 236.37 26.48 237.37 19.48 247.19 27.68 250.93 27.38 261.41 27.76 257.91 24.73 269.6 39.34 270.72 47.17 273.3 50.69 280.2 52.38 287.34 53.6 294.39 55 302.74 60.57 308.86 64.29 313.41 77.99 312.77 76.72 323.56 77.91 329.82 81.8 332.92 86.96 331.57 82.64 345.1 99.63 338.32 100.88 349.15 101.47 357.05 106.09 365.24 115.83 364.91 121.19 367.03 128.27 370.23 133.72 374.67 139.98 379.25 145.5 380.62 146.16 394.69 153.67 395.45 162.06 394.75 166.84 402.37 176.47 398.09 180.42 410.78 188.81 405.54 195.54 401.1 204.06 405.33 210.27 398.63 210.39 390.78 205.22 386.63 199.4 379.55 205.29 370.68 207.54 362.28 200.6 357.49 205.52 348.94 195.22 344.36 196.36 337.33 198.12 328.92 199.45 323.29 201.69 313.11"/><use width="70.93" height="75.02" transform="matrix(0.77, -0.34, 0.36, 0.82, 74.67, 269.57)" xlink:href="#Vertical_Lines"/><use width="70.93" height="75.02" transform="matrix(0.77, -0.34, 0.36, 0.82, 30.44, 223.68)" xlink:href="#Vertical_Lines"/><use width="70.93" height="75.02" transform="matrix(0.77, -0.34, 0.36, 0.82, 117.65, 319.16)" xlink:href="#Vertical_Lines"/><path class="cls-3" d="M269.54,407.65s40,1.07,37.92,14S288.54,428,288.54,428s14.69-9.66,27.37,1.65-75,0-75,0Z"/><path d="M284.25,423.42s24.95-6.34,22.08,0"/><polygon class="cls-3" points="216.77 139.49 213.64 132.86 209.51 126.78 203.77 122.06 199.08 116.28 193.87 111.39 188.11 106.51 180.87 103.56 173.43 105.14 166.79 107.27 165.71 114.24 165.75 121.35 168.66 127.93 170.24 135 174.61 140.7 180.01 145.76 183.43 152.13 185.64 158.34 192.72 156.4 197.82 150.41 204.36 147.07 209.98 141.95 216.77 139.49"/><path d="M180,123.08s19.29,2.08,19.93,21.63"/><polygon class="cls-4" points="201.38 146.63 197.38 140.51 192.42 135.08 186.05 131.25 180.58 126.19 174.74 122.09 168.36 118.04 160.76 116.13 153.62 118.8 147.33 121.84 147.29 128.9 148.32 135.94 152.15 142.03 154.69 148.82 159.86 153.82 165.96 158.03 170.25 163.85 173.28 169.71 180.03 166.82 184.19 160.12 190.19 155.89 195.01 150.01 201.38 146.63"/><path d="M162.72,135.62s19.39-.68,22.8,18.57"/><polygon class="cls-5" points="235.56 128.35 242.15 127.44 249.69 127.47 254.95 132.89 261 136.32 266.1 141.13 273.05 143.5 282.9 143.56 285.35 151.42 291.11 156.27 289.06 166.09 294.02 171.27 299.86 176.52 300.41 183.92 300.62 191.15 301.31 198.12 310.22 204.44 308.06 211.95 308.81 219.29 302.04 226.07 301.54 233.1 299.06 239.83 305.57 248.37 302.94 253.56 299.04 263.03 301.68 269.64 312.93 271.77 317.61 277.71 314.69 287 316.26 294.07 317.11 301.29 317.96 308.35 321.54 314.68 328.48 320.68 326.36 328.29 333.35 335.25 325.35 342.53 331.14 350.35 330.9 358.04 320.91 362.95 323.32 371.46 319.02 377.54 315.32 383.82 313.4 391.62 308.29 397.17 302.5 401.95 293.18 402.05 289.33 408.95 281.48 409.94 274.21 411.34 268.39 415.42 264.34 424.17 257.16 425.89 248.19 421.96 241.7 424.99 235.58 425.32 228.83 430.98 221.48 430.65 214.28 429.3 210.78 418.62 204.44 416.19 196.81 415.91 192.18 410.26 186.13 406.96 180.12 403.42 168.87 404.66 166.49 396.77 164.42 389.29 159.24 384.1 156.03 377.62 154.52 370.48 154.12 363.18 145.79 357.97 148.83 349.97 144.76 343.24 150.63 335.66 149.51 328.71 143.23 321.4 142.27 313.99 153.94 308.11 154.15 301.13 146.03 292.4 152.72 286.48 156.85 280.21 154.09 272.07 161.68 266.95 164.72 260.54 167.42 252.84 166.09 244.87 165.62 237.73 166.1 230.59 166.29 223.44 162.49 215.95 159.61 208.26 162.98 201.29 169.44 195.1 169.63 187.83 172.33 181.17 170.11 172.81 174.65 166.75 182.09 162.5 183.61 155.35 184.47 147.12 187.22 139.49 198.98 141.67 198.4 128.41 209.84 133.97 213.98 125.27 220.39 119.65 228.74 123.79 235.56 128.35"/><ellipse class="cls-4" cx="284.49" cy="329.58" rx="32.44" ry="50.11"/><circle cx="286.25" cy="242.6" r="15.03"/><rect x="243.26" y="234.05" width="32.2" height="1.78" transform="translate(118.05 -85.21) rotate(24.01)"/><rect x="238.21" y="241.71" width="32.2" height="1.78"/><rect x="248.72" y="253.28" width="32.2" height="1.78" transform="translate(-80.39 129.41) rotate(-23.95)"/><ellipse cx="241.76" cy="198.94" rx="11.87" ry="23.37"/><ellipse cx="284.75" cy="198.94" rx="11.87" ry="23.37"/><rect x="264.42" y="170.76" width="32.2" height="1.78" transform="translate(-45.53 128.68) rotate(-23.95)"/><rect x="231.12" y="170.76" width="32.2" height="1.78" transform="translate(91.25 -85.75) rotate(24.01)"/><path class="cls-3" d="M303,306.56l15.19.44s.06-.34.18-.91C317,302.44,308.12,279.82,303,306.56Z"/><path class="cls-3" d="M235.81,308.56s11.81-29,18.25,0c0,0,9.66-29,15,0"/><path class="cls-4" d="M242.54,409.65s40,1.07,37.92,14S261.54,430,261.54,430s14.69-9.66,27.37,1.65-75,0-75,0Z"/><path d="M258.25,426.42s24.95-6.34,22.08,0"/><rect class="cls-2" x="349" width="350" height="500"/><path class="cls-3" d="M572,359.65s40,1.07,37.92,14S591,380,591,380s14.69-9.66,27.37,1.65-75,0-75,0Z"/><path d="M586.75,375.42s25-6.34,22.08,0"/><polygon class="cls-4" points="551.19 313.11 537.88 310.68 539.57 301.43 529.89 298.98 525.6 291.76 525.96 284.27 525.39 274.39 517.47 271.92 515.29 265.52 503.35 266.16 496.65 259.8 499.94 249.66 493.23 246.07 488.87 240.16 484.97 234.44 482.68 223.17 470.57 228.86 466.74 222.7 461.47 215.69 451.6 217.44 446.21 212.21 445.66 201.97 436.43 206.27 429.41 202.38 424.84 196.01 417.02 194.71 413.78 189.83 407.88 180.66 396.92 190.41 389.12 182.11 382.81 188.54 374.78 187.25 370.97 193.78 358.67 195.53 369.09 204.99 368.68 211.53 364.79 218.67 359.93 226.82 362.48 236.37 375.98 237.37 368.98 247.19 377.18 250.93 376.88 261.41 377.26 257.91 374.23 269.6 388.85 270.72 396.67 273.3 400.19 280.2 401.88 287.34 403.1 294.39 404.5 302.74 410.07 308.86 413.79 313.41 427.49 312.77 426.22 323.56 427.41 329.82 431.3 332.92 436.46 331.57 432.14 345.1 449.13 338.32 450.38 349.15 450.98 357.05 455.59 365.24 465.33 364.91 470.69 367.03 477.77 370.23 483.23 374.67 489.48 379.25 495 380.62 495.66 394.69 503.17 395.45 511.56 394.75 516.34 402.37 525.97 398.09 529.92 410.78 538.31 405.54 545.04 401.1 553.56 405.33 559.77 398.63 559.89 390.78 554.72 386.63 548.89 379.55 554.79 370.68 557.04 362.28 550.1 357.49 555.02 348.94 544.72 344.36 545.86 337.33 547.62 328.92 548.95 323.29 551.19 313.11"/><use width="70.93" height="75.02" transform="matrix(0.77, -0.34, 0.36, 0.82, 424.17, 269.57)" xlink:href="#Vertical_Lines"/><use width="70.93" height="75.02" transform="matrix(0.77, -0.34, 0.36, 0.82, 379.94, 223.68)" xlink:href="#Vertical_Lines"/><use width="70.93" height="75.02" transform="matrix(0.77, -0.34, 0.36, 0.82, 467.15, 319.16)" xlink:href="#Vertical_Lines"/><path class="cls-3" d="M623.47,405.44s37.91,12.92,32.07,24.59-19.95.44-19.95.44,16.9-4.86,25.64,9.71-71.64-22.29-71.64-22.29Z"/><path d="M632.84,424.87s25.71,1.36,21.08,6.56"/><polygon class="cls-3" points="566.27 139.49 563.14 132.86 559.01 126.78 553.27 122.06 548.58 116.28 543.37 111.39 537.61 106.51 530.37 103.56 522.93 105.14 516.29 107.27 515.21 114.24 515.25 121.35 518.16 127.93 519.74 135 524.11 140.7 529.51 145.76 532.93 152.13 535.14 158.34 542.22 156.4 547.33 150.41 553.86 147.07 559.48 141.95 566.27 139.49"/><path d="M529.54,123.08s19.29,2.08,19.93,21.63"/><polygon class="cls-4" points="550.88 146.63 546.88 140.51 541.92 135.08 535.55 131.25 530.08 126.19 524.24 122.09 517.86 118.04 510.26 116.13 503.12 118.8 496.83 121.84 496.79 128.9 497.82 135.94 501.65 142.03 504.19 148.82 509.36 153.82 515.46 158.03 519.75 163.85 522.78 169.71 529.53 166.82 533.7 160.12 539.69 155.89 544.51 150.01 550.88 146.63"/><path d="M512.22,135.62s19.39-.68,22.8,18.57"/><polygon class="cls-5" points="585.06 128.35 591.65 127.44 599.19 127.47 604.45 132.89 610.5 136.32 615.6 141.13 622.55 143.5 632.4 143.56 634.85 151.42 640.61 156.27 638.57 166.09 643.52 171.27 649.36 176.52 649.91 183.92 650.12 191.15 650.81 198.12 659.72 204.44 657.56 211.95 658.31 219.29 651.53 226.07 651.04 233.1 648.56 239.83 655.07 248.37 652.44 253.56 648.53 263.03 651.18 269.64 662.43 271.77 667.11 277.71 664.18 287 665.76 294.07 666.61 301.29 667.46 308.35 671.03 314.68 677.98 320.68 675.86 328.29 682.85 335.25 674.85 342.53 680.64 350.35 680.4 358.04 670.41 362.95 672.82 371.46 668.52 377.54 664.82 383.82 662.9 391.62 657.79 397.17 652 401.95 642.68 402.05 638.83 408.95 630.98 409.94 623.71 411.34 617.89 415.42 613.84 424.17 606.66 425.89 597.69 421.96 591.2 424.99 585.08 425.32 578.33 430.98 570.98 430.65 563.78 429.3 560.28 418.62 553.94 416.19 546.31 415.91 541.67 410.26 535.63 406.96 529.62 403.42 518.37 404.66 515.99 396.77 513.92 389.29 508.74 384.1 505.53 377.62 504.02 370.48 503.62 363.18 495.29 357.97 498.33 349.97 494.26 343.24 500.13 335.66 499.01 328.71 492.73 321.4 491.77 313.99 503.44 308.11 503.65 301.13 495.52 292.4 502.22 286.48 506.36 280.21 503.59 272.07 511.18 266.95 514.22 260.54 516.92 252.84 515.59 244.87 515.12 237.73 515.6 230.59 515.79 223.44 511.99 215.95 509.11 208.26 512.48 201.29 518.93 195.1 519.13 187.83 521.83 181.17 519.61 172.81 524.15 166.75 531.59 162.5 533.11 155.35 533.97 147.12 536.72 139.49 548.48 141.67 547.9 128.41 559.34 133.97 563.48 125.27 569.89 119.65 578.24 123.79 585.06 128.35"/><ellipse class="cls-4" cx="633.99" cy="329.58" rx="32.44" ry="50.11"/><circle cx="635.75" cy="242.6" r="15.03"/><rect x="592.76" y="234.05" width="32.2" height="1.78" transform="translate(148.3 -227.43) rotate(24.01)"/><rect x="587.71" y="241.71" width="32.2" height="1.78"/><rect x="598.22" y="253.28" width="32.2" height="1.78" transform="translate(-50.28 271.31) rotate(-23.95)"/><ellipse cx="591.26" cy="198.94" rx="11.87" ry="23.37"/><ellipse cx="634.25" cy="198.94" rx="11.87" ry="23.37"/><rect x="613.92" y="170.76" width="32.2" height="1.78" transform="translate(-15.43 270.58) rotate(-23.95)"/><rect x="580.62" y="170.76" width="32.2" height="1.78" transform="translate(121.49 -227.97) rotate(24.01)"/><path class="cls-3" d="M652.5,306.56l15.19.44s.06-.34.18-.91C666.53,302.44,657.62,279.82,652.5,306.56Z"/><path class="cls-3" d="M585.31,308.56s11.81-29,18.25,0c0,0,9.66-29,15,0"/><path class="cls-4" d="M596.82,407.33s37.61,13.75,31.52,25.29-20,0-20,0,17-4.49,25.43,10.27S562.67,419,562.67,419Z"/><path d="M606.39,428.23s25.67,1.92,20.93,7"/><rect class="cls-2" x="698" width="350" height="500"/><path class="cls-3" d="M921,359.65s40,1.07,37.92,14S940,380,940,380s14.69-9.66,27.37,1.65-75,0-75,0Z"/><path d="M935.75,375.42s25-6.34,22.08,0"/><polygon class="cls-4" points="900.19 313.11 886.88 310.68 888.57 301.43 878.89 298.98 874.6 291.76 874.96 284.27 874.39 274.39 866.47 271.92 864.29 265.52 852.35 266.16 845.65 259.8 848.94 249.66 842.23 246.07 837.87 240.16 833.97 234.44 831.68 223.17 819.57 228.86 815.74 222.7 810.47 215.69 800.6 217.44 795.22 212.21 794.66 201.97 785.42 206.27 778.41 202.38 773.84 196.01 766.02 194.71 762.78 189.83 756.88 180.66 745.92 190.41 738.12 182.11 731.81 188.54 723.78 187.25 719.97 193.78 707.67 195.53 718.09 204.99 717.67 211.53 713.79 218.67 708.93 226.82 711.48 236.37 724.98 237.37 717.98 247.19 726.18 250.93 725.88 261.41 726.26 257.91 723.23 269.6 737.85 270.72 745.67 273.3 749.19 280.2 750.88 287.34 752.1 294.39 753.5 302.74 759.07 308.86 762.79 313.41 776.49 312.77 775.22 323.56 776.41 329.82 780.3 332.92 785.46 331.57 781.14 345.1 798.13 338.32 799.38 349.15 799.98 357.05 804.59 365.24 814.33 364.91 819.69 367.03 826.77 370.23 832.23 374.67 838.48 379.25 844 380.62 844.66 394.69 852.17 395.45 860.56 394.75 865.34 402.37 874.97 398.09 878.92 410.78 887.31 405.54 894.04 401.1 902.56 405.33 908.77 398.63 908.89 390.78 903.72 386.63 897.89 379.55 903.79 370.68 906.04 362.28 899.1 357.49 904.02 348.94 893.72 344.36 894.86 337.33 896.62 328.92 897.95 323.29 900.19 313.11"/><use width="70.93" height="75.02" transform="matrix(0.77, -0.34, 0.36, 0.82, 773.17, 269.57)" xlink:href="#Vertical_Lines"/><use width="70.93" height="75.02" transform="matrix(0.77, -0.34, 0.36, 0.82, 728.94, 223.68)" xlink:href="#Vertical_Lines"/><use width="70.93" height="75.02" transform="matrix(0.77, -0.34, 0.36, 0.82, 816.15, 319.16)" xlink:href="#Vertical_Lines"/><path class="cls-3" d="M984.94,406.41s17.95,35.8,5.6,40S976,432.74,976,432.74s15.45,8.39,11.46,24.92-35.43-66.15-35.43-66.15Z"/><path d="M978,426.83s17.37,19,10.43,19.47"/><polygon class="cls-3" points="915.27 139.49 912.14 132.86 908.01 126.78 902.27 122.06 897.58 116.28 892.37 111.39 886.61 106.51 879.37 103.56 871.93 105.14 865.29 107.27 864.21 114.24 864.25 121.35 867.16 127.93 868.74 135 873.11 140.7 878.51 145.76 881.93 152.13 884.14 158.34 891.22 156.4 896.33 150.41 902.86 147.07 908.48 141.95 915.27 139.49"/><path d="M878.54,123.08s19.29,2.08,19.93,21.63"/><polygon class="cls-4" points="899.88 146.63 895.88 140.51 890.92 135.08 884.55 131.25 879.08 126.19 873.24 122.09 866.86 118.04 859.26 116.13 852.12 118.8 845.83 121.84 845.79 128.9 846.82 135.94 850.65 142.03 853.2 148.82 858.36 153.82 864.46 158.03 868.75 163.85 871.78 169.71 878.53 166.82 882.7 160.12 888.69 155.89 893.51 150.01 899.88 146.63"/><path d="M861.22,135.62s19.39-.68,22.8,18.57"/><polygon class="cls-5" points="934.06 128.35 940.65 127.44 948.19 127.47 953.45 132.89 959.5 136.32 964.6 141.13 971.55 143.5 981.4 143.56 983.85 151.42 989.61 156.27 987.57 166.09 992.52 171.27 998.36 176.52 998.91 183.92 999.12 191.15 999.81 198.12 1008.72 204.44 1006.56 211.95 1007.31 219.29 1000.53 226.07 1000.04 233.1 997.56 239.83 1004.07 248.37 1001.44 253.56 997.53 263.03 1000.18 269.64 1011.43 271.77 1016.11 277.71 1013.18 287 1014.76 294.07 1015.61 301.29 1016.46 308.35 1020.03 314.68 1026.98 320.68 1024.86 328.29 1031.85 335.25 1023.85 342.53 1029.64 350.35 1029.4 358.04 1019.41 362.95 1021.82 371.46 1017.52 377.54 1013.82 383.82 1011.9 391.62 1006.79 397.17 1001 401.95 991.68 402.05 987.83 408.95 979.98 409.94 972.71 411.34 966.89 415.42 962.84 424.17 955.66 425.89 946.69 421.96 940.2 424.99 934.08 425.32 927.33 430.98 919.98 430.65 912.78 429.3 909.28 418.62 902.94 416.19 895.31 415.91 890.67 410.26 884.63 406.96 878.62 403.42 867.37 404.66 864.99 396.77 862.92 389.29 857.74 384.1 854.53 377.62 853.02 370.48 852.62 363.18 844.29 357.97 847.33 349.97 843.26 343.24 849.13 335.66 848.01 328.71 841.73 321.4 840.77 313.99 852.44 308.11 852.65 301.13 844.52 292.4 851.22 286.48 855.36 280.21 852.59 272.07 860.18 266.95 863.22 260.54 865.92 252.84 864.59 244.87 864.12 237.73 864.6 230.59 864.79 223.44 860.99 215.95 858.11 208.26 861.48 201.29 867.93 195.1 868.13 187.83 870.83 181.17 868.61 172.81 873.15 166.75 880.59 162.5 882.11 155.35 882.97 147.12 885.72 139.49 897.48 141.67 896.9 128.41 908.34 133.97 912.48 125.27 918.89 119.65 927.24 123.79 934.06 128.35"/><ellipse class="cls-4" cx="982.99" cy="329.58" rx="32.44" ry="50.11"/><circle cx="984.75" cy="242.6" r="15.03"/><rect x="941.76" y="234.05" width="32.2" height="1.78" transform="translate(178.5 -369.46) rotate(24.01)"/><rect x="936.71" y="241.71" width="32.2" height="1.78"/><rect x="947.22" y="253.28" width="32.2" height="1.78" transform="translate(-20.22 413.01) rotate(-23.95)"/><ellipse cx="940.26" cy="198.94" rx="11.87" ry="23.37"/><ellipse cx="983.25" cy="198.94" rx="11.87" ry="23.37"/><rect x="962.92" y="170.76" width="32.2" height="1.78" transform="translate(14.63 412.28) rotate(-23.95)"/><rect x="929.62" y="170.76" width="32.2" height="1.78" transform="translate(151.7 -370) rotate(24.01)"/><path class="cls-3" d="M1001.5,306.56l15.19.44s.06-.34.18-.91C1015.53,302.44,1006.62,279.82,1001.5,306.56Z"/><path class="cls-3" d="M934.31,308.56s11.81-29,18.25,0c0,0,9.66-29,15,0"/><path class="cls-4" d="M960.09,409.71s12.3,38.11-.55,40.4-12.27-15.73-12.27-15.73,14,10.64,7.53,26.37S929.86,390,929.86,390Z"/><path d="M949.5,430.11s14.28,21.42,7.34,20.82"/><rect class="cls-2" x="1047" width="350" height="500"/><path class="cls-3" d="M1270,359.65s40,1.07,37.92,14S1289,380,1289,380s14.69-9.66,27.37,1.65-75,0-75,0Z"/><path d="M1284.75,375.42s25-6.34,22.08,0"/><polygon class="cls-4" points="1249.19 313.11 1235.88 310.68 1237.57 301.43 1227.89 298.98 1223.6 291.76 1223.96 284.27 1223.39 274.39 1215.47 271.92 1213.29 265.52 1201.35 266.16 1194.65 259.8 1197.94 249.66 1191.23 246.07 1186.87 240.16 1182.97 234.44 1180.68 223.17 1168.57 228.86 1164.74 222.7 1159.47 215.69 1149.6 217.44 1144.21 212.21 1143.66 201.97 1134.42 206.27 1127.41 202.38 1122.84 196.01 1115.02 194.71 1111.78 189.83 1105.88 180.66 1094.92 190.41 1087.12 182.11 1080.81 188.54 1072.78 187.25 1068.97 193.78 1056.67 195.53 1067.09 204.99 1066.67 211.53 1062.79 218.67 1057.93 226.82 1060.47 236.37 1073.98 237.37 1066.98 247.19 1075.18 250.93 1074.88 261.41 1075.26 257.91 1072.23 269.6 1086.85 270.72 1094.67 273.3 1098.19 280.2 1099.88 287.34 1101.1 294.39 1102.5 302.74 1108.07 308.86 1111.79 313.41 1125.49 312.77 1124.22 323.56 1125.41 329.82 1129.3 332.92 1134.46 331.57 1130.14 345.1 1147.13 338.32 1148.38 349.15 1148.97 357.05 1153.59 365.24 1163.33 364.91 1168.69 367.03 1175.77 370.23 1181.22 374.67 1187.48 379.25 1193 380.62 1193.66 394.69 1201.17 395.45 1209.56 394.75 1214.34 402.37 1223.97 398.09 1227.92 410.78 1236.31 405.54 1243.04 401.1 1251.56 405.33 1257.77 398.63 1257.89 390.78 1252.72 386.63 1246.89 379.55 1252.79 370.68 1255.04 362.28 1248.1 357.49 1253.02 348.94 1242.72 344.36 1243.86 337.33 1245.62 328.92 1246.95 323.29 1249.19 313.11"/><use width="70.93" height="75.02" transform="matrix(0.77, -0.34, 0.36, 0.82, 1122.17, 269.57)" xlink:href="#Vertical_Lines"/><use width="70.93" height="75.02" transform="matrix(0.77, -0.34, 0.36, 0.82, 1077.94, 223.68)" xlink:href="#Vertical_Lines"/><use width="70.93" height="75.02" transform="matrix(0.77, -0.34, 0.36, 0.82, 1165.15, 319.16)" xlink:href="#Vertical_Lines"/><path class="cls-3" d="M1321.47,405.44s37.91,12.92,32.07,24.59-20,.44-20,.44,16.9-4.86,25.64,9.71-71.64-22.29-71.64-22.29Z"/><path d="M1330.84,424.87s25.71,1.36,21.08,6.56"/><polygon class="cls-3" points="1264.27 139.49 1261.14 132.86 1257.01 126.78 1251.27 122.06 1246.58 116.28 1241.37 111.39 1235.61 106.51 1228.37 103.56 1220.93 105.14 1214.29 107.27 1213.21 114.24 1213.25 121.35 1216.16 127.93 1217.74 135 1222.11 140.7 1227.51 145.76 1230.93 152.13 1233.14 158.34 1240.22 156.4 1245.33 150.41 1251.86 147.07 1257.48 141.95 1264.27 139.49"/><path d="M1227.54,123.08s19.29,2.08,19.93,21.63"/><polygon class="cls-4" points="1248.88 146.63 1244.88 140.51 1239.92 135.08 1233.55 131.25 1228.08 126.19 1222.24 122.09 1215.86 118.04 1208.26 116.13 1201.12 118.8 1194.83 121.84 1194.79 128.9 1195.82 135.94 1199.65 142.03 1202.19 148.82 1207.36 153.82 1213.46 158.03 1217.74 163.85 1220.78 169.71 1227.53 166.82 1231.69 160.12 1237.69 155.89 1242.51 150.01 1248.88 146.63"/><path d="M1210.22,135.62s19.39-.68,22.8,18.57"/><polygon class="cls-5" points="1283.06 128.35 1289.65 127.44 1297.19 127.47 1302.45 132.89 1308.5 136.32 1313.6 141.13 1320.55 143.5 1330.4 143.56 1332.85 151.42 1338.61 156.27 1336.57 166.09 1341.52 171.27 1347.36 176.52 1347.91 183.92 1348.12 191.15 1348.81 198.12 1357.72 204.44 1355.56 211.95 1356.31 219.29 1349.54 226.07 1349.04 233.1 1346.56 239.83 1353.07 248.37 1350.44 253.56 1346.54 263.03 1349.18 269.64 1360.43 271.77 1365.11 277.71 1362.18 287 1363.76 294.07 1364.61 301.29 1365.46 308.35 1369.04 314.68 1375.98 320.68 1373.86 328.29 1380.85 335.25 1372.85 342.53 1378.64 350.35 1378.4 358.04 1368.41 362.95 1370.82 371.46 1366.52 377.54 1362.82 383.82 1360.9 391.62 1355.79 397.17 1350 401.95 1340.68 402.05 1336.83 408.95 1328.98 409.94 1321.71 411.34 1315.89 415.42 1311.84 424.17 1304.66 425.89 1295.69 421.96 1289.2 424.99 1283.08 425.32 1276.33 430.98 1268.98 430.65 1261.79 429.3 1258.28 418.62 1251.94 416.19 1244.31 415.91 1239.67 410.26 1233.63 406.96 1227.62 403.42 1216.37 404.66 1213.99 396.77 1211.92 389.29 1206.74 384.1 1203.53 377.62 1202.02 370.48 1201.62 363.18 1193.29 357.97 1196.33 349.97 1192.26 343.24 1198.13 335.66 1197.01 328.71 1190.73 321.4 1189.77 313.99 1201.44 308.11 1201.65 301.13 1193.53 292.4 1200.22 286.48 1204.36 280.21 1201.59 272.07 1209.18 266.95 1212.22 260.54 1214.92 252.84 1213.59 244.87 1213.12 237.73 1213.6 230.59 1213.79 223.44 1209.99 215.95 1207.11 208.26 1210.48 201.29 1216.93 195.1 1217.13 187.83 1219.83 181.17 1217.61 172.81 1222.15 166.75 1229.59 162.5 1231.11 155.35 1231.97 147.12 1234.72 139.49 1246.48 141.67 1245.9 128.41 1257.34 133.97 1261.48 125.27 1267.89 119.65 1276.24 123.79 1283.06 128.35"/><ellipse class="cls-4" cx="1331.99" cy="329.58" rx="32.44" ry="50.11"/><circle cx="1333.75" cy="242.6" r="15.03"/><rect x="1290.76" y="234.05" width="32.2" height="1.78" transform="translate(208.71 -511.48) rotate(24.01)"/><rect x="1285.71" y="241.71" width="32.2" height="1.78"/><rect x="1296.22" y="253.28" width="32.2" height="1.78" transform="translate(9.84 554.71) rotate(-23.95)"/><ellipse cx="1289.26" cy="198.94" rx="11.87" ry="23.37"/><ellipse cx="1332.25" cy="198.94" rx="11.87" ry="23.37"/><rect x="1311.92" y="170.76" width="32.2" height="1.78" transform="translate(44.69 553.98) rotate(-23.95)"/><rect x="1278.62" y="170.76" width="32.2" height="1.78" transform="translate(181.9 -512.02) rotate(24.01)"/><path class="cls-3" d="M1350.5,306.56l15.19.44s.06-.34.18-.91C1364.53,302.44,1355.62,279.82,1350.5,306.56Z"/><path class="cls-3" d="M1283.31,308.56s11.81-29,18.25,0c0,0,9.66-29,15,0"/><path class="cls-4" d="M1294.82,407.33s37.61,13.75,31.52,25.29-20,0-20,0,17-4.49,25.43,10.27S1260.67,419,1260.67,419Z"/><path d="M1304.39,428.23s25.67,1.92,20.93,7"/><rect class="cls-2" x="1395.5" y="1" width="350" height="500"/><path class="cls-3" d="M1618.54,360.65s40,1.07,37.92,14-18.92,6.35-18.92,6.35,14.69-9.66,27.37,1.65-75,0-75,0Z"/><path d="M1633.25,376.42s25-6.34,22.08,0"/><polygon class="cls-4" points="1597.69 314.11 1584.38 311.68 1586.07 302.43 1576.39 299.98 1572.1 292.76 1572.46 285.27 1571.89 275.39 1563.97 272.92 1561.79 266.52 1549.85 267.16 1543.15 260.8 1546.44 250.66 1539.73 247.07 1535.37 241.16 1531.47 235.44 1529.18 224.17 1517.07 229.86 1513.24 223.7 1507.97 216.69 1498.1 218.44 1492.71 213.21 1492.16 202.97 1482.92 207.27 1475.91 203.38 1471.34 197.01 1463.52 195.71 1460.28 190.83 1454.38 181.66 1443.42 191.41 1435.62 183.11 1429.31 189.54 1421.28 188.25 1417.47 194.78 1405.17 196.53 1415.59 205.99 1415.17 212.53 1411.29 219.67 1406.43 227.82 1408.97 237.37 1422.48 238.37 1415.48 248.19 1423.68 251.93 1423.38 262.41 1423.76 258.91 1420.73 270.6 1435.35 271.72 1443.17 274.3 1446.69 281.2 1448.38 288.34 1449.6 295.39 1451 303.74 1456.57 309.86 1460.29 314.41 1473.99 313.77 1472.72 324.56 1473.91 330.82 1477.8 333.92 1482.96 332.57 1478.64 346.1 1495.63 339.32 1496.88 350.15 1497.47 358.05 1502.09 366.24 1511.83 365.91 1517.19 368.03 1524.27 371.23 1529.72 375.67 1535.98 380.25 1541.5 381.62 1542.16 395.69 1549.67 396.45 1558.06 395.75 1562.84 403.37 1572.47 399.09 1576.42 411.78 1584.81 406.54 1591.54 402.1 1600.06 406.33 1606.27 399.63 1606.39 391.78 1601.22 387.63 1595.39 380.55 1601.29 371.68 1603.54 363.28 1596.6 358.49 1601.52 349.94 1591.22 345.36 1592.36 338.33 1594.12 329.92 1595.45 324.29 1597.69 314.11"/><use width="70.93" height="75.02" transform="matrix(0.77, -0.34, 0.36, 0.82, 1470.67, 270.57)" xlink:href="#Vertical_Lines"/><use width="70.93" height="75.02" transform="matrix(0.77, -0.34, 0.36, 0.82, 1426.44, 224.68)" xlink:href="#Vertical_Lines"/><use width="70.93" height="75.02" transform="matrix(0.77, -0.34, 0.36, 0.82, 1513.65, 320.16)" xlink:href="#Vertical_Lines"/><path class="cls-3" d="M1665.54,408.65s40,1.07,37.92,14-18.92,6.35-18.92,6.35,14.69-9.66,27.37,1.65-75,0-75,0Z"/><path d="M1680.25,424.42s25-6.34,22.08,0"/><polygon class="cls-3" points="1612.77 140.49 1609.64 133.86 1605.51 127.78 1599.77 123.06 1595.08 117.28 1589.87 112.39 1584.11 107.51 1576.87 104.56 1569.43 106.14 1562.79 108.27 1561.71 115.24 1561.75 122.35 1564.66 128.93 1566.24 136 1570.61 141.7 1576.01 146.76 1579.43 153.13 1581.64 159.34 1588.72 157.4 1593.83 151.41 1600.36 148.07 1605.98 142.95 1612.77 140.49"/><path d="M1576,124.08s19.29,2.08,19.93,21.63"/><polygon class="cls-4" points="1597.38 147.63 1593.38 141.51 1588.42 136.08 1582.05 132.25 1576.58 127.19 1570.74 123.09 1564.36 119.04 1556.76 117.13 1549.62 119.8 1543.33 122.84 1543.29 129.9 1544.32 136.94 1548.15 143.03 1550.69 149.82 1555.86 154.82 1561.96 159.03 1566.24 164.85 1569.28 170.71 1576.03 167.82 1580.19 161.12 1586.19 156.89 1591.01 151.01 1597.38 147.63"/><path d="M1558.72,136.62s19.39-.68,22.8,18.57"/><polygon class="cls-5" points="1631.56 129.35 1638.15 128.44 1645.69 128.47 1650.95 133.89 1657 137.32 1662.1 142.13 1669.05 144.5 1678.9 144.56 1681.35 152.42 1687.11 157.27 1685.07 167.09 1690.02 172.27 1695.86 177.52 1696.41 184.92 1696.62 192.15 1697.31 199.12 1706.22 205.44 1704.06 212.95 1704.81 220.29 1698.04 227.07 1697.54 234.1 1695.06 240.83 1701.57 249.37 1698.94 254.56 1695.04 264.03 1697.68 270.64 1708.93 272.77 1713.61 278.71 1710.68 288 1712.26 295.07 1713.11 302.29 1713.96 309.35 1717.54 315.68 1724.48 321.68 1722.36 329.29 1729.35 336.25 1721.35 343.53 1727.14 351.35 1726.9 359.04 1716.91 363.95 1719.32 372.46 1715.02 378.54 1711.32 384.82 1709.4 392.62 1704.29 398.17 1698.5 402.95 1689.18 403.05 1685.33 409.95 1677.48 410.94 1670.21 412.34 1664.39 416.42 1660.34 425.17 1653.16 426.89 1644.19 422.96 1637.7 425.99 1631.58 426.32 1624.83 431.98 1617.48 431.65 1610.29 430.3 1606.78 419.62 1600.44 417.19 1592.81 416.91 1588.17 411.26 1582.13 407.96 1576.12 404.42 1564.87 405.66 1562.49 397.77 1560.42 390.29 1555.24 385.1 1552.03 378.62 1550.52 371.48 1550.12 364.18 1541.79 358.97 1544.83 350.97 1540.76 344.24 1546.63 336.66 1545.51 329.71 1539.23 322.4 1538.27 314.99 1549.94 309.11 1550.15 302.13 1542.03 293.4 1548.72 287.48 1552.86 281.21 1550.09 273.07 1557.68 267.95 1560.72 261.54 1563.42 253.84 1562.09 245.87 1561.62 238.73 1562.1 231.59 1562.29 224.44 1558.49 216.95 1555.61 209.26 1558.98 202.29 1565.43 196.1 1565.63 188.83 1568.33 182.17 1566.11 173.81 1570.65 167.75 1578.09 163.5 1579.61 156.35 1580.47 148.12 1583.22 140.49 1594.98 142.67 1594.4 129.41 1605.84 134.97 1609.98 126.27 1616.39 120.65 1624.74 124.79 1631.56 129.35"/><ellipse class="cls-4" cx="1680.49" cy="330.58" rx="32.44" ry="50.11"/><circle cx="1682.25" cy="243.6" r="15.03"/><rect x="1639.26" y="235.05" width="32.2" height="1.78" transform="translate(239.28 -653.21) rotate(24.01)"/><rect x="1634.21" y="242.71" width="32.2" height="1.78"/><rect x="1644.72" y="254.28" width="32.2" height="1.78" transform="translate(39.45 696.29) rotate(-23.95)"/><ellipse cx="1637.76" cy="199.94" rx="11.87" ry="23.37"/><ellipse cx="1680.75" cy="199.94" rx="11.87" ry="23.37"/><rect x="1660.42" y="171.76" width="32.2" height="1.78" transform="translate(74.3 695.56) rotate(-23.95)"/><rect x="1627.12" y="171.76" width="32.2" height="1.78" transform="translate(212.47 -653.75) rotate(24.01)"/><path class="cls-3" d="M1699,307.56l15.19.44s.06-.34.18-.91C1713,303.44,1704.12,280.82,1699,307.56Z"/><path class="cls-3" d="M1631.81,309.56s11.81-29,18.25,0c0,0,9.66-29,15,0"/><path class="cls-4" d="M1638.54,410.65s40,1.07,37.92,14-18.92,6.35-18.92,6.35,14.69-9.66,27.37,1.65-75,0-75,0Z"/><path d="M1654.25,427.42s25-6.34,22.08,0"/><rect class="cls-2" x="1749" y="-1" width="350" height="500"/><path class="cls-3" d="M1972,358.65s40,1.07,37.92,14S1991,379,1991,379s14.69-9.66,27.37,1.65-75,0-75,0Z"/><path d="M1986.75,374.42s25-6.34,22.08,0"/><polygon class="cls-4" points="1951.19 312.11 1937.88 309.68 1939.57 300.43 1929.89 297.98 1925.6 290.76 1925.96 283.27 1925.39 273.39 1917.47 270.92 1915.29 264.52 1903.35 265.16 1896.65 258.8 1899.94 248.66 1893.23 245.07 1888.87 239.16 1884.97 233.44 1882.68 222.17 1870.57 227.86 1866.74 221.7 1861.47 214.69 1851.6 216.44 1846.21 211.21 1845.66 200.97 1836.42 205.27 1829.41 201.38 1824.84 195.01 1817.02 193.71 1813.78 188.83 1807.88 179.66 1796.92 189.41 1789.12 181.11 1782.81 187.54 1774.78 186.25 1770.97 192.78 1758.67 194.53 1769.09 203.99 1768.67 210.53 1764.79 217.67 1759.93 225.82 1762.47 235.37 1775.98 236.37 1768.98 246.19 1777.18 249.93 1776.88 260.41 1777.26 256.91 1774.23 268.6 1788.85 269.72 1796.67 272.3 1800.19 279.2 1801.88 286.34 1803.1 293.39 1804.5 301.74 1810.07 307.86 1813.79 312.41 1827.49 311.77 1826.22 322.56 1827.41 328.82 1831.3 331.92 1836.46 330.57 1832.14 344.1 1849.13 337.32 1850.38 348.15 1850.97 356.05 1855.59 364.24 1865.33 363.91 1870.69 366.03 1877.77 369.23 1883.22 373.67 1889.48 378.25 1895 379.62 1895.66 393.69 1903.17 394.45 1911.56 393.75 1916.34 401.37 1925.97 397.09 1929.92 409.78 1938.31 404.54 1945.04 400.1 1953.56 404.33 1959.77 397.63 1959.89 389.78 1954.72 385.63 1948.89 378.55 1954.79 369.68 1957.04 361.28 1950.1 356.49 1955.02 347.94 1944.72 343.36 1945.86 336.33 1947.62 327.92 1948.95 322.29 1951.19 312.11"/><use width="70.93" height="75.02" transform="matrix(0.77, -0.34, 0.36, 0.82, 1824.17, 268.57)" xlink:href="#Vertical_Lines"/><use width="70.93" height="75.02" transform="matrix(0.77, -0.34, 0.36, 0.82, 1779.94, 222.68)" xlink:href="#Vertical_Lines"/><use width="70.93" height="75.02" transform="matrix(0.77, -0.34, 0.36, 0.82, 1867.15, 318.16)" xlink:href="#Vertical_Lines"/><path class="cls-3" d="M2023.47,404.44s37.91,12.92,32.07,24.59-20,.44-20,.44,16.9-4.86,25.64,9.71-71.64-22.29-71.64-22.29Z"/><path d="M2032.84,423.87s25.71,1.36,21.08,6.56"/><polygon class="cls-3" points="1966.27 138.49 1963.14 131.86 1959.01 125.78 1953.27 121.06 1948.58 115.28 1943.37 110.39 1937.61 105.51 1930.37 102.56 1922.93 104.14 1916.29 106.27 1915.21 113.24 1915.25 120.35 1918.16 126.93 1919.74 134 1924.11 139.7 1929.51 144.76 1932.93 151.13 1935.14 157.34 1942.22 155.4 1947.33 149.41 1953.86 146.07 1959.48 140.95 1966.27 138.49"/><path d="M1929.54,122.08s19.29,2.08,19.93,21.63"/><polygon class="cls-4" points="1950.88 145.63 1946.88 139.51 1941.92 134.08 1935.55 130.25 1930.08 125.19 1924.24 121.09 1917.86 117.04 1910.26 115.13 1903.12 117.8 1896.83 120.84 1896.79 127.9 1897.82 134.94 1901.65 141.03 1904.19 147.82 1909.36 152.82 1915.46 157.03 1919.74 162.85 1922.78 168.71 1929.53 165.82 1933.69 159.12 1939.69 154.89 1944.51 149.01 1950.88 145.63"/><path d="M1912.22,134.62s19.39-.68,22.8,18.57"/><polygon class="cls-5" points="1985.06 127.35 1991.65 126.44 1999.19 126.47 2004.45 131.89 2010.5 135.32 2015.6 140.13 2022.55 142.5 2032.4 142.56 2034.85 150.42 2040.61 155.27 2038.57 165.09 2043.52 170.27 2049.36 175.52 2049.91 182.92 2050.12 190.15 2050.81 197.12 2059.72 203.44 2057.56 210.95 2058.31 218.29 2051.53 225.07 2051.04 232.1 2048.56 238.83 2055.07 247.37 2052.44 252.56 2048.53 262.03 2051.18 268.64 2062.43 270.77 2067.11 276.71 2064.18 286 2065.76 293.07 2066.61 300.29 2067.46 307.35 2071.03 313.68 2077.98 319.68 2075.86 327.29 2082.85 334.25 2074.85 341.53 2080.64 349.35 2080.4 357.04 2070.41 361.95 2072.82 370.46 2068.52 376.54 2064.82 382.82 2062.9 390.62 2057.79 396.17 2052 400.95 2042.68 401.05 2038.83 407.95 2030.98 408.94 2023.71 410.34 2017.89 414.42 2013.84 423.17 2006.66 424.89 1997.69 420.96 1991.2 423.99 1985.08 424.32 1978.33 429.98 1970.98 429.65 1963.79 428.3 1960.28 417.62 1953.94 415.19 1946.31 414.91 1941.67 409.26 1935.63 405.96 1929.62 402.42 1918.37 403.66 1915.99 395.77 1913.92 388.29 1908.74 383.1 1905.53 376.62 1904.02 369.48 1903.62 362.18 1895.29 356.97 1898.33 348.97 1894.26 342.24 1900.13 334.66 1899.01 327.71 1892.73 320.4 1891.77 312.99 1903.44 307.11 1903.65 300.13 1895.53 291.4 1902.22 285.48 1906.36 279.21 1903.59 271.07 1911.18 265.95 1914.22 259.54 1916.92 251.84 1915.59 243.87 1915.12 236.73 1915.6 229.59 1915.79 222.44 1911.99 214.95 1909.11 207.26 1912.48 200.29 1918.93 194.1 1919.13 186.83 1921.83 180.17 1919.61 171.81 1924.15 165.75 1931.59 161.5 1933.11 154.35 1933.97 146.12 1936.72 138.49 1948.48 140.67 1947.9 127.41 1959.34 132.97 1963.48 124.27 1969.89 118.65 1978.24 122.79 1985.06 127.35"/><ellipse class="cls-4" cx="2033.99" cy="328.58" rx="32.44" ry="50.11"/><circle cx="2035.75" cy="241.6" r="15.03"/><rect x="1992.76" y="233.05" width="32.2" height="1.78" transform="translate(269.06 -797.23) rotate(24.01)"/><rect x="1987.71" y="240.71" width="32.2" height="1.78"/><rect x="1998.22" y="252.28" width="32.2" height="1.78" transform="translate(70.71 839.64) rotate(-23.95)"/><ellipse cx="1991.26" cy="197.94" rx="11.87" ry="23.37"/><ellipse cx="2034.25" cy="197.94" rx="11.87" ry="23.37"/><rect x="2013.92" y="169.76" width="32.2" height="1.78" transform="translate(105.56 838.91) rotate(-23.95)"/><rect x="1980.62" y="169.76" width="32.2" height="1.78" transform="translate(242.25 -797.77) rotate(24.01)"/><path class="cls-3" d="M2052.5,305.56l15.19.44s.06-.34.18-.91C2066.53,301.44,2057.62,278.82,2052.5,305.56Z"/><path class="cls-3" d="M1985.31,307.56s11.81-29,18.25,0c0,0,9.66-29,15,0"/><path class="cls-4" d="M1996.82,406.33s37.61,13.75,31.52,25.29-20,0-20,0,17-4.49,25.43,10.27S1962.67,418,1962.67,418Z"/><path d="M2006.39,427.23s25.67,1.92,20.93,7"/><rect class="cls-2" x="2094" y="1" width="350" height="500"/><path class="cls-3" d="M2326,363.65s40,1.07,37.92,14S2345,384,2345,384s14.69-9.66,27.37,1.65-75,0-75,0Z"/><path d="M2340.75,379.42s24.95-6.34,22.08,0"/><polygon class="cls-4" points="2305.19 317.11 2291.88 314.68 2293.57 305.43 2283.89 302.98 2279.6 295.76 2279.96 288.27 2279.39 278.39 2271.47 275.92 2269.29 269.52 2257.35 270.16 2250.65 263.8 2253.94 253.66 2247.23 250.07 2242.87 244.16 2238.97 238.44 2236.68 227.17 2224.57 232.86 2220.74 226.7 2215.47 219.69 2205.59 221.44 2200.22 216.21 2199.66 205.97 2190.43 210.27 2183.41 206.38 2178.84 200.01 2171.02 198.71 2167.78 193.83 2161.88 184.66 2150.92 194.41 2143.12 186.11 2136.81 192.54 2128.78 191.25 2124.97 197.78 2112.67 199.53 2123.09 208.99 2122.68 215.53 2118.79 222.67 2113.93 230.82 2116.47 240.37 2129.98 241.37 2122.98 251.19 2131.18 254.93 2130.88 265.41 2131.26 261.91 2128.23 273.6 2142.84 274.72 2150.67 277.3 2154.19 284.2 2155.88 291.34 2157.1 298.39 2158.5 306.74 2164.07 312.86 2167.79 317.41 2181.49 316.77 2180.22 327.56 2181.41 333.82 2185.3 336.92 2190.46 335.57 2186.14 349.1 2203.13 342.32 2204.38 353.15 2204.97 361.05 2209.59 369.24 2219.33 368.91 2224.69 371.03 2231.77 374.23 2237.22 378.67 2243.48 383.25 2249 384.62 2249.66 398.69 2257.17 399.45 2265.56 398.75 2270.34 406.37 2279.97 402.09 2283.92 414.78 2292.31 409.54 2299.04 405.1 2307.56 409.33 2313.77 402.63 2313.89 394.78 2308.72 390.63 2302.89 383.55 2308.79 374.68 2311.04 366.28 2304.1 361.49 2309.02 352.94 2298.72 348.36 2299.86 341.33 2301.62 332.92 2302.95 327.29 2305.19 317.11"/><use width="70.93" height="75.02" transform="matrix(0.77, -0.34, 0.36, 0.82, 2178.17, 273.57)" xlink:href="#Vertical_Lines"/><use width="70.93" height="75.02" transform="matrix(0.77, -0.34, 0.36, 0.82, 2133.94, 227.68)" xlink:href="#Vertical_Lines"/><use width="70.93" height="75.02" transform="matrix(0.77, -0.34, 0.36, 0.82, 2221.15, 323.16)" xlink:href="#Vertical_Lines"/><path class="cls-3" d="M2389.94,410.41s17.95,35.8,5.6,40S2381,436.74,2381,436.74s15.45,8.39,11.46,24.92-35.43-66.15-35.43-66.15Z"/><path d="M2383,430.83s17.37,19,10.43,19.47"/><polygon class="cls-3" points="2320.27 143.49 2317.14 136.86 2313.01 130.78 2307.27 126.06 2302.58 120.28 2297.37 115.39 2291.61 110.51 2284.37 107.56 2276.93 109.14 2270.29 111.27 2269.21 118.24 2269.25 125.35 2272.16 131.93 2273.74 139 2278.11 144.7 2283.51 149.76 2286.93 156.13 2289.14 162.34 2296.22 160.4 2301.32 154.41 2307.86 151.07 2313.48 145.95 2320.27 143.49"/><path d="M2283.54,127.08s19.29,2.08,19.93,21.63"/><polygon class="cls-4" points="2304.89 150.63 2300.88 144.51 2295.92 139.08 2289.55 135.25 2284.08 130.19 2278.24 126.09 2271.86 122.04 2264.26 120.13 2257.12 122.8 2250.83 125.84 2250.79 132.9 2251.82 139.94 2255.65 146.03 2258.2 152.82 2263.36 157.82 2269.46 162.03 2273.74 167.85 2276.78 173.71 2283.53 170.82 2287.7 164.12 2293.69 159.89 2298.51 154.01 2304.89 150.63"/><path d="M2266.22,139.62s19.39-.68,22.8,18.57"/><polygon class="cls-5" points="2339.06 132.35 2345.65 131.44 2353.19 131.47 2358.45 136.89 2364.5 140.32 2369.59 145.13 2376.55 147.5 2386.4 147.56 2388.85 155.42 2394.61 160.27 2392.57 170.09 2397.52 175.27 2403.36 180.52 2403.91 187.92 2404.12 195.15 2404.81 202.12 2413.72 208.44 2411.56 215.95 2412.31 223.29 2405.53 230.07 2405.04 237.1 2402.56 243.83 2409.07 252.37 2406.44 257.56 2402.53 267.03 2405.18 273.64 2416.43 275.77 2421.11 281.71 2418.18 291 2419.76 298.07 2420.61 305.29 2421.46 312.35 2425.03 318.68 2431.98 324.68 2429.86 332.29 2436.85 339.25 2428.85 346.53 2434.64 354.35 2434.4 362.04 2424.41 366.95 2426.82 375.46 2422.52 381.54 2418.82 387.82 2416.9 395.62 2411.79 401.17 2406 405.95 2396.68 406.05 2392.83 412.95 2384.98 413.94 2377.71 415.34 2371.89 419.42 2367.84 428.17 2360.66 429.89 2351.69 425.96 2345.2 428.99 2339.08 429.32 2332.33 434.98 2324.98 434.65 2317.78 433.3 2314.28 422.62 2307.94 420.19 2300.31 419.91 2295.68 414.26 2289.63 410.96 2283.62 407.42 2272.37 408.66 2269.99 400.77 2267.92 393.29 2262.74 388.1 2259.53 381.62 2258.02 374.48 2257.61 367.18 2249.29 361.97 2252.33 353.97 2248.26 347.24 2254.14 339.66 2253.01 332.71 2246.73 325.4 2245.77 317.99 2257.44 312.11 2257.65 305.13 2249.53 296.4 2256.22 290.48 2260.36 284.21 2257.59 276.07 2265.18 270.95 2268.22 264.54 2270.92 256.83 2269.59 248.87 2269.12 241.73 2269.6 234.59 2269.79 227.44 2265.99 219.95 2263.11 212.26 2266.48 205.29 2272.93 199.1 2273.13 191.83 2275.83 185.17 2273.61 176.81 2278.15 170.75 2285.59 166.5 2287.11 159.35 2287.97 151.12 2290.72 143.49 2302.48 145.67 2301.9 132.41 2313.34 137.97 2317.48 129.27 2323.89 123.65 2332.24 127.79 2339.06 132.35"/><ellipse class="cls-4" cx="2387.99" cy="333.58" rx="32.44" ry="50.11"/><circle cx="2389.75" cy="246.6" r="15.03"/><rect x="2346.76" y="238.05" width="32.2" height="1.78" transform="translate(301.73 -940.86) rotate(24.01)"/><rect x="2341.71" y="245.71" width="32.2" height="1.78"/><rect x="2352.22" y="257.28" width="32.2" height="1.78" transform="translate(99.17 983.8) rotate(-23.95)"/><ellipse cx="2345.26" cy="202.94" rx="11.87" ry="23.37"/><ellipse cx="2388.25" cy="202.94" rx="11.87" ry="23.37"/><rect x="2367.92" y="174.76" width="32.2" height="1.78" transform="translate(134.02 983.07) rotate(-23.95)"/><rect x="2334.62" y="174.76" width="32.2" height="1.78" transform="translate(274.92 -941.4) rotate(24.01)"/><path class="cls-3" d="M2406.5,310.56l15.19.44s.06-.34.18-.91C2420.53,306.44,2411.62,283.82,2406.5,310.56Z"/><path class="cls-3" d="M2339.31,312.56s11.81-29,18.25,0c0,0,9.66-29,15,0"/><path class="cls-4" d="M2365.09,413.71s12.3,38.11-.55,40.4-12.27-15.73-12.27-15.73,14,10.64,7.53,26.37S2334.86,394,2334.86,394Z"/><path d="M2354.5,434.11s14.28,21.42,7.34,20.82"/><rect class="cls-2" x="2447" y="1" width="350" height="500"/><path class="cls-3" d="M2670,360.65s40,1.07,37.92,14S2689,381,2689,381s14.69-9.66,27.37,1.65-75,0-75,0Z"/><path d="M2684.75,376.42s24.95-6.34,22.08,0"/><polygon class="cls-4" points="2649.19 314.11 2635.88 311.68 2637.57 302.43 2627.89 299.98 2623.6 292.76 2623.96 285.27 2623.39 275.39 2615.47 272.92 2613.29 266.52 2601.35 267.16 2594.65 260.8 2597.94 250.66 2591.23 247.07 2586.87 241.16 2582.97 235.44 2580.68 224.17 2568.57 229.86 2564.74 223.7 2559.47 216.69 2549.59 218.44 2544.22 213.21 2543.66 202.97 2534.43 207.27 2527.41 203.38 2522.84 197.01 2515.02 195.71 2511.78 190.83 2505.88 181.66 2494.92 191.41 2487.12 183.11 2480.81 189.54 2472.78 188.25 2468.97 194.78 2456.67 196.53 2467.09 205.99 2466.68 212.53 2462.79 219.67 2457.93 227.82 2460.47 237.37 2473.98 238.37 2466.98 248.19 2475.18 251.93 2474.88 262.41 2475.26 258.91 2472.23 270.6 2486.84 271.72 2494.67 274.3 2498.19 281.2 2499.88 288.34 2501.1 295.39 2502.5 303.74 2508.07 309.86 2511.79 314.41 2525.49 313.77 2524.22 324.56 2525.41 330.82 2529.3 333.92 2534.46 332.57 2530.14 346.1 2547.13 339.32 2548.38 350.15 2548.97 358.05 2553.59 366.24 2563.33 365.91 2568.69 368.03 2575.77 371.23 2581.22 375.67 2587.48 380.25 2593 381.62 2593.66 395.69 2601.17 396.45 2609.56 395.75 2614.34 403.37 2623.97 399.09 2627.92 411.78 2636.31 406.54 2643.04 402.1 2651.56 406.33 2657.77 399.63 2657.89 391.78 2652.72 387.63 2646.89 380.55 2652.79 371.68 2655.04 363.28 2648.1 358.49 2653.02 349.94 2642.72 345.36 2643.86 338.33 2645.62 329.92 2646.95 324.29 2649.19 314.11"/><use width="70.93" height="75.02" transform="matrix(0.77, -0.34, 0.36, 0.82, 2522.17, 270.57)" xlink:href="#Vertical_Lines"/><use width="70.93" height="75.02" transform="matrix(0.77, -0.34, 0.36, 0.82, 2477.94, 224.68)" xlink:href="#Vertical_Lines"/><use width="70.93" height="75.02" transform="matrix(0.77, -0.34, 0.36, 0.82, 2565.15, 320.16)" xlink:href="#Vertical_Lines"/><path class="cls-3" d="M2721.47,406.44s37.91,12.92,32.07,24.59-19.95.44-19.95.44,16.9-4.86,25.64,9.71-71.64-22.29-71.64-22.29Z"/><path d="M2730.84,425.87s25.71,1.36,21.08,6.56"/><polygon class="cls-3" points="2664.27 140.49 2661.14 133.86 2657.01 127.78 2651.27 123.06 2646.58 117.28 2641.37 112.39 2635.61 107.51 2628.37 104.56 2620.93 106.14 2614.29 108.27 2613.21 115.24 2613.25 122.35 2616.16 128.93 2617.74 136 2622.11 141.7 2627.51 146.76 2630.93 153.13 2633.14 159.34 2640.22 157.4 2645.32 151.41 2651.86 148.07 2657.48 142.95 2664.27 140.49"/><path d="M2627.54,124.08s19.29,2.08,19.93,21.63"/><polygon class="cls-4" points="2648.89 147.63 2644.88 141.51 2639.92 136.08 2633.55 132.25 2628.08 127.19 2622.24 123.09 2615.86 119.04 2608.26 117.13 2601.12 119.8 2594.83 122.84 2594.79 129.9 2595.82 136.94 2599.65 143.03 2602.2 149.82 2607.36 154.82 2613.46 159.03 2617.74 164.85 2620.78 170.71 2627.53 167.82 2631.7 161.12 2637.69 156.89 2642.51 151.01 2648.89 147.63"/><path d="M2610.22,136.62s19.39-.68,22.8,18.57"/><polygon class="cls-5" points="2683.06 129.35 2689.65 128.44 2697.19 128.47 2702.45 133.89 2708.5 137.32 2713.59 142.13 2720.55 144.5 2730.4 144.56 2732.85 152.42 2738.61 157.27 2736.57 167.09 2741.52 172.27 2747.36 177.52 2747.91 184.92 2748.12 192.15 2748.81 199.12 2757.72 205.44 2755.56 212.95 2756.31 220.29 2749.53 227.07 2749.04 234.1 2746.56 240.83 2753.07 249.37 2750.44 254.56 2746.53 264.03 2749.18 270.64 2760.43 272.77 2765.11 278.71 2762.18 288 2763.76 295.07 2764.61 302.29 2765.46 309.35 2769.03 315.68 2775.98 321.68 2773.86 329.29 2780.85 336.25 2772.85 343.53 2778.64 351.35 2778.4 359.04 2768.41 363.95 2770.82 372.46 2766.52 378.54 2762.82 384.82 2760.9 392.62 2755.79 398.17 2750 402.95 2740.68 403.05 2736.83 409.95 2728.98 410.94 2721.71 412.34 2715.89 416.42 2711.84 425.17 2704.66 426.89 2695.69 422.96 2689.2 425.99 2683.08 426.32 2676.33 431.98 2668.98 431.65 2661.78 430.3 2658.28 419.62 2651.94 417.19 2644.31 416.91 2639.68 411.26 2633.63 407.96 2627.62 404.42 2616.37 405.66 2613.99 397.77 2611.92 390.29 2606.74 385.1 2603.53 378.62 2602.02 371.48 2601.61 364.18 2593.29 358.97 2596.33 350.97 2592.26 344.24 2598.14 336.66 2597.01 329.71 2590.73 322.4 2589.77 314.99 2601.44 309.11 2601.65 302.13 2593.53 293.4 2600.22 287.48 2604.36 281.21 2601.59 273.07 2609.18 267.95 2612.22 261.54 2614.92 253.84 2613.59 245.87 2613.12 238.73 2613.6 231.59 2613.79 224.44 2609.99 216.95 2607.11 209.26 2610.48 202.29 2616.93 196.1 2617.13 188.83 2619.83 182.17 2617.61 173.81 2622.15 167.75 2629.59 163.5 2631.11 156.35 2631.97 148.12 2634.72 140.49 2646.48 142.67 2645.9 129.41 2657.34 134.97 2661.48 126.27 2667.89 120.65 2676.24 124.79 2683.06 129.35"/><ellipse class="cls-4" cx="2731.99" cy="330.58" rx="32.44" ry="50.11"/><circle cx="2733.75" cy="243.6" r="15.03"/><rect x="2690.76" y="235.05" width="32.2" height="1.78" transform="translate(330.28 -1081.1) rotate(24.01)"/><rect x="2685.71" y="242.71" width="32.2" height="1.78"/><rect x="2696.22" y="254.28" width="32.2" height="1.78" transform="translate(130.02 1123.21) rotate(-23.95)"/><ellipse cx="2689.26" cy="199.94" rx="11.87" ry="23.37"/><ellipse cx="2732.25" cy="199.94" rx="11.87" ry="23.37"/><rect x="2711.92" y="171.76" width="32.2" height="1.78" transform="translate(164.87 1122.48) rotate(-23.95)"/><rect x="2678.62" y="171.76" width="32.2" height="1.78" transform="translate(303.47 -1081.65) rotate(24.01)"/><path class="cls-3" d="M2750.5,307.56l15.19.44s.06-.34.18-.91C2764.53,303.44,2755.62,280.82,2750.5,307.56Z"/><path class="cls-3" d="M2683.31,309.56s11.81-29,18.25,0c0,0,9.66-29,15,0"/><path class="cls-4" d="M2694.82,408.33s37.61,13.75,31.52,25.29-20,0-20,0,17-4.49,25.43,10.27S2660.67,420,2660.67,420Z"/><path d="M2704.39,429.23s25.67,1.92,20.93,7"/></g></svg>
