<?xml version="1.0" encoding="utf-8"?>
<!-- Generator: Adobe Illustrator 22.1.0, SVG Export Plug-In . SVG Version: 6.00 Build 0)  -->
<svg version="1.1" id="Layer_1" xmlns="http://www.w3.org/2000/svg" xmlns:xlink="http://www.w3.org/1999/xlink" x="0px" y="0px"
	 width="1600px" height="900px" viewBox="0 0 1600 900" style="enable-background:new 0 0 1600 900;" xml:space="preserve">
<style type="text/css">
	.st0{fill:#0F680B;}
	.st1{fill:none;}
	.st2{fill:#006E63;}
	.st3{fill:#65918A;}
	.st4{fill:#2D5750;}
	.st5{fill:#A4432B;}
	.st6{fill:#B34938;}
	.st7{fill:#C14E44;}
	.st8{fill:#D05350;}
	.st9{fill:#DE585D;}
	.st10{fill:#D56056;}
	.st11{fill:#CA594B;}
	.st12{fill:#BD5240;}
	.st13{fill:#B14A36;}
	.st14{fill:#B03133;}
	.st15{fill:#BF4241;}
	.st16{fill:#CD5550;}
	.st17{fill:#DC6760;}
	.st18{fill:#EA7C71;}
	.st19{fill:#77212C;}
	.st20{fill:#903239;}
	.st21{fill:#AC4749;}
	.st22{fill:#CA5F5C;}
	.st23{fill:#FFFAD2;}
	.st24{fill:#CA102C;}
	.st25{fill:#EC676D;}
	.st26{fill:#DB5E5C;}
	.st27{fill:#C9554B;}
	.st28{fill:#B74C3B;}
	.st29{fill:#F3997B;}
	.st30{fill:#931004;}
	.st31{fill:#AF4634;}
	.st32{fill:#B9483D;}
	.st33{fill:#C44945;}
	.st34{fill:#CF4A4E;}
	.st35{fill:#BC3C3C;}
	.st36{fill:#C84745;}
	.st37{fill:#D3534F;}
	.st38{fill:#DF5F59;}
	.st39{fill:#E08271;}
	.st40{fill:#CF0F2D;}
	.st41{fill:#D83A40;}
	.st42{fill:#E15C57;}
	.st43{fill:#EE9185;}
	.st44{fill:#F39B8E;}
	.st45{fill:#E27E73;}
	.st46{fill:#D2635C;}
	.st47{fill:#C14A46;}
	.st48{fill:#D95F57;}
	.st49{fill:#C9443F;}
	.st50{fill:#B82B2B;}
	.st51{fill:#A80E1A;}
	.st52{fill:#C43D3A;}
	.st53{fill:#D1524A;}
	.st54{fill:#DD665D;}
	.st55{fill:#B6503B;}
	.st56{fill:#C85E4C;}
	.st57{fill:#D96C5E;}
	.st58{fill:#BA3330;}
	.st59{fill:#CE564C;}
	.st60{fill:#E17A6C;}
	.st61{fill:#BB3C35;}
	.st62{fill:#345E04;}
</style>
<symbol  id="Impressionism" viewBox="-32.4 -25.6 64.7 51.1">
	<g>
		<g>
			<g>
				<g>
					<g>
						<g>
							<g>
								<path class="st0" d="M-6.6,14c1.4-2,1.8-4.9,0.9-7.2c-0.1-0.3,0-0.6,0.3-0.8c0.3-0.2,0.7,0,0.8,0.3c1.3,2.5,0.8,6.4-1.5,8.3
									c0,0,0-0.1,0-0.1c-0.1,0.1-0.3,0.1-0.5,0C-6.8,14.3-6.8,14.1-6.6,14L-6.6,14z"/>
								<path class="st0" d="M13.1,8.7c-0.7,0.6-1.6,0.7-2.4,1.1l-0.2,0.1l0.3-0.3L10.7,10c-1.1,1-0.4,2.6-1.2,3.7l-0.6,0.8L9,14
									l0,0.3c1,3.5,4.1,5.9,7.7,4.7c3.5-1.2,4.6-5.2,4.5-8.6c0-0.7,0.4-1.4,0.8-1.9l1.1-1.2c0.1-0.1,0.2-0.2,0.4-0.2l1-0.2
									C27,6.4,29.7,6.4,32,7.5c0.3,0.1,0.5,0.4,0.3,0.7c-0.1,0.3-0.4,0.5-0.7,0.3c-1.8-0.7-3.8-0.7-5.7-0.5l-2.1,0.3l0.4-0.2
									l-0.6,0.6c0,0,0,0,0,0c-0.4,0.5-1,1-1,1.6c0,3.7-1.2,7.9-4.8,9.5c-3.9,1.7-8.2-0.2-9.6-4.1l-0.5-1.6c0-0.1,0-0.3,0.1-0.4
									l0.7-1c0,0,0,0.1,0,0.1c0.3-1,0.1-2.2,0.9-3l0.4-0.6c0-0.2,0.2-0.3,0.4-0.3l1-0.3c0,0,0,0,0,0c0.6,0,1.1-0.1,1.7-0.4
									c0.1-0.1,0.3,0,0.4,0.1C13.3,8.5,13.2,8.6,13.1,8.7L13.1,8.7z"/>
								<path class="st0" d="M-0.8,10.4c1,5.5,3.7,10.9,8.5,13.9c0.2,0.1,0.3,0.4,0.1,0.6c-0.1,0.2-0.4,0.3-0.6,0.1
									C2,22.2-1.3,16.3-1.4,10.4c0-0.2,0.1-0.3,0.3-0.3C-1,10.1-0.8,10.3-0.8,10.4L-0.8,10.4z"/>
								<path class="st0" d="M5.5,16.6c0.2,2.5,2,4.5,4.3,5.3l0.3,0l-0.4,0l0.2-0.1c0.5-0.1,1.1,0.3,1.5-0.6c0.3-0.1,0.6,0,0.7,0.3
									c0.1,0.3,0,0.6-0.3,0.7c-0.1,0.5-0.3,0.9-1.5,0.5l-0.2,0.1c-0.1,0-0.2,0.1-0.3,0l-0.8-0.4c-2.3-1-4.1-3.2-4.2-5.7
									c0-0.2,0.1-0.3,0.2-0.4C5.4,16.3,5.5,16.4,5.5,16.6L5.5,16.6z"/>
								<path class="st0" d="M-1.5,19.8c0.2,0.2,0.3,0.5,0.5,0.7l0,0.2c0,0,0,0.1,0,0.1l-0.1,0.4c-2.2,5.6-9.6,5.2-13.4,1.8
									c-4.4-4-1.6-10.7,2.5-14.1c0.2-0.2,0.5-0.2,0.7,0c0.2,0.2,0.2,0.5,0,0.7c-3.5,3.3-6.5,8.8-2.6,12.6c3.1,3,9.4,3.9,11.8-0.7
									l0.4-0.9l0,0.1L-1.7,20c0.1,0.3-0.2,0.1-0.2,0.1c-0.1-0.1,0-0.3,0.1-0.4C-1.7,19.6-1.6,19.7-1.5,19.8L-1.5,19.8z"/>
								<path class="st0" d="M-13.3,18.8c0.1-0.6,0.4-1.1,0.7-1.6l0.2-0.3c0.1-0.1,0.2-0.2,0.3-0.2l0.8-0.1c2.6-0.6,6,1.1,5.9,4.1
									c0,0.2-0.2,0.4-0.4,0.5c-0.2,0-0.4-0.2-0.5-0.4c0.1-1.8-1.5-3.1-3.5-3.2l-2.2,0.1l0.3-0.2l-0.5,0.9c0,0,0-0.1,0.1-0.2
									c-0.2,0.3-0.3,0.7-0.7,0.9c-0.1,0.1-0.3,0.2-0.4,0.1C-13.3,19.1-13.3,18.9-13.3,18.8L-13.3,18.8z"/>
								<path class="st0" d="M-31.8-13.7c2.3,3.6,6.2,9.2,11,6c2.4-1.6,2.2-4.7,4.3-6.5l0.5-0.6c0.1-0.1,0.2-0.2,0.3-0.2l1.5-0.3
									c3.7-1,7.5,0.2,11.1,0.9c0.3,0,0.4,0.3,0.4,0.5c0,0.3-0.3,0.5-0.5,0.4c-3-0.5-6.1-1-9.2-0.9l-3,0.6l0.3-0.2l-1,1.1v0
									c-1.6,1.7-1.6,4.4-3.7,5.9c-5.4,3.7-10.1-2.1-12.4-6.4c-0.1-0.1,0-0.3,0.1-0.4C-32.1-13.9-31.9-13.9-31.8-13.7L-31.8-13.7z"
									/>
								<path class="st0" d="M-9.9-11.3c0-0.3,0.1-0.5,0.1-0.8l-0.1,0c0-0.1,0.1-0.3,0.2-0.3l0.4-0.1c5.7-0.7,9.3,4.6,12,8.8
									c3.4,2.5,7,1.2,9.7-1L12.6-5l-0.2,0.3l0.2-0.5c1-3.5,0.5-8-2.9-9.8c-1-0.5-2.8-0.2-3.3,1.2c-0.3,0.8,0,1.6,0.5,2.3L7-10.8
									l-0.5-0.5l0.7,0.2C7.5-11,7.7-10.8,8-10.7c0.3,0.1,0.4,0.5,0.3,0.7C8.2-9.7,7.9-9.5,7.6-9.6c0,0,0,0-1.4-0.4
									c0,0-0.3-0.1-0.5-0.3c0-0.3,0-0.3-0.4-1.4c0,0-0.4-0.7-0.5-1.5c0.2-0.9,0.6-2.4,1.9-3.2c1.5-0.2,2.4-0.2,3.1-0.2
									c0.7,0.4,4.2,3.2,4.7,8.1c-1,3.9-0.7,3.3-1.1,4c0,0,0,0.1-0.1,0.2c-0.1,0.1-0.1,0.1-0.6,0.5c0,0-4.6,2.6-5.8,2.6
									C6.5-1,3.2-1,1.7-3.5c-1.9-3.1-5.5-6.6-6.8-7.3c-1.7-1.1-3.7-1.2-4.4-0.9c0,0,0,0,0.2-0.3C-9.3-12.1-9.3-12.1-9.9-11.3
									c0,0,0.2,0,0.4,0c0.2,0,0.2,0.2,0.1,0.3c-0.2,0-0.3,0-0.5-0.1C-9.9-11.3-9.9-11.3-9.9-11.3z"/>
								<path class="st0" d="M6.5-6.9C6.3-6.7,6-6.5,5.8-6.4l-0.7,0c-0.1,0-0.2,0-0.3-0.2L4.7-6.7c-3.6-1.6-5.6-7.1-3-10.5
									c3-4,8.1-5.2,12.8-3.8c8.4,2.4,13.3,11.2,14.7,19.3c0.1,0.3-0.1,0.6-0.4,0.6C28.3-1,28-1.2,28-1.5
									C26.4-9,22.1-17.4,14.2-19.8c-4.1-1.3-8.8-0.4-11.5,3.3C0.5-13.7,2-9,5-7.4l0.4,0.5L5.1-7.1h0.8c0.4,0.2,0.3-0.2,0.4-0.3
									c0.1-0.1,0.3,0,0.4,0.1C6.7-7.1,6.7-6.9,6.5-6.9L6.5-6.9z"/>
								<path class="st0" d="M-0.3,0c-3.1-2.1-5.6-6.1-9.9-5.2c-2.2,0.5-3,2.8-3,4.9c0,0.3-0.3,0.6-0.6,0.6c-0.3,0-0.6-0.3-0.5-0.7
									c-0.3-2,0.5-3.9,2-5.2c1.8-1.6,4.4-1.3,6.3-0.2c2.5,1.3,4.1,3.5,6.1,5.3c0.1,0.1,0.1,0.3,0,0.4C0,0.1-0.2,0.1-0.3,0L-0.3,0z
									"/>
								<path class="st0" d="M-7.2-1.9c0,0,0,0-0.2,1c0,0,0,0,0.1-0.3c0,0,0,0,0,0.2c0,0,2.7,4.9-2.3,7.6c-3.3,1.8-7.7,3.2-11.9,1
									c-3.8-1.9-5.8-4.8-5.9-6.6c-0.1-1.5,1.1-2.6,1.3-3c0,0,0.4-0.3,0.6-0.5c0.3-0.1-0.1-0.1,0.6-0.3c0,0,2.4-1.5,4.8,0.5
									c2.7,2.1,1.8,3,1.8,3.4c0,0,0,0.2-0.1,0.4c-0.1,0.1-0.1,0.1-0.5,0.5c0,0-0.7,0.3-0.9,1.5c-1.4-0.7-1.7-0.6-2-0.9
									c0-0.3,0-0.7,0.2-1c0.4,0,0.7-0.1,1-0.1c0.3,0,0.3,0,1-0.8c0,0,0,0-0.2,0.5c0,0,0,0,0.1-1.1c0,0,0,0,0,0
									c0,0-0.8-1.8-2.5-2.2c-1-0.2-1.6,0.1-2.1,0.3c0,0-1.2,0.7-0.8,0.4c0,0-0.5,0.1-0.7,0.7c0,0-1.8,1,0.4,4.2
									c1.2,1.9,3.9,4.4,8.1,4.5c3.5,0.1,9.6-1.5,9.6-5c0-3.5-0.4-3.8-0.3-4.2v0c0,0,0,0,0.2-0.9c0,0-0.2,0.6,0,0.1
									c0.1-0.1,0.1-0.2,0.3-0.3c0.2,0,0.3,0.1,0.4,0.3C-7.2-1.9-7.2-1.9-7.2-1.9z"/>
								<path class="st0" d="M-21.7-12.1c-0.3-1.9,0-3.9,1.6-5.1c3.8-3,9.1-2.8,13.4-1.7c0.2,0.1,0.4,0.3,0.3,0.6
									C-6.6-18-6.8-17.9-7.1-18c-5.2-1.2-14.2-1.2-14.1,6c0,0.2-0.1,0.3-0.3,0.3C-21.6-11.8-21.7-11.9-21.7-12.1L-21.7-12.1z"/>
								<path class="st0" d="M6.5,2.1c5-0.5,10.7-2.7,11.7-8.2c0.1-0.3,0.4-0.5,0.7-0.4c0.3,0.1,0.5,0.4,0.4,0.7
									c-0.8,6-7.5,8.3-12.8,8.4c-0.2,0-0.3-0.1-0.3-0.3C6.2,2.3,6.4,2.1,6.5,2.1L6.5,2.1z"/>
								<path class="st0" d="M21.4-10.4c4.1,3.2,4,8.7,3.1,13.3c-0.7,3.3-4.5,3.9-7.4,4.1c-0.3,0.1-0.6-0.1-0.7-0.5
									c-0.1-0.3,0.1-0.6,0.4-0.7c2.4-0.7,5.7-0.5,6.4-3.1c1.1-4.3,0.8-9.2-2.2-12.7c-0.1-0.1-0.1-0.3,0-0.4
									C21.1-10.5,21.3-10.5,21.4-10.4L21.4-10.4z"/>
								<path class="st0" d="M2-23c1.1-0.3,2.3-0.5,3.3-1c10.5-5.2,21.9,2.9,26.9,11.8c0.2,0.2,0.1,0.5-0.1,0.7
									c-0.2,0.2-0.5,0.1-0.7-0.1c-5.1-7.6-13.5-15.3-23.4-12.2c-1.9,0.6-3.8,0.9-5.7,1.3c-0.2,0-0.3,0-0.4-0.2
									C1.7-22.7,1.8-22.9,2-23L2-23z"/>
								<path class="st0" d="M-4.6,0.3c-0.2,2.4,1.7,4.3,3.1,6.2c1.4,1.9,3.1,3.4,5.3,4.2c1.4,0.5,2.9-0.2,3.7-1.4
									c0.7-0.9,0.4-2-0.2-2.9L7.1,6.2C7,6.1,6.9,6,6.8,6L6.3,5.8C5.7,5.6,4.9,5.3,4.4,6C4.2,6.1,4,6.4,4.1,6.6
									C4.2,6.9,4.5,7,4.7,6.9c0.3,0,0.6,0,0.9,0l0.8,0.2L6.1,6.9l0.5,0.7c0,0,0-0.1,0-0.1c0.6,1.2-0.9,2.3-1.9,2
									C0.3,8.6-2.8,4.5-4,0.3C-4.1,0.1-4.2,0-4.4,0C-4.5,0-4.6,0.2-4.6,0.3L-4.6,0.3z"/>
							</g>
						</g>
					</g>
				</g>
			</g>
		</g>
	</g>
</symbol>
<symbol  id="Red_Rose" viewBox="-34.1 -30.1 68.2 60.1">
	<g>
		<g>
			<rect x="-34.1" y="-30.1" class="st1" width="68.2" height="60.1"/>
			<g>
				<path class="st2" d="M8.7-18.8c0,0-4.1,2.2-5.4,1.5C1.9-18-7.1-19.6-10.4-18.2c0,0,5-1.9,7.1-1.6c2.1,0.3,4.6,0.9,6.5,0.1
					C5-20.5,11.3-22.2,8.7-18.8z"/>
				<path class="st2" d="M8.1-20.5c0,0,0.4-4.9,2.4-5.4c2.1-0.6,4.2-0.8,5,0.6c0.8,1.4,1.8,4.8,2.1,6.1C18-17.8,8.4-15.2,8.1-20.5z"
					/>
				<path class="st3" d="M14.1-20.1c0,0-0.1-2,2.4-2.1c2.5-0.1,4.4,1.6,6.2,0.3c1.8-1.3,9.5-3,11.3-2.5c0,0-1.6,0.1-3.1,1.1
					c-1.5,1-3.2,2.4-4.5,2.6c-1.4,0.2-3.6,0.7-4.6,1.5C20.9-18.6,14.3-17.1,14.1-20.1z"/>
				<path class="st3" d="M7.9-18.4c0,0-2.7-1.1-3.1-2.3c-0.4-1.2-0.9-4.1-2.4-5c-1.5-0.9-4-4.3-4-4.3s0.1,0.4,1.4,1
					c1.4,0.7,3.1-0.2,5.2,1.2c2.1,1.4,9.4,3.5,8.5,7.5C12.7-16.3,9.7-17.8,7.9-18.4z"/>
				<path class="st4" d="M10.9-20.1c0,0-1.4-0.5-2-1c-0.7-0.5-1.2-2.5-2-3.1c-0.8-0.6-3.1-2.1-3.6-2.6c-0.4-0.5-2-0.9-2.5-1.2
					c-0.5-0.4,0.1,0.2,0.1,0.2s1.2,0.6,1.6,1.2c0.4,0.5,3,1.9,3.7,2.9c0.7,1.1,2.6,3.9,4.2,4.1C12-19.3,11.5-19.3,10.9-20.1z"/>
				<g>
					<g>
						<path class="st3" d="M11.1-9.2c0,0-3.4,1.6-6,0.7c-2.6-0.9-3.6-1-4.6-2.5c-1-1.5-1.2-4.4-2.3-5c-1-0.6-4.3,0.6-6.6,0.6
							c-2.2,0-4.1,0.4-5.2-1.4c-1.1-1.8-3.1-2.4-4.2-2.4c-1.1,0-0.9-0.6-2.1-1.6c-1.1-1-4.4-1.7-6.8-0.9c-2.4,0.8-5.6,0.9-7.5-0.2
							c0,0,1.4,0.4,3.9,2.7c2.5,2.4,7.8,7.9,9.6,10.5c1.8,2.5,4.1,4.8,8.8,4.4c4.7-0.3,13.2,0,15.1-1.4c1.9-1.4,3.6-1.2,5.3-1.9
							c1.7-0.7,2.9-0.7,2.9-0.7L11.1-9.2z"/>
						<path class="st4" d="M-7-6.3c0,0-5.8-1.6-7.4-2.5c-1.6-0.9-4.5-1.6-4.5-1.6s0.2,0.1,2,1.3C-15-8-15.6-6.9-16.6-7
							c-1-0.1-1,1.1,2.8-0.1c3.8-1.2,2,0.8,1.6,1.2c-0.3,0.4,0.7,0.3,2.2-0.2C-8.6-6.6-7-6.3-7-6.3z"/>
						<path class="st4" d="M-4.9-9.2c0,0-4.4,0.4-5.6-0.1c-1.2-0.4-6-2.1-6.7-2.7c-0.7-0.6-3.2-2.1-4.2-3c0,0,2.1,1.1,3,1.6
							c0.9,0.5,2.2,1.8,3,1.9c0.8,0.1,0.8-0.1-0.2-1.5c-1-1.3-2.5-4.7-2.3-5.5c0,0,0.4,2.7,1.6,3.9c1.2,1.2,2.2,2.8,2.4,3.2
							c0,0,2.3,1.6,3.5,1.6c1.2,0.1,0.6-1.2-0.3-2.6c-0.9-1.4-1.2-2.3-1.2-2.3s0.2,0.3,1.1,1.5c0.9,1.1,1.8,3.1,2,3.4
							c0.2,0.3,3.5,0,4.6-0.9L-4.9-9.2z"/>
					</g>
					<path class="st4" d="M-29.1-19.6c0,0,1.2-0.2,2.9,1.1c1.6,1.3,4.4,4.7,6.6,5.9c2.1,1.2,10.1,4.8,12.4,4
						c2.2-0.8,3.1-0.7,3.1-0.7l0,0.7c0,0-2.8,0.7-3.9,0.8c-1.1,0.2-10.6-3.1-12-4.2C-21.5-13.2-26.5-18.9-29.1-19.6z"/>
				</g>
				<path class="st3" d="M0.4,7.2c0,0-5.1,3.7-6.3,6.1c-1.3,2.4-1,7.6-1.3,9.2c-0.3,1.6-1.7,6.8-2.7,7.6c0,0,1.4-1.3,3.4-3
					c2-1.7,4.7,0,9.3-3.1c4.7-3.1,7-13.3,5.4-17.3C6.4,2.6,2.6,5.4,0.4,7.2z"/>
				<path class="st4" d="M5,8.2c0,0-1.3,1.7-1.9,2.6c-0.6,0.9-4.6,8.7-6.2,9.7c0,0,2.8-4.4,3.4-6c0,0-4.6,1.3-5.7,1
					c0,0,4.7-0.9,5.8-1.7c0,0,1-1.6,1.4-2c0.3-0.4-3.8-0.4-4.9-0.7c0,0,4.2,0.4,4.7,0.1c0.5-0.3,0.9-0.7,1.4-1.4
					c0.4-0.6,1.5-2,1.5-2L5,8.2z"/>
				<path class="st4" d="M5.3,10.8c0,0-0.9,1.1-0.7,2.2c0.2,1-1,1.8-1.9,3c-0.8,1.3-1,2.6-1.9,3c0,0,2.2-3,3.1-3.9
					c0.9-0.8,1,0.4,0.5,2c-0.5,1.6,0.9-1,1-3.3c0.1-2.3,1.1-1.2,1.6-0.1c0.4,1.1,0.7-1.9-0.1-3.5C6.2,8.5,6.2,10.1,5.3,10.8z"/>
				<path class="st4" d="M6.2,9.2c0,0-2.1,1.5-3,3.9c-1,2.4-4.3,7.7-6,9.2C-4.4,23.8-8,27.2-8.4,28c0,0,0.1-0.4,0.9-1.5
					c0.8-1.1,3-2.9,3.9-4.2c0.9-1.3,3.5-4.1,4.2-5.6c0.7-1.5,4.6-7.6,5.1-8L6.2,9.2z"/>
				<g>
					<g>
						<path class="st5" d="M30.2-9.9c-0.4,0.2-0.6,0.3-0.6,0.3s-1.6-1.9-1.5-1.8c-1.2,0.1-2-0.1-2.5-0.5c-0.6-0.4-0.9-1-1.1-1.7
							c-0.2-0.7-0.4-1.5-0.6-2.2c-0.2-0.7-0.4-1.4-0.9-1.9c0.9,0.3,1.6,0.5,2.3,0.8c0.7,0.2,1.2,0.4,1.6,0.6
							c0.8,0.3,1.5,1.5,2.1,2.9C29.6-12.2,30-10.8,30.2-9.9z"/>
						<path class="st6" d="M29.6-9.9c0.1-0.2-0.1-0.7-0.2-1.1c-0.1-0.3-0.2-0.5-0.4-0.6c-0.3-0.2-1.4-0.4-2-0.7
							c-0.1-0.1-0.3-0.3-0.5-0.4c-1.2-0.5-1.8-1.5-2.2-1.4c-0.1,0-0.2,0-0.3,0.1c-0.2,0-1.1,0.6-1.3,0.6C21.5-12.7,20-12,19.2-12
							c-0.4,0-0.8,0.1-1.2,0.3c-0.5,0.2-0.9,0.5-1,0.8c-0.1,0.2-0.1,0.4-0.2,0.4c-0.3-0.3-0.8-0.5-0.7-1.2c0.2-0.9,0.6-1,0.6-1.7
							c0-0.7,0-1.5,0.1-2.2c0.1-0.6,0-1.3-0.1-1.7c0.9,0.1,1.8,0.2,2.6,0.3c0.7,0.1,1.3,0.3,1.8,0.3c1.7-0.2,2.4-0.9,5.1,1.3
							c0.1,0.1,0.4,0.3,0.9,0.6c0.7,0.4,1.6,0.8,1.9,0.8c0,0.1,0.3,0.3,0.8,0.8C31.1-11.7,30-10.4,29.6-9.9z"/>
						<path class="st7" d="M29.7-9.8c0.5-0.6,0.5-1.6,0.2-2.5c-0.2-0.5-0.4-1-0.8-1.1c-0.4-0.2-2.5-0.3-3.5-0.7
							c-0.2-0.2-0.4-0.4-0.7-0.5c-2-0.6-2.9-2.2-3.9-2c-0.2,0-0.3,0.1-0.5,0.2c-0.1,0-1.8,1.2-1.9,1.2c-1.9,1.2-4.3,2.7-5.5,2.8
							c-0.7,0-1.4,0.4-2,0.8c-0.9,0.6-1.6,1.3-1.6,1.9c0,0.5-0.2,0.9-0.3,1.1c-0.5-0.4-1.5-0.7-1.1-2c0.4-1.6,1.4-1.6,1.4-2.8
							c0-0.7,0.3-1.5,0.8-2.2c0.3-0.5,0.5-1.1,0.8-1.5c1-0.1,1.9-0.2,2.8-0.2c0.7,0,1.4,0,2,0c2.7-0.3,3.4-3.1,8.4,0.4
							c0,0.1,0.7,0.3,1.5,0.6c1.2,0.4,2.9,0.7,3.4,0.3c0,0.1,0.5,0.1,1.4,1C33-12.4,30.5-10.5,29.7-9.8z"/>
						<path class="st8" d="M29.8-9.8c1-0.9,1-2.6,0.6-3.8c-0.2-0.8-0.7-1.4-1.1-1.6c-0.6-0.3-3.6-0.2-4.9-0.7
							c-0.3-0.3-0.6-0.5-1-0.6c-2.8-0.7-4-2.9-5.5-2.6c-0.2,0-0.4,0.1-0.6,0.3c-0.1,0-2.6,1.7-2.6,1.7C12-15.3,8.7-13,7-12.8
							c-0.9,0.1-1.9,0.6-2.8,1.3C3-10.6,2.1-9.4,2.1-8.5C2-7.6,1.9-7,1.7-6.7C1-7.2-0.5-7.6,0.1-9.4c0.7-2.3,2.1-2.2,2.3-3.9
							C2.5-14,3-14.8,3.8-15.5c0.5-0.5,1-1,1.6-1.4c1-0.2,2.1-0.5,3.1-0.7c0.8-0.1,1.5-0.2,2.2-0.4c3.6-0.7,4.5-5.2,11.6-0.6
							c0,0,1,0.3,2.1,0.6c1.8,0.4,4.1,0.7,4.9-0.1c0,0,0.7,0,2,1.2C34.9-13.1,31.1-10.5,29.8-9.8z"/>
						<path class="st9" d="M29.9-9.7c2.3-2.1,1.2-6.7-0.4-7.3c-0.7-0.3-4.6-0.1-6.3-0.7c-0.3-0.3-0.7-0.6-1.3-0.7
							c-4-1-5.4-4.3-7.9-2.8L10.6-19C7.3-16.6,3-13.4,1-13.1c-2.8,0.4-6.4,3.8-6.4,6c0,1.2-0.2,2-0.4,2.5c-0.9-0.7-2.8-1.1-2-3.5
							c1-3,2.7-2.8,3.1-5c0.4-2.2,5.7-4,10.3-5.2c4.6-1.2,5.5-7.3,14.9-1.6c0,0,7.5,2,9.1,0c0,0,1-0.1,2.5,1.5
							C36.7-13.8,31.6-10.6,29.9-9.7z"/>
					</g>
				</g>
				<g>
					<g>
						<path class="st10" d="M29-8.4c-1.5-1.3-3.9-2.1-6.4-2.4c-0.2-1.1-0.9-2.4-2-3.7c-1-1.3-2.4-2.7-3.6-3.9
							c1.5,0.2,3.3,0.6,4.3,1.3c0.6,0.4,1.9,1.7,3.4,3.1c1.5,1.4,3.2,3.1,4.8,4.3c0.6,1.2,1.1,2.2,1.4,2.8C30.3-7.4,29.6-7.9,29-8.4
							z"/>
						<path class="st11" d="M30.6-7.6c-0.6-0.5-1.3-1-1.9-1.5c-0.9-0.8-1.9-1.4-3.1-1.9c-1.1-0.5-2.1-1-3.2-1.2
							c-0.1-0.2-0.2-0.4-0.2-0.5c-0.4-0.8-1.3-1.8-2.2-2.6c-0.2-0.2-0.4-0.4-0.7-0.6c-1-1.1-2.1-2.2-3.1-3.1
							c1.2-0.1,2.5,0.3,3.7,0.8c0.2,0.1,0.5,0.2,0.7,0.4c0.7,0.5,1.9,1.5,3.3,2.5c0.2,0.1,0.3,0.3,0.5,0.4c1.1,1,2.2,2.1,3.4,3.2
							c0.5,0.5,1,0.9,1.4,1.4C29.7-9.4,30.2-8.4,30.6-7.6z"/>
						<path class="st12" d="M30.2-8.3c-0.6-0.5-1.3-1-1.9-1.5c-0.9-0.8-2-1.5-3-2.2c-1.1-0.7-2.1-1.3-3.1-1.7
							c-0.1-0.2-0.2-0.3-0.3-0.5c-0.6-0.7-1.6-1.5-2.6-2.1c-0.2-0.1-0.5-0.3-0.7-0.4c-1.1-1.2-2.2-2.2-3.1-3
							c1.2-0.3,2.5,0.1,3.7,0.7c0.2,0.1,0.5,0.2,0.7,0.4c0.9,0.5,2.1,1.5,3.6,2.3c0.2,0.1,0.3,0.3,0.5,0.4c1.2,0.9,2.3,2.1,3.4,3.3
							c0.5,0.5,0.9,1,1.4,1.5C29.3-10.2,29.8-9.1,30.2-8.3z"/>
						<path class="st13" d="M29.9-9c-0.6-0.5-1.3-1-1.9-1.5c-1-0.8-2-1.7-3-2.5c-1.1-0.9-2.1-1.7-3-2.2c-0.2-0.2-0.3-0.3-0.5-0.5
							c-0.7-0.6-1.9-1.2-3-1.6c-0.3-0.1-0.6-0.2-0.8-0.3c-1.2-1.2-2.4-2.3-3.2-3c1.2-0.5,2.5-0.1,3.7,0.6c0.2,0.1,0.5,0.2,0.7,0.4
							c1,0.6,2.3,1.5,3.9,2.1c0.2,0.1,0.3,0.2,0.5,0.4c1.2,0.9,2.4,2.1,3.5,3.4c0.5,0.6,0.9,1.1,1.3,1.7C28.9-10.9,29.5-9.9,29.9-9z
							"/>
						<path class="st5" d="M17-18.4c-1.3-1.2-2.5-2.3-3.2-2.9c1.3-0.8,2.4-0.3,3.8,0.5c1.4,0.8,2.9,1.9,4.9,2.3
							c1.5,0.9,2.8,2.3,4,3.9c1.2,1.6,2.2,3.4,3,4.9C28-11,26.3-12.6,24.8-14c-1.5-1.4-2.8-2.7-3.4-3.1C20.3-17.8,18.5-18.2,17-18.4
							z"/>
					</g>
					<path class="st5" d="M33.8-0.6C34-1.2,34.1-1.8,34-2.3C34.1-1.7,34.1-1.2,33.8-0.6z"/>
					<path class="st5" d="M34-2.3c-0.4-2-2.7-3.7-2.7-3.7s-0.1-0.3-0.4-0.9C32.5-5.7,34-4.4,34-2.3z"/>
				</g>
				<g>
					<g>
						<path class="st14" d="M3.7,11.1c-1-0.5-1.5-1-1.7-1.5c-0.2-0.5-0.2-1-0.1-1.3c2.4,0,5.2,1.6,5.2,1.6c2.7,1.8,5.4,0.8,7.2-0.2
							c1.2-0.7,2-1.5,2-1.5c0.4,0.2,0.8,0.4,1.2,0.5c-0.3,0.6-0.7,1.1-1.2,1.5c-0.5,0.4-1,0.8-1.6,1c-1.2,0.6-2.5,0.9-3.9,1
							C8,12.4,5.2,11.9,3.7,11.1z"/>
						<path class="st15" d="M3.4,11.5c-1-0.5-1.5-1.2-1.8-1.8C1.5,9.5,1.5,9.3,1.4,9.2c0-0.2-0.1-0.3-0.2-0.4c0-0.1,0-0.1,0.1-0.2
							c0.3-0.1,0.6-0.2,0.9-0.2c0.4,0.1,0.8,0.2,1.1,0.3c0.3,0.1,0.4,0.1,0.5,0.2C4.3,8.9,4.7,9,5.1,9.2C5.5,9.5,5.8,9.8,5.9,10
							c0.3,0.2,0.7,0.5,1.1,0.7c2.3,1.1,4.4,1,6,0.4c0.5-0.2,0.9-0.4,1.3-0.6c0.4-0.2,0.7-0.4,1-0.7c0.7-0.5,1.1-1,1.2-1.2
							c0.1,0,0.2,0,0.4,0c0.4,0.1,0.7,0.2,1.1,0.3c-0.3,0.6-0.3,1-0.5,1.5c-0.7,0.3-1.5,0.6-2.7,1.4c-1.2,0.8-3.1,1-5,1.1
							C7.3,12.7,4.8,12.3,3.4,11.5z"/>
						<path class="st16" d="M3.1,11.9c-1-0.6-1.6-1.3-1.9-2.2C1.1,9.5,1,9.4,1,9.2c0-0.1-0.2-0.1-0.4,0C0.6,9,0.7,9,0.7,8.9
							c0.3-0.2,0.6-0.3,1-0.4c0.5,0.2,0.9,0.3,1.1,0.3c0.2,0,0.1,0,0,0c0.4,0,0.8,0,1.2,0.1C4.3,9.3,4.5,9.7,4.8,10
							c0.3,0.3,0.7,0.5,1.2,0.8c2.7,1.5,5.1,1.6,6.9,0.9c0.5-0.2,1-0.4,1.5-0.7c0.4-0.2,0.7-0.5,1-0.7c0.7-0.6,1.2-1.1,1.4-1.6
							c0.1-0.1,0.3-0.2,0.4-0.3c0.4,0.1,0.9,0.2,1.4,0.3c-0.3,0.6,0,1,0.1,1.5c-0.8,0.2-2,0.5-3.7,1.8c-1.3,0.9-3.7,1.2-6,1.2
							C6.6,13.1,4.4,12.7,3.1,11.9z"/>
						<path class="st17" d="M2.7,12.3c-1-0.6-1.7-1.5-2-2.5C0.7,9.6,0.6,9.4,0.6,9.2c0-0.1-0.2,0.1-0.6,0.3c0-0.1,0.1-0.2,0.1-0.3
							c0.3-0.3,0.7-0.5,1.1-0.6c0.6,0.2,1,0.3,1.1,0.4c0.1,0-0.2,0-0.6-0.2C2.1,8.6,2.5,8.6,3,8.6C3,9,3.1,9.5,3.6,10
							c0.3,0.3,0.7,0.6,1.2,0.9c3.2,1.8,5.7,2.1,7.8,1.5c0.6-0.2,1.2-0.4,1.7-0.8c0.4-0.2,0.7-0.5,1-0.8c0.7-0.6,1.2-1.2,1.6-1.9
							c0.1-0.2,0.3-0.3,0.4-0.5c0.5,0.2,1.1,0.2,1.6,0.3c-0.2,0.6,0.4,1,0.8,1.5c-1,0.1-2.5,0.3-4.8,2.1c-1.3,1.1-4.3,1.5-7.1,1.2
							C5.9,13.6,4,13.1,2.7,12.3z"/>
						<path class="st18" d="M20.8,10.5c-1.2,0-3.1,0.1-5.9,2.5c-1.4,1.2-4.9,1.8-8.1,1.3c-1.6-0.2-3.2-0.7-4.4-1.6
							c-1.2-0.8-2-2-2.2-3.5c0,0-0.3,0.3-0.8,0.6c0.3-0.6,0.8-1,1.3-1.2C1.3,8.8,1.8,9,1.8,9S1.3,8.8,0.6,8.6C1,8.4,1.5,8.3,1.9,8.3
							C1.7,9,1.9,10,3.7,11.1c3.6,2.2,6.4,2.7,8.7,2.1c1.1-0.3,2.1-0.9,3-1.7c0.9-0.8,1.6-1.8,2.2-2.9c0.6,0.2,1.2,0.2,1.9,0.2
							C19.1,9.6,20.1,9.9,20.8,10.5z"/>
					</g>
				</g>
				<path class="st1" d="M6.3-10.8c0,0,0.8,0.2,2,0.4c-0.3,0.2-0.6,0.5-0.9,0.7C6.8-10,6.5-10.3,6.3-10.8z"/>
				<g>
					<g>
						<path class="st19" d="M22.3,9.2c-1.1,0-2.1-0.5-2.9-1c1.1-0.2,2.2-0.5,3-0.9c1.4-0.7,3-3.9,3-3.9c1.4-1.2,2-2.5,2.2-3.8
							C30.2,5.6,24.5,9.2,22.3,9.2z"/>
						<path class="st20" d="M18.8,8.2c1-0.1,2-0.4,2.8-0.7c0.2-0.1,0.4-0.2,0.6-0.3c1.1-0.7,2.2-2.4,2.5-2.4
							c1.2-0.6,3.1-2.1,2.7-4.3c0.2-0.7,0.1-1.3-0.1-1.9c0.2,0,0.3,0,0.4,0c2.2,4.9-1.9,8.4-3.5,9c0,0,0,0,0,0
							c-0.6,0-1.2,1.7-3.9,1.4C19.9,9,18.9,8.5,18.8,8.2z"/>
						<path class="st21" d="M18.1,8.3c0.9-0.1,1.8-0.3,2.6-0.5c0.2-0.1,0.4-0.1,0.6-0.2c1-0.3,2.1-1.2,2.6-1.2
							c1.5-0.4,4.7-2.6,3.6-6c0.2-1.1-0.1-2-0.5-2.7c0.3,0.1,0.6,0.2,0.7,0.3c2,3.8-0.6,7.2-1.6,8.4c0,0,0,0,0,0
							c-0.4,0-0.8,3.6-5.6,3.5C19.9,9.6,18.1,8.7,18.1,8.3z"/>
						<path class="st22" d="M17.4,8.4c0.8,0,1.6-0.2,2.4-0.3c0.2,0,0.4-0.1,0.6-0.2c0.9,0.1,1.9-0.1,2.7-0.1C25,7.5,29.4,4.6,27.6,0
							c0.2-1.4-0.3-2.8-0.8-3.6c0.5,0.2,0.8,0.4,1,0.6c1.7,2.8,0.7,6.1,0.3,7.9c0,0,0,0,0,0c-0.2,0-0.5,5.6-7.3,5.5
							C19.8,10.1,17.3,8.9,17.4,8.4z"/>
						<path class="st18" d="M30,3.4c0,0-0.1,7.5-9.1,7.5c-1.2-0.2-4.5-1.8-4.3-2.5c0.8,0,1.8-0.1,2.8-0.2c0.7,0.5,1.7,1,2.9,1
							c2.1,0,7.9-3.6,5.3-9.5c0.2-1.8-0.4-3.5-1.2-4.5c0.6,0.3,1.1,0.6,1.4,0.9C29.2-2.3,29.8,0.9,30,3.4C30.1,3.4,30,3.4,30,3.4z"
							/>
					</g>
				</g>
				<path class="st9" d="M10.4-3.4C9.2-3.5,8-3.7,7.1-3.9c2.2-1.7,3.7-3.2,4.2-4.6c4.9,1.2,12,2.1,15.2,3.5c1.3,1.8,2.9,5.4-0.4,8.3
					l-3.6,5.2c0,0-1.5,0.4-3.1,0.3c0.5-1.4,2.4-3.1,4.2-5.6"/>
				<path class="st23" d="M23.5,3.3c0.6-0.8,1.2-1.7,1.7-2.7c2.8-5.4-5-5.6-10-4.4c-1.6,0.4-3.3,0.4-4.9,0.3"/>
				<g>
					<g>
						<path class="st9" d="M12.9-2.5c3.8-0.1,4.9-1.2,8-0.6c2.3,0.4,4.1,1.2,4.9,2.2c-0.1,0.4-0.3,1-0.5,1.6c-0.5,1-1.1,1.8-1.7,2.6
							c0.2-0.9,0.2-1.6-0.1-2.2c-0.3-0.6-0.8-1.1-1.4-1.5L16.6,0l-5.4,0.4C9.4,1.3,7.8,2.3,6.7,3c0.1-0.8,0.3-1.7,0.6-2.4
							c0.3-0.8,0.6-1.4,1-2c0.5-0.9-0.5-1.8,0.1-2.3C8.9-3.2,10.1-2.4,12.9-2.5z"/>
						<path class="st8" d="M23.5,2.2c0.1-0.7,0-1.3-0.3-1.9c-0.2-0.4-0.6-0.8-1.1-1.1c-0.1,0-0.1-0.1-0.2-0.1
							c-0.2-0.1-4.4,0.1-4.7,0.1c0,0-0.1,0-0.1,0c-0.3-0.1-4.6,0.2-4.9,0.3c-1.5,0.7-3,1.5-4.1,2.1c-0.1-0.6,0-1.2,0-1.8
							c0-0.6,0-1.1,0.1-1.5c0.1-0.7-0.7-1.5-0.5-1.9c0,0,0-0.1,0.1-0.1c0.8,0.4,2.8,1,5.2,0.8C16.5-3.2,18-4,20.8-3.5
							c1.5,0.3,2.7,0.7,3.5,1.3c0.4,0.3,0.7,0.6,0.8,0.9c-0.1,0.4-0.2,0.8-0.4,1.2C24.4,0.8,24,1.5,23.5,2.2z"/>
						<path class="st7" d="M24.3,1.1c0-0.6-0.2-1.1-0.5-1.5c-0.3-0.3-0.6-0.7-1.1-0.9c-0.1,0-0.1-0.1-0.2-0.1
							c-0.4-0.2-3.5-0.1-4.1-0.2c0,0-0.1,0-0.1,0c-0.7-0.1-3.9,0.1-4.4,0.2c-1.3,0.5-2.5,1.1-3.6,1.6C10.1-0.3,10-0.7,9.7-1.1
							C9.4-1.5,9.1-1.8,9-2.2c-0.3-0.6-1-1.2-1-1.6c0,0,0-0.1,0.1-0.1c1,0.3,3.8,0.7,6,0.4c3-0.3,4.9-0.9,7.5-0.4
							c1.3,0.3,2.4,0.7,3.2,1.3C25-2.3,25.2-2,25.4-1.6c0,0.3-0.1,0.6-0.2,0.9C24.9-0.1,24.6,0.5,24.3,1.1z"/>
						<path class="st6" d="M25,0.1c-0.1-0.4-0.3-0.8-0.7-1.2c-0.3-0.3-0.6-0.5-1-0.7c-0.1,0-0.1-0.1-0.2-0.1
							c-0.6-0.3-2.7-0.4-3.5-0.5c0,0,0,0-0.1,0c-1-0.2-3.1,0-3.9,0.1c-1.1,0.3-2.1,0.7-3.2,1c-0.4-0.2-0.8-0.4-1.2-0.5
							C10.6-2,10.1-2.2,9.7-2.5C9-2.9,8.3-3.4,8.2-3.8c0,0,0.1-0.1,0.1-0.1c1.3,0.2,4.8,0.4,6.7,0.1c2.6-0.4,4.9-0.8,7.2-0.4
							c1.2,0.2,2.1,0.6,2.8,1.2c0.3,0.3,0.5,0.6,0.7,1c0,0.2,0,0.4-0.1,0.7C25.4-0.8,25.2-0.3,25,0.1z"/>
						<path class="st5" d="M21-3.1c-3.1-0.6-4.2,0.5-8,0.6c-2.8,0.1-4-0.7-4.5-1.2c0,0,0.1,0,0.1-0.1c1.6,0.1,5.8,0.1,7.4-0.3
							c2.2-0.5,4.9-0.7,6.9-0.3c1,0.2,1.9,0.6,2.4,1.2c0.3,0.3,0.5,0.6,0.6,1c0.1,0.4,0.1,0.8,0,1.3c-0.4-0.5-1-1-1.8-1.3
							C23.2-2.6,22.1-2.9,21-3.1z"/>
					</g>
				</g>
				<g>
					<g>
						<g>
							<path class="st24" d="M6.7,3.5c-0.1,1.3,0.2,2.6,1,3.6c-1.4,0-2.6,0-3.6-0.3c-1-0.2-1.9-0.6-2.5-1.1c-1.3-1-1.8-2.5-1.5-4.4
								C0.2,1.3,0.4,1.1,0.6,1C1.8,0.1,3-0.8,4.1-1.6C3.3-0.2,3.6,0.9,4.2,1.7C4.9,2.6,5.9,3.1,6.7,3.5z"/>
							<path class="st24" d="M2.3,4.8C1.2,3.9,0.7,2.5,1,0.7c0.1-0.1,0.3-0.3,0.4-0.4c1.2-0.9,2.4-1.7,3.4-2.5
								C4.5-1.1,5-0.2,5.8,0.4c0.3,0.7,0.9,1.4,1.3,1.8C7,3.2,7,4.2,7.4,5.1c0.1,0.2,0.1,0.3,0.2,0.5C6.7,5.8,5.9,5.9,5.2,6
								C5.1,6,4.9,6,4.8,6C3.8,5.8,2.9,5.3,2.3,4.8z"/>
							<path class="st24" d="M2.9,3.8C2,2.9,1.6,1.7,2,0.1C2.1,0,2.2-0.2,2.3-0.3C3.5-1.2,4.6-2,5.6-2.7c0.1,0.8,0.8,1.4,1.7,1.9
								c0,0.7,0.1,1.3,0.2,1.9C7.3,1.9,7.2,2.7,7.4,3.6c0,0.2,0.1,0.3,0.1,0.5C6.8,4.4,6.2,4.7,5.7,5C5.6,5.1,5.5,5.1,5.4,5.2
								C4.5,4.9,3.6,4.4,2.9,3.8z"/>
							<path class="st24" d="M3.6,2.7C2.8,1.9,2.5,0.8,2.9-0.5C3-0.7,3.1-0.8,3.2-1c1.1-0.8,2.2-1.6,3.1-2.3
								c0.5,0.5,1.5,0.9,2.5,1.1c-0.4,0.6-0.7,1.2-0.9,2C7.7,0.5,7.4,1.3,7.4,2.1c0,0.2,0,0.3,0,0.5C6.9,3,6.5,3.5,6.2,4
								C6.2,4.1,6.1,4.2,6.1,4.3C5.2,4,4.2,3.5,3.6,2.7z"/>
							<path class="st24" d="M10.4-3.4C9.6-3,8.9-2.3,8.3-1.4c-0.3,0.5-0.7,1.2-1,2C7.1,1.4,6.8,2.2,6.7,3c0,0.1,0,0.3,0,0.4
								C5.9,3.1,4.9,2.6,4.2,1.7C3.6,0.9,3.3-0.2,4.1-1.6c1.1-0.8,2.1-1.6,3-2.3C8-3.7,9.2-3.5,10.4-3.4z"/>
						</g>
					</g>
					<g>
						<g>
							<path class="st25" d="M6.7,3.5c-0.1,1.3,0.2,2.6,1,3.6c-1.4,0-2.6,0-3.6-0.3c-1-0.2-1.9-0.6-2.5-1.1c-1.3-1-1.8-2.5-1.5-4.4
								C0.2,1.3,0.4,1.1,0.6,1C1.8,0.1,3-0.8,4.1-1.6C3.3-0.2,3.6,0.9,4.2,1.7C4.9,2.6,5.9,3.1,6.7,3.5z"/>
							<path class="st26" d="M2.3,4.8C1.2,3.9,0.7,2.5,1,0.7c0.1-0.1,0.3-0.3,0.4-0.4c1.2-0.9,2.4-1.7,3.4-2.5
								C4.5-1.1,5-0.2,5.8,0.4c0.3,0.7,0.9,1.4,1.3,1.8C7,3.2,7,4.2,7.4,5.1c0.1,0.2,0.1,0.3,0.2,0.5C6.7,5.8,5.9,5.9,5.2,6
								C5.1,6,4.9,6,4.8,6C3.8,5.8,2.9,5.3,2.3,4.8z"/>
							<path class="st27" d="M2.9,3.8C2,2.9,1.6,1.7,2,0.1C2.1,0,2.2-0.2,2.3-0.3C3.5-1.2,4.6-2,5.6-2.7c0.1,0.8,0.8,1.4,1.7,1.9
								c0,0.7,0.1,1.3,0.2,1.9C7.3,1.9,7.2,2.7,7.4,3.6c0,0.2,0.1,0.3,0.1,0.5C6.8,4.4,6.2,4.7,5.7,5C5.6,5.1,5.5,5.1,5.4,5.2
								C4.5,4.9,3.6,4.4,2.9,3.8z"/>
							<path class="st28" d="M3.6,2.7C2.8,1.9,2.5,0.8,2.9-0.5C3-0.7,3.1-0.8,3.2-1c1.1-0.8,2.2-1.6,3.1-2.3
								c0.5,0.5,1.5,0.9,2.5,1.1c-0.4,0.6-0.7,1.2-0.9,2C7.7,0.5,7.4,1.3,7.4,2.1c0,0.2,0,0.3,0,0.5C6.9,3,6.5,3.5,6.2,4
								C6.2,4.1,6.1,4.2,6.1,4.3C5.2,4,4.2,3.5,3.6,2.7z"/>
							<path class="st5" d="M10.4-3.4C9.6-3,8.9-2.3,8.3-1.4c-0.3,0.5-0.7,1.2-1,2C7.1,1.4,6.8,2.2,6.7,3c0,0.1,0,0.3,0,0.4
								C5.9,3.1,4.9,2.6,4.2,1.7C3.6,0.9,3.3-0.2,4.1-1.6c1.1-0.8,2.1-1.6,3-2.3C8-3.7,9.2-3.5,10.4-3.4z"/>
						</g>
					</g>
				</g>
				<path class="st29" d="M12.9-0.4c-0.6,0.3-1.2,0.5-1.7,0.8"/>
				<path class="st29" d="M22-0.3c-0.8-0.5-1.9-0.9-3.1-1.2c-1.5-0.4-3.7,0.2-5.9,1.2"/>
				<path class="st30" d="M16.5,2.6c1.2-0.4,3.6-0.4,5.1-0.3c-0.6,1.3-1.7,2.4-2.5,2.7c-7.1,2.7-7.9-2.1-7.9-4.6
					c0.6-0.3,1.1-0.6,1.7-0.8C13.1,1.3,15.1,3.1,16.5,2.6z"/>
				<g>
					<g>
						<path class="st5" d="M10.5-15.9c0.1-1.1,0.1-2.2,0.1-3.1c1.2-0.9,2.2-1.6,3-2.1c0.1-0.1,0.2-0.1,0.3-0.2
							c0.7,0.6,1.8,1.5,3,2.6c0.6,0.6,1.2,1.2,1.8,1.8c0.6,0.6,1.2,1.3,1.7,1.9c-1.3,0.4-2.5,0.6-3.6,0.7c-1.1,0.1-2,0-2.8-0.1
							C12.3-14.7,11.2-15.3,10.5-15.9z"/>
						<path class="st31" d="M9.9-14.7c0.1-0.3,0.2-0.6,0.3-0.9c0.1-0.5,0.2-0.9,0.2-1.4c0-0.5,0.1-0.9,0.1-1.4
							c1.1-0.5,2.1-0.9,3-1.2c0.1,0,0.2-0.1,0.4-0.1c0.9,0.5,2.3,1.2,3.8,1.8c0.6,0.6,1.2,1.2,1.7,1.9c0.6,0.6,1.1,1.3,1.5,1.9
							c-1.2,0.2-2.4,0.4-3.5,0.5c-0.1,0-0.2,0-0.3,0c-1.1,0.1-2.1,0.1-2.9,0C12.4-13.6,10.9-14.1,9.9-14.7z"/>
						<path class="st32" d="M9.4-13.5c0.2-0.4,0.4-0.7,0.5-1c0.2-0.5,0.3-1.1,0.4-1.6c0.1-0.6,0.2-1.1,0.2-1.7
							c0.9-0.2,1.9-0.2,3-0.3c0.1,0,0.3,0,0.4-0.1c1.1,0.4,2.7,0.9,4.7,1c0.6,0.7,1.2,1.3,1.7,2c0.5,0.7,0.9,1.3,1.2,1.9
							C20.2-13.1,19-13,17.9-13c-0.1,0-0.2,0-0.3,0c-1.1,0.1-2.1,0.1-3,0.2C12.4-12.7,10.6-13,9.4-13.5z"/>
						<path class="st33" d="M8.9-12c0.4-0.4,0.6-0.8,0.8-1.1c0.2-0.6,0.4-1.2,0.6-1.9c0.1-0.6,0.2-1.3,0.3-1.9
							c0.8,0.2,1.8,0.5,3,0.6c0.1,0,0.3,0,0.4,0c1.4,0.4,3.2,0.5,5.5,0.2c0.6,0.7,1.2,1.4,1.6,2.1c0.5,0.7,0.8,1.3,1,1.9
							c-1.3,0-2.5,0-3.8,0c-0.1,0-0.2,0-0.3,0c-1.1,0.1-2.2,0.1-3.1,0.3C12.5-11.4,10.3-11.6,8.9-12z"/>
						<path class="st34" d="M20.3-14.9c0.6,0.7,1.1,1.5,1.5,2.2c0.4,0.7,0.7,1.4,0.8,1.9C21.3-11,20-11,18.7-11
							c-1.3,0-2.5,0.2-3.6,0.4c-2.5,0.6-5.1,0.4-6.8,0.2c0.5-0.4,0.8-0.8,1-1.2c0.3-0.7,0.6-1.4,0.8-2.1c0.2-0.7,0.3-1.5,0.4-2.2
							c0.8,0.6,1.9,1.3,3.5,1.5C15.5-14,17.6-14.1,20.3-14.9z"/>
					</g>
				</g>
				<g>
					<g>
						<g>
							<path class="st14" d="M6.2-12.1C5.1-11.8,3.6-11,2-10.2C0.4-9.4-1.2-8.5-2.5-7.9c-1.4,0.6-2.3,0.6-2.9,0.4
								c0.2-1.1,1.1-2.4,2.3-3.5c1.2-1.1,2.7-2,4.1-2.2c1.4-0.2,4-1.9,6.6-3.7C8.4-15.4,7.8-12.5,6.2-12.1z"/>
							<path class="st14" d="M-6-5.8c0.1-0.4,0.3-1,0.5-1.5c0.3-0.5,1.2-2.1,1.7-2.6c0-0.1,0.1-0.1,0.1-0.2c0.5-0.2,1-0.5,1.7-0.9
								c1-0.6,2.2-1.1,3.2-1.5C2-12.7,2.8-13,3.5-13.3c1-0.4,1.9-1.6,2.4-2.4c0.8-0.5,1.6-1.1,2.4-1.7C8.9-15.8,8.4-12.9,7-12
								c-0.2,0.1-0.4,0.3-0.7,0.4c-0.1,0-0.5,0.3-0.6,0.3C4.6-10.7,3.4-10,2-9.3c-1.7,0.9-3.5,1.8-5,2.5c0,0,0,0-0.1,0
								C-4.2-6.2-5.5-5.7-6-5.8z"/>
							<path class="st14" d="M-6.7-4.2C-6.5-4.6-6.3-5.4-6-6c0.2-0.4,1.4-2.7,1.7-3c0-0.1,0.1-0.2,0.1-0.2c0.5-0.1,1.2-0.2,2.1-0.7
								c1.1-0.6,2.5-1.3,3.8-1.8c1-0.4,1.9-0.9,2.7-1.1c1.2-0.4,2-2.1,2-3.1c0.9-0.6,1.8-1.2,2.6-1.8c0.5,1.8,0,4.7-1.3,6.1
								c-0.2,0.2-0.5,0.4-0.8,0.7c-0.1,0-0.6,0.4-0.7,0.5C5.1-10,3.7-9.2,2.1-8.4C0.3-7.4-1.7-6.4-3.4-5.6c0,0,0,0-0.1,0
								C-4.4-5.1-6.2-4.2-6.7-4.2z"/>
							<path class="st14" d="M-7.3-2.5C-7.1-3-6.9-3.9-6.6-4.6c0.1-0.2,1.5-3.3,1.7-3.5c0-0.1,0-0.2,0.1-0.3c0.5,0,1.3,0,2.5-0.6
								c1.3-0.6,2.9-1.5,4.3-2.2c1.2-0.6,2.4-1.1,3.3-1.4C6.7-13,7.4-15.3,7-16.4c1-0.7,1.9-1.4,2.8-2c0.3,2,0,4.9-1.3,6.8
								c-0.2,0.3-0.5,0.6-0.9,0.9c0,0-0.8,0.6-0.8,0.6C5.6-9.3,4-8.4,2.1-7.4c-1.9,1-4.1,2-6,2.9c0,0,0,0-0.1,0
								C-4.7-4.1-6.8-2.6-7.3-2.5z"/>
							<path class="st14" d="M9.3-11.6c-0.2,0.4-0.5,0.8-1,1.2L7.4-9.6c-1.3,1-3.2,2-5.3,3.1C0.1-5.4-2.2-4.4-4.3-3.3
								c-0.5,0.2-3.1,2.3-3.6,2.5c0.2-0.5,0.5-1.6,0.8-2.4l1.7-3.9c0-0.1,0-0.2,0-0.3c0.5,0.2,1.5,0.2,2.9-0.4
								c2.6-1.2,6.6-3.6,8.7-4.2c1.6-0.4,2.2-3.3,1.3-4.7c1-0.7,2.1-1.5,3-2.2C10.6-16.9,10.5-13.8,9.3-11.6z"/>
						</g>
					</g>
					<g>
						<g>
							<path class="st14" d="M6.2-12.1C5.1-11.8,3.6-11,2-10.2C0.4-9.4-1.2-8.5-2.5-7.9c-1.4,0.6-2.3,0.6-2.9,0.4
								c0.2-1.1,1.1-2.4,2.3-3.5c1.2-1.1,2.7-2,4.1-2.2c1.4-0.2,4-1.9,6.6-3.7C8.4-15.4,7.8-12.5,6.2-12.1z"/>
							<path class="st35" d="M-6-5.8c0.1-0.4,0.3-1,0.5-1.5c0.3-0.5,1.2-2.1,1.7-2.6c0-0.1,0.1-0.1,0.1-0.2c0.5-0.2,1-0.5,1.7-0.9
								c1-0.6,2.2-1.1,3.2-1.5C2-12.7,2.8-13,3.5-13.3c1-0.4,1.9-1.6,2.4-2.4c0.8-0.5,1.6-1.1,2.4-1.7C8.9-15.8,8.4-12.9,7-12
								c-0.2,0.1-0.4,0.3-0.7,0.4c-0.1,0-0.5,0.3-0.6,0.3C4.6-10.7,3.4-10,2-9.3c-1.7,0.9-3.5,1.8-5,2.5c0,0,0,0-0.1,0
								C-4.2-6.2-5.5-5.7-6-5.8z"/>
							<path class="st36" d="M-6.7-4.2C-6.5-4.6-6.3-5.4-6-6c0.2-0.4,1.4-2.7,1.7-3c0-0.1,0.1-0.2,0.1-0.2c0.5-0.1,1.2-0.2,2.1-0.7
								c1.1-0.6,2.5-1.3,3.8-1.8c1-0.4,1.9-0.9,2.7-1.1c1.2-0.4,2-2.1,2-3.1c0.9-0.6,1.8-1.2,2.6-1.8c0.5,1.8,0,4.7-1.3,6.1
								c-0.2,0.2-0.5,0.4-0.8,0.7c-0.1,0-0.6,0.4-0.7,0.5C5.1-10,3.7-9.2,2.1-8.4C0.3-7.4-1.7-6.4-3.4-5.6c0,0,0,0-0.1,0
								C-4.4-5.1-6.2-4.2-6.7-4.2z"/>
							<path class="st37" d="M-7.3-2.5C-7.1-3-6.9-3.9-6.6-4.6c0.1-0.2,1.5-3.3,1.7-3.5c0-0.1,0-0.2,0.1-0.3c0.5,0,1.3,0,2.5-0.6
								c1.3-0.6,2.9-1.5,4.3-2.2c1.2-0.6,2.4-1.1,3.3-1.4C6.7-13,7.4-15.3,7-16.4c1-0.7,1.9-1.4,2.8-2c0.3,2,0,4.9-1.3,6.8
								c-0.2,0.3-0.5,0.6-0.9,0.9c0,0-0.8,0.6-0.8,0.6C5.6-9.3,4-8.4,2.1-7.4c-1.9,1-4.1,2-6,2.9c0,0,0,0-0.1,0
								C-4.7-4.1-6.8-2.6-7.3-2.5z"/>
							<path class="st38" d="M9.3-11.6c-0.2,0.4-0.5,0.8-1,1.2L7.4-9.6c-1.3,1-3.2,2-5.3,3.1C0.1-5.4-2.2-4.4-4.3-3.3
								c-0.5,0.2-3.1,2.3-3.6,2.5c0.2-0.5,0.5-1.6,0.8-2.4l1.7-3.9c0-0.1,0-0.2,0-0.3c0.5,0.2,1.5,0.2,2.9-0.4
								c2.6-1.2,6.6-3.6,8.7-4.2c1.6-0.4,2.2-3.3,1.3-4.7c1-0.7,2.1-1.5,3-2.2C10.6-16.9,10.5-13.8,9.3-11.6z"/>
						</g>
					</g>
				</g>
				<g>
					<path class="st39" d="M20.4,0.8c0.3,0.4,0.3,2,0,2.3c-0.8,1.1-2.6,1.3-3.1,1.5c-1,0.3-3.8-1.8-3.8-3.5
						C14.2-0.1,19.2-0.6,20.4,0.8z"/>
				</g>
				<g>
					<g>
						<path class="st40" d="M-2.3,1.4C-3.4,2-4,2.7-4.4,3.3C-4,2-3.8,0.9-3.8-0.1c0-1-0.1-2-0.5-3.2c0.9-0.4,1.7-0.8,2.6-1.2
							C-0.9-5,0-5.4,0.9-5.8c1.7-0.9,3.3-1.7,4.7-2.5c0.7,1.7-0.6,3.8-2.5,5.7c-0.9,0.9-2,1.8-2.9,2.5C-0.8,0.5-1.7,1.1-2.3,1.4z"/>
						<path class="st41" d="M-4.1,4.1c-0.1-0.7-0.1-1.5,0.1-2.2c0-0.1,0-0.1,0-0.2c0.1-0.5,0.2-0.9,0.4-1.3C-3.6,0.2-3.5,0-3.4-0.1
							C-3.2-0.8-3.1-1.7-3-2.7C-2.4-3-1.8-3.4-1.2-3.8c0.3-0.2,0.7-0.5,1-0.7c1-0.7,1.8-1.4,2.3-2c0.6-0.3,1.2-0.7,1.8-1
							c1-0.3,2.1-0.6,3.1-0.9C7.4-6.8,6-4.8,4.1-3c-1,1-2.2,1.9-3.3,2.8c-0.5,0.4-1,0.8-1.5,1.1c-0.5,0.3-0.9,0.6-1.3,0.9
							C-3.3,2.5-3.9,3.3-4.1,4.1z"/>
						<path class="st42" d="M-3.9,4.8c-0.3-0.7-0.5-1.5-0.3-2.3c0-0.1,0-0.1,0-0.2C-4,1.8-3.8,1.3-3.5,0.9c0.1-0.2,0.3-0.3,0.4-0.5
							C-2.6-0.2-2.2-1-1.7-2c0.7-0.4,1.3-0.9,1.9-1.4C0.6-3.7,0.9-4,1.3-4.3c1-1,1.8-1.9,1.9-2.8C3.9-7.5,4.5-7.8,5-8.2
							c1,0,2.2-0.1,3.4-0.2c0.1,1.5-1.3,3.3-3.3,5.1c-1.1,1-2.4,2-3.7,3C0.8,0.1,0.2,0.5-0.3,0.9C-0.9,1.3-1.4,1.7-1.8,2
							C-3.1,3-3.7,4-3.9,4.8z"/>
						<path class="st18" d="M-3.6,5.5C-4.2,4.8-4.5,3.9-4.3,3c0-0.1,0-0.2,0-0.2c0.2-0.5,0.5-0.9,0.9-1.4c0.2-0.2,0.4-0.3,0.6-0.5
							c0.6-0.5,1.4-1.3,2.3-2.3C0.3-1.9,1-2.5,1.6-3.1c0.4-0.4,0.8-0.8,1.1-1.1c1.1-1.2,1.8-2.5,1.6-3.6c0.7-0.4,1.3-0.8,1.9-1.2
							c0.9,0.2,2.2,0.3,3.6,0.5C9.7-7,8.1-5.3,6.1-3.6c-1.2,1-2.6,2-4.2,3.2C1.3,0.1,0.7,0.5,0.1,0.9c-0.7,0.5-1.2,0.9-1.7,1.3
							C-3,3.6-3.5,4.7-3.6,5.5z"/>
						<path class="st43" d="M11.3-8.4C10.8-7,9.2-5.6,7.1-3.9C5.3-2.5,3.1-0.9,0.6,1c-3,2.3-3.9,4-4,5.3c-0.8-0.8-1.2-1.6-1-2.7
							c0-0.1,0-0.2,0.1-0.2C-4,2.7-3.4,2-2.3,1.4c1.3-0.6,3.6-2.3,5.4-4.1c1.8-1.9,3.2-4,2.5-5.7c0.7-0.4,1.3-0.8,1.9-1.2
							C8.3-9.1,9.7-8.8,11.3-8.4z"/>
					</g>
				</g>
				<g>
					<g>
						<path class="st44" d="M-5.6,5.3c0.9,2.3,2.8,2.8,5,2.8c0.4,0.2,0.9,0.4,1.2,0.5c-0.5,0.2-1,0.6-1.3,1.2
							c-1.1,0.6-3.1,1.1-5.7-0.6c0,0-2.6-1.9-4-4.2c-1.4-2.3-1.7-5,2.9-6.5c0,0,0.8-0.5,1.8-1.2c0.5-0.2,4.6-2.2,5.1-2.4
							c0.2,0.7,0.1,1.5-0.2,2.2c-0.9,0.9-2.2,2.4-3.3,4C-5.2,2.7-6,4.3-5.6,5.3z"/>
						<path class="st45" d="M-9.2,5.1c-1.2-2-1.2-4.4,2.5-5.9c0.1-0.2,0.9-0.8,1.7-1.4C-4.4-2.6-1-4.4-0.6-4.6C-0.4-4-0.7-3.2-1-2.5
							C-1.5-2-2.1-1.2-2.8-0.4C-3.2,0.1-3.6,0.7-4,1.3C-4.6,2.2-5.1,3.1-5.3,4c-0.1,0.4-0.1,0.8,0,1.1c0.3,1,0.9,1.6,1.6,2.1
							c0.8,0.5,1.8,0.7,2.9,0.8C-0.4,8.1,0,8.3,0.3,8.4c-0.5,0.2-0.8,0.4-1.1,0.9c-0.5,0.2-1.1,0.4-1.8,0.4c-0.9,0-1.9-0.2-3-1
							C-5.9,8.7-8,7.1-9.2,5.1z"/>
						<path class="st46" d="M-8,5.2c-0.9-1.6-0.6-3.8,2.2-5.4c0.3-0.4,1-1.1,1.7-1.7C-3.6-2.4-1-3.8-0.6-4.1c0,0.6-0.4,1.3-0.6,1.9
							c-0.4,0.6-1,1.3-1.6,2c-0.4,0.5-0.8,1.1-1.1,1.6c-0.5,0.8-1,1.6-1.1,2.4c-0.1,0.4-0.1,0.7,0,1.1c0.3,0.9,0.8,1.5,1.4,2
							c0.7,0.5,1.6,0.8,2.5,1C-0.7,8-0.3,8.2,0,8.3c-0.4,0.1-0.7,0.3-1,0.6C-1.4,9-1.9,9.2-2.5,9.1c-0.7,0-1.6-0.2-2.5-0.8
							C-5.4,8.2-7.1,6.9-8,5.2z"/>
						<path class="st47" d="M-6.8,5.2C-7.5,3.9-6.9,2-5,0.5c0.4-0.6,1.1-1.3,1.7-2c0.6-0.6,2.2-1.6,2.6-2C-0.7-3-1.1-2.4-1.4-1.9
							c-0.4,0.6-0.9,1.3-1.4,1.9c-0.4,0.5-0.7,1-1,1.5C-4.2,2.3-4.6,3-4.7,3.7c-0.1,0.3-0.1,0.7,0,1c0.2,0.8,0.6,1.4,1.2,1.9
							c0.6,0.5,1.4,0.9,2.2,1.2c0.3,0.2,0.6,0.3,1,0.5c-0.3,0.1-0.6,0.1-0.8,0.3c-0.4,0.1-0.8,0.1-1.2,0.1c-0.6,0-1.3-0.2-2-0.6
							C-5,7.7-6.1,6.7-6.8,5.2z"/>
						<path class="st14" d="M-3.4,6.3C-2.6,7-1.6,7.6-0.6,8.1c-0.5,0-1.1,0-1.6-0.1c-0.5-0.1-1-0.2-1.4-0.4c-0.9-0.4-1.6-1.1-2-2.3
							c-0.4-1,0.4-2.6,1.5-4.2C-3.6,0.4-3-0.4-2.4-1.1c0.6-0.7,1.1-1.3,1.6-1.8c-0.4,1-1.2,2.1-1.9,3.2c-0.7,1.1-1.4,2.2-1.7,3.3
							C-4.7,4.6-4.2,5.5-3.4,6.3z"/>
					</g>
				</g>
				<g>
					<g>
						<path class="st18" d="M7.1,10c0,0-2.4-0.2-6-0.5C0,9-2.5,8.3-3.4,6.3C-3.3,5.1-5,3.8,0.1,1.4c0,0.2,0,0.5,0,0.7
							c-0.5,0.6-1,1.4-0.7,2.5C-0.2,6.9,5.1,7,6.7,7.8c1.1,0.6,3.8,2.5,5.3,1.6c0.7,0.1,1.5,0.2,2.3,0.3C12.5,10.8,9.8,11.7,7.1,10z
							"/>
						<path class="st48" d="M0.1,1.5C0,1.8,0,2,0,2.2c-0.4,0.6-0.6,1.4-0.3,2.3C0,5.3,0.9,5.9,2,6.3c1.6,0.6,3.7,0.9,4.6,1.3
							C7,7.7,7.4,7.9,7.9,8.2c1.1,0.7,2.5,1.4,3.6,1.1c0.6,0.2,1.4,0.3,2.2,0.4c-0.1,0.1-0.1,0.1-0.2,0.2c-1.7,0.9-4.2,1.1-6.4-0.3
							c0,0-0.1,0-0.1,0C6.6,9.3,4.4,9.1,1.5,8.8C0.2,8.4-2,7.7-2.7,5.8C-2.7,4.7-3.9,3.5,0.1,1.5z"/>
						<path class="st49" d="M0,1.7c0,0.2,0,0.4,0,0.6C-0.2,3-0.2,3.7,0.1,4.4c0.3,0.8,1.2,1.3,2.2,1.7C3.8,6.7,5.6,7,6.6,7.4
							C7,7.5,7.4,7.6,7.9,7.8C8.7,8.5,10,9.2,11,9.1c0.6,0.2,1.2,0.3,2,0.4c0,0,0,0.1,0,0.1c-1.6,0.9-4,0.4-5.9-0.7
							c0,0-0.1,0-0.1-0.1c-0.5-0.2-2.5-0.4-5-0.8C0.5,7.7-1.5,7-2.1,5.4C-2.1,4.3-2.8,3.2,0,1.7z"/>
						<path class="st50" d="M0,1.9c0,0.2,0,0.4,0,0.6c0,0.6,0.1,1.3,0.5,1.9c0.4,0.7,1.2,1.2,2,1.5c1.3,0.6,2.9,0.9,4,1.2
							C7,7.2,7.4,7.4,7.8,7.5C8.5,8.1,9.5,8.8,10.5,9c0.5,0.2,1.1,0.4,1.8,0.5c0.1,0,0.1,0.1,0.2,0.1C11,10.4,8.5,9.4,7,8.4
							c-0.1,0-0.1-0.1-0.2-0.1C6.1,8,4.3,7.8,2.2,7.4C0.8,7-1,6.4-1.4,5C-1.5,3.9-1.6,2.9,0,1.9z"/>
						<path class="st51" d="M6.7,7.8c-0.8-0.4-2.5-0.6-4.1-1c-1.6-0.4-3-1-3.3-2.2C-0.9,3.5-0.5,2.6,0,2.1c0,1.7,1.3,2.9,2.8,3.7
							c1.6,0.8,3.5,1.2,4.9,1.4C8.6,8.2,9.9,9,12,9.4C10.5,10.3,7.8,8.3,6.7,7.8z"/>
					</g>
				</g>
				<g>
					<g>
						<path class="st50" d="M24-7.2c3.9,1.4,10.1,4.5,6,10c-0.3-2.3-0.9-5.2-2.1-6.8c-0.3-0.3-0.7-0.6-1.4-0.9c-2-0.9-5.2-1.4-8.5-2
							C19.9-7.5,22.1-7.9,24-7.2z"/>
						<path class="st52" d="M30,2.9c0-0.1,0-0.2,0-0.3c0.9-2.4-0.3-4.3-1.5-5.7c-0.8-0.9-2.6-1.7-3.5-2c-0.4-0.3-0.9-0.5-1.5-0.7
							c-0.6-0.2-1.2-0.3-2-0.5c-0.3-0.1-0.8-0.2-1.1-0.3c-1.3-0.3-2.7-0.6-4-0.9c-0.2-0.1-0.5-0.2-0.8-0.4c0.9-0.1,2-0.2,3.1-0.4
							c1.1-0.2,2.3-0.3,3.5-0.2c1.1,0.1,2.2,0.4,3,0.9c2.5,1.3,6.1,2.8,6.5,5.8C32-0.3,31.5,1.3,30,2.9z"/>
						<path class="st53" d="M30,3.1c0-0.1,0-0.2,0-0.4c2-3.4-0.1-5.8-2.2-7.3c-1.1-0.8-4.5-1.5-5.7-1.5c-0.5-0.2-1-0.4-1.6-0.4
							c-0.6-0.1-1.2,0-2.1-0.3c-0.2-0.1-0.9-0.3-1.1-0.3c-1.4-0.3-2.8-0.7-3.9-1.1c0-0.2-0.1-0.3-0.2-0.5c1.1,0,2.7,0,4.3-0.3
							c1.5-0.3,3.2-0.4,4.9-0.2c1.6,0.2,3.1,0.7,4.2,1.4c2.4,1.5,6,3,5.9,6.4C32.4,0.1,31.7,1.6,30,3.1z"/>
						<path class="st54" d="M30,3.2c0-0.2,0-0.3-0.1-0.5c3-4.5,0.2-7.5-2.9-8.9c-1.5-0.7-6.3-1.3-7.9-1c-0.6-0.2-1.2-0.2-1.7-0.2
							c-0.7,0-1.2,0.2-2.2-0.1c-0.1,0-1.1-0.3-1.1-0.3c-1.5-0.4-2.8-0.7-3.8-1.2c0.1-0.2,0.3-0.4,0.4-0.6c1.4,0.1,3.5,0.2,5.5-0.3
							c1.8-0.4,4.1-0.5,6.2-0.2c2.1,0.3,4,0.9,5.3,1.9c2.3,1.8,5.9,3.3,5.4,7.1C32.8,0.5,31.8,2,30,3.2z"/>
						<path class="st18" d="M11.1-8.3C9.6-8.7,8.3-9.1,7.4-9.6c0.3-0.3,0.7-0.5,0.9-0.7c1.7,0.2,4.2,0.4,6.8-0.2
							c2.2-0.5,5-0.6,7.5-0.2c2.6,0.3,4.9,1.1,6.4,2.4c2.3,2,5.9,3.5,4.8,7.7c-0.7,1.5-1.8,3-3.8,4C30,3.2,30,3,30,2.8
							c4.1-5.5,0.4-9.1-3.5-10.5c-1.9-0.7-8.2-1.1-10.1-0.5c-1.9-0.3-2.3,0.6-4.1,0.1L11.1-8.3z"/>
					</g>
				</g>
				<g>
					<g>
						<path class="st5" d="M9.5,1.3c0.6-0.3,1.2-0.6,1.7-0.9c0,1.1,0.2,2.7,1,3.9c-0.3,1.1,0.9,1.6,2.4,2.5c0.2,0.1,0.4,0.2,0.5,0.4
							C9.6,8.7,9.2,4.1,9.5,1.3z"/>
						<path class="st55" d="M8.6,1.8C9.2,1.4,10,1,10.8,0.6c-0.7,1.6-0.7,4.2,2.1,4.3c0,0.9,0.9,1.4,2.1,2.2
							c0.1,0.2,0.2,0.4-0.1,0.6C9.2,9,8.3,4.6,8.6,1.8z"/>
						<path class="st56" d="M7.6,2.3c0.7-0.4,1.7-1,2.7-1.5C9,2.9,8.8,6.6,13.7,5.7c0.2,0.8,0.9,1.3,1.8,1.9c0,0.3-0.1,0.7-0.7,0.8
							C8.8,9.3,7.4,5.2,7.6,2.3z"/>
						<path class="st57" d="M6.7,2.8c0.7-0.5,2-1.1,3.2-1.7c-2.1,2.6-2.4,7.4,4.5,5.3C14.8,7,15.3,7.5,15.8,8c0,0.3-0.3,0.9-1.3,1
							C8.4,9.6,6.4,5.8,6.7,2.8z"/>
						<path class="st18" d="M16.2,8.5c-0.1,0.4-0.5,1.1-1.9,1.3C8.1,9.9,5.5,6.4,5.8,3.3c0.8-0.5,2.2-1.3,3.7-2
							c-2.7,3.1-3.2,8.9,5.6,5.8C15.8,7.6,16.1,8.1,16.2,8.5z"/>
					</g>
				</g>
				<g>
					<g>
						<path class="st51" d="M15.5,6.8c-1.5-0.1-2-1-2.3-1.6c0.6,0.4,1.3,0.6,2.3,0.5c1,0,2.1-0.3,3.6-0.8c0.4-0.1,0.8-0.4,1.2-0.9
							c0.4-0.4,0.8-1,1.1-1.6c0.1,0.6,0.1,1.1,0.1,1.6c-0.1,0.5-0.2,0.8-0.4,1.2c-0.4,0.6-1,1-1.7,1.3C18.1,7,16.4,6.9,15.5,6.8z"/>
						<path class="st58" d="M15,6.8c-1.5-0.4-2-1.1-2.1-1.8c0.3,0.2,0.8,0.6,1.3,0.8C14.5,5.9,15,6,15.5,6.1
							c0.4,0.1,0.9,0.1,1.4,0.1c0.9-0.1,1.9-0.3,2.8-1c0.3-0.2,0.7-0.7,1-1.3c0.1-0.1,0.1-0.3,0.2-0.4c0,0,0.1-0.1,0.1-0.1
							c0.3-0.5,0.6-1,0.7-1.6C22,2.5,22.2,3.1,22,3.9c-0.1,0.5-0.3,0.8-0.5,1.2c-0.4,0.7-0.9,1.1-1.5,1.4c-0.5,0.3-0.9,0.6-1.6,0.8
							c-1,0.4-1.3,0.5-1.9,0.1c-0.1,0-0.4-0.4-0.5-0.3C15.8,7,15.4,6.9,15,6.8z"/>
						<path class="st59" d="M14.6,6.7c-1.5-0.6-1.9-1.2-1.9-2C13,5,13.7,5.6,14.1,5.8c0.2,0.2,0.7,0.4,1.3,0.6
							c0.5,0.2,1.2,0.3,1.7,0.3c1,0,2.3-0.2,3.1-1.3c0.3-0.4,0.6-0.9,0.7-1.7C21,3.5,21,3.4,21,3.2c0-0.1,0.1-0.1,0.1-0.2
							c0.4-0.6,0.6-1.3,0.6-1.9c0.7,0.7,1,1.5,0.8,2.6c-0.2,0.5-0.4,0.9-0.6,1.2c-0.4,0.7-0.9,1.1-1.3,1.6c-0.5,0.5-1,0.9-1.8,1.3
							c-1.5,0.7-1.7,0.9-2.3,0.3c-0.1,0-0.4-0.7-0.5-0.6C15.7,7.3,15.2,7,14.6,6.7z"/>
						<path class="st60" d="M14.1,6.7c-1.5-0.7-1.8-1.3-1.6-2.2c0.3,0.3,1.1,1.2,1.5,1.4c0.2,0.2,0.7,0.5,1.4,0.8
							c0.6,0.2,1.4,0.4,2,0.5c1.2,0,2.7-0.1,3.4-1.6c0.3-0.5,0.4-1.2,0.5-2.1c0-0.2,0-0.4,0-0.6c0-0.1,0.1-0.1,0.1-0.2
							c0.4-0.7,0.6-1.6,0.5-2.3c1,0.8,1.5,1.7,1.2,3.2c-0.3,0.5-0.5,0.9-0.7,1.2c-0.4,0.7-0.8,1.2-1.2,1.7c-0.5,0.7-1,1.3-2.1,1.9
							c-2,1.1-2,1.3-2.8,0.4c0,0-0.5-1-0.6-0.9C15.5,7.5,14.9,7.1,14.1,6.7z"/>
						<path class="st18" d="M23.6,3.3c-0.9,1.2-1.4,2.3-1.9,3.2c-0.5,0.9-1.1,1.7-2.3,2.4c-2.5,1.4-2.4,1.7-3.2,0.5
							c0,0-0.6-1.4-0.6-1.2c-0.2-0.5-0.9-0.9-1.9-1.5c-1.5-0.9-1.7-1.4-1.4-2.5c0.3,0.4,1.2,1.4,1.6,1.7c0.2,0.5,2.3,1.6,3.8,1.7
							c1.9,0.1,4.7-0.2,3.9-5.1c0-0.1,0.1-0.1,0.1-0.2C22,1.5,22.2,0.5,22-0.3C23.3,0.5,24.1,1.5,23.6,3.3z"/>
						<path class="st61" d="M21.6,2.3c-0.7,1.2-0.9,1.8-2.9,1.9c0.3-0.3,1.6-1.5,0.2-2.9c-1.2-1.3-4.8-1.3-5.5-0.3
							c-0.3-0.4-0.5-0.9-0.5-1.4c2.2-1,4.4-1.6,5.9-1.2c1.2,0.4,2.3,0.7,3.1,1.2C22.2,0.5,22,1.5,21.6,2.3z"/>
					</g>
				</g>
				<path class="st5" d="M18.3,2.3c0,0-1.1,1.3-4.6-0.9c-1.3-0.8,2.5-1.7,3.7-1.4C19,0.5,18.4,1.6,18.3,2.3z"/>
			</g>
		</g>
	</g>
</symbol>
<g>
	<polygon class="st62" points="1594.1,657.6 1592.7,650.4 1582.8,652.7 1575.6,650.6 1571.5,636.8 1559.7,657.6 1553.6,653.5
		1546.8,651.8 1538.6,642.3 1535.1,661.8 1522.5,643.5 1526,670.5 1507.9,650.5 1502.7,657.2 1487.9,653.2 1503.8,678.4
		1482.8,672.3 1482.7,681.6 1476,688 1473.3,696.2 1481.2,715.1 1473.5,704.6 1469.9,677.1 1459.7,698.6 1452.6,692.7 1445.5,695.4
		1438.8,698.6 1425.7,681.9 1427.2,706.9 1423.4,713.3 1402.5,695.8 1394,700 1400.6,717.7 1393.5,722 1403.7,735.2 1394.2,738.4
		1394.9,745.4 1385.4,752.1 1393.9,759 1390.7,767 1379.1,779.9 1394.1,782.2 1416.8,789.3 1405.4,802.7 1387.1,794.6 1400.5,812.5
		1380.7,809 1390,819.7 1389.3,825.6 1391.6,830 1381.2,838.9 1369,831.4 1364.4,840.7 1357.9,842.9 1359.2,857.8 1351.2,856.3
		1328.1,841.6 1348.1,868.8 1337,868 1329.8,871.5 1311.6,873.3 1306.4,881.5 1318,891.4 1320.6,899.1 1309.4,910 1324.8,913.9
		1319.5,925.5 1338.6,922.6 1332,937.6 1346.7,933.5 1352.4,937.4 1363.6,931.7 1359.4,954.7 1366.5,958.4 1375.5,955.7 1384,949.6
		1391.4,938.6 1397.1,944.1 1403.1,942.9 1409.6,944.4 1419.6,954.9 1425.9,950.8 1431.4,945.6 1445.7,953.2 1434.1,927.7
		1447.9,934.1 1462.3,929.1 1448.1,953.8 1453.9,960.6 1468.4,953.2 1470,967.4 1486.1,947 1488.8,961.8 1494.3,975.3 1503.9,953.4
		1510.3,960.7 1518.4,971.8 1522.3,951.6 1528.3,950.4 1543.1,969.8 1538.5,970.4 1533.7,969.3 1540.9,974.8 1570.1,954.5
		1552.9,987.6 1567.7,979.4 1571.7,988.2 1580.4,987.1 1584.2,1002.6 1597.8,971.1 1601.5,1005.6 1610.3,999.6 1617.2,987.8
		1628.5,1004.2 1625.9,967.9 1633.6,971.4 1646.8,981.7 1662,988.9 1653.5,966.4 1647.8,952.9 1666.2,958.3 1679.9,956.4
		1654,939.5 1684.5,939.2 1655.8,929.8 1677,922.1 1656.4,919.4 1673.1,906.7 1658.9,905.6 1653.5,901.6 1657.9,889.6 1645.1,874.7
		1672.3,881.5 1677.2,874.6 1682.1,867 1650.9,857.6 1679.7,850.1 1685.6,840.3 1647.6,844.5 1650.1,838.1 1666.6,821.3
		1674.4,823.6 1655.7,810.7 1661.7,807.4 1680.3,811.2 1668.4,796.1 1694.3,797 1663.5,782.3 1692.5,778.2 1679.1,771.1
		1678.9,764.2 1684.6,763.9 1674.1,739 1691.1,757.5 1704.2,761.7 1696.3,740 1711.8,744.1 1696.9,724.8 1723.4,730.8 1699.1,714.3
		1733.6,714.5 1729.6,704.8 1713.2,697.8 1716.4,690 1712.5,683.7 1723.4,669.5 1716.1,663.6 1694.6,671.3 1699.9,656.1
		1695.4,649.1 1675.3,667.6 1686.4,630.4 1673.4,640 1665.1,641.1 1655.9,652.4 1650.9,637.2 1643.7,639.9 1636.9,641.4
		1633.2,657.2 1622.4,640.7 1613.6,638.5 1614.3,656 1597.5,642.3 1610.9,670.6 	"/>
</g>
<use xlink:href="#Impressionism"  width="64.7" height="51.1" x="-32.4" y="-25.6" transform="matrix(0.4076 -2.6703 -2.6139 -0.3989 1449.2311 842.5646)" style="overflow:visible;"/>
<use xlink:href="#Impressionism"  width="64.7" height="51.1" x="-32.4" y="-25.6" transform="matrix(0.4076 -2.6703 -2.6139 -0.3989 1543.5088 747.0312)" style="overflow:visible;"/>
<use xlink:href="#Red_Rose"  width="68.2" height="60.1" x="-34.1" y="-30.1" transform="matrix(9.400655e-02 -0.6159 -0.597 -9.112365e-02 1416.3728 750.7844)" style="overflow:visible;"/>
<use xlink:href="#Red_Rose"  width="68.2" height="60.1" x="-34.1" y="-30.1" transform="matrix(9.400655e-02 -0.6159 -0.597 -9.112365e-02 1501.1383 686.8587)" style="overflow:visible;"/>
<use xlink:href="#Red_Rose"  width="68.2" height="60.1" x="-34.1" y="-30.1" transform="matrix(9.400655e-02 -0.6159 -0.597 -9.112365e-02 1580.8938 691.5931)" style="overflow:visible;"/>
<use xlink:href="#Red_Rose"  width="68.2" height="60.1" x="-34.1" y="-30.1" transform="matrix(9.400655e-02 -0.6159 -0.597 -9.112365e-02 1517.9385 848.108)" style="overflow:visible;"/>
<use xlink:href="#Red_Rose"  width="68.2" height="60.1" x="-34.1" y="-30.1" transform="matrix(9.400655e-02 -0.6159 -0.597 -9.112365e-02 1436.1592 871.9918)" style="overflow:visible;"/>
<use xlink:href="#Red_Rose"  width="68.2" height="60.1" x="-34.1" y="-30.1" transform="matrix(9.400655e-02 -0.6159 -0.597 -9.112365e-02 1528.1259 745.5258)" style="overflow:visible;"/>
<use xlink:href="#Red_Rose"  width="68.2" height="60.1" x="-34.1" y="-30.1" transform="matrix(9.400655e-02 -0.6159 -0.597 -9.112365e-02 1456.9093 797.4691)" style="overflow:visible;"/>
<use xlink:href="#Red_Rose"  width="68.2" height="60.1" x="-34.1" y="-30.1" transform="matrix(9.400655e-02 -0.6159 -0.597 -9.112365e-02 1437.0168 918.2424)" style="overflow:visible;"/>
<g>
	<polygon class="st62" points="314,812 321.7,809.9 318,799.4 319.3,791.4 333.8,784.9 309.4,775.5 312.8,768.9 313.6,761.9
		322.6,752.1 301.1,752.5 318.8,736.3 290.7,745.3 309.6,722.9 302.1,718.9 304.9,703.1 280.1,723.6 285.5,700.6 276.2,701.4
		270.1,694.5 262.2,691.5 251.1,718.8 245.5,710 263.2,699 240.2,694.9 247.2,689.7 245.1,683.5 242.6,676.5 262.6,665.4
		235.5,664.1 229.3,659.5 251.9,640.5 249.4,631.4 229.7,635.7 227.3,627.7 211,635.4 210.8,624.6 203.7,623.2 201.4,611.3
		191.6,617.2 186,610.5 180.4,592.9 171.5,606.1 165.7,627.3 159.7,627.3 147.6,609.1 149.5,633.4 134.1,617.8 135.5,633.1
		122.5,640.9 107.4,636.1 107.1,624.5 105.5,610.5 95.3,615.3 88.3,612.9 79.4,626.6 73.5,619.9 65,591.6 50.5,625.8 50.4,607.1
		51.5,598.4 61.6,581.5 58.2,572.1 42.6,575.8 34.8,572.8 35.1,556.2 20.9,565.5 16.8,552.6 4.3,569.4 -1,552.5 -9.5,566.6
		-16.3,567.5 -20.7,580.2 -33.3,558.2 -41.1,560.1 -45.8,568.6 -47.6,579.4 -44.9,593.3 -53.2,592.8 -56.6,597.8 -62.6,601
		-78.1,599.8 -79.7,607.4 -80,615.1 -96.9,619.1 -68.8,630.6 -85.4,636.5 -68.9,642.3 -97.6,653.9 -97.2,662.9 -79.9,665.5
		-88.2,678.2 -61.1,670.7 -68.9,684.8 -73.3,699.6 -51,686.4 -50.3,696.7 -56.2,702.9 -43,713 -47.4,717.4 -72.3,708.6 -79.7,714.5
		-82.6,723 -83.4,732 -48.1,747.5 -88.7,748.7 -72.8,757.5 -78.9,766 -73.1,773.4 -85.4,785.7 -48.5,780.1 -78.2,803.5 -67.6,807.7
		-53,806.1 -71.2,794.9 -49.7,828 -58.4,827.9 -75.9,823.7 -93.6,823 -74.5,840.4 -62.6,850.9 -83.3,852.2 -96.5,858.2 -64,866.5
		-96.1,875 -63.3,877.2 -84.6,889.3 -62.1,888.3 -78.9,903.6 -63.7,902.7 -57.9,906.2 -62.5,919.5 -43.7,908.2 -56.1,936.2
		-50.2,942.6 -43.9,949.5 -25.5,919.1 -26.4,951.5 -18.8,960.8 -9.5,920.1 -4,925.2 5.9,948.7 16.7,958 14.5,928.2 21.2,927.8
		36.8,940.8 31.8,920.9 54.8,936.6 42.2,901.3 45.9,933.7 57.4,922.4 63.8,924.9 69.8,935.4 77.5,903.5 85.2,929.6 95,940
		96.9,915.2 108.8,927.4 104.3,901.4 124.7,922.6 112.1,893.4 128.8,921.6 126.9,918.5 142.8,907.8 147.2,915.5 154.8,916.3
		158.5,935.2 167.8,933.2 176.5,910.1 185.1,925.5 194.2,926.9 193.5,897.1 202.4,934 206.5,923.1 214,926.6 228.7,921.6 223.3,938
		231,939.7 237.7,942.2 250.2,929.9 249.6,951.3 255.8,958.3 265.2,942.1 271.5,964.7 276.9,931 289.3,966.1 295.2,954.7
		299.2,943.4 310.1,948.6 317,944.6 326.2,943.1 326.5,931.5 313.9,911.3 327.3,913.8 325.9,905.6 351.2,909.5 347.6,899.6
		338.2,889.8 345.6,883.8 351.4,876.5 352.9,868.8 323.8,866.5 331.1,859.2 326.5,854.8 344,839.7 339.4,833.5 339,824.3
		313.5,837.2 312,830.7 325.4,802.7 	"/>
</g>
<use xlink:href="#Impressionism"  width="64.7" height="51.1" x="-32.4" y="-25.6" transform="matrix(3.3061 0 0 -3.4233 64.0194 714.4815)" style="overflow:visible;"/>
<use xlink:href="#Impressionism"  width="64.7" height="51.1" x="-32.4" y="-25.6" transform="matrix(3.3061 0 0 -3.4233 197.0194 816.4815)" style="overflow:visible;"/>
<use xlink:href="#Red_Rose"  width="68.2" height="60.1" x="-34.1" y="-30.1" transform="matrix(0.7626 0 0 -0.7819 169.0002 654.4996)" style="overflow:visible;"/>
<use xlink:href="#Red_Rose"  width="68.2" height="60.1" x="-34.1" y="-30.1" transform="matrix(0.7626 0 0 -0.7819 262.0002 750.4996)" style="overflow:visible;"/>
<use xlink:href="#Red_Rose"  width="68.2" height="60.1" x="-34.1" y="-30.1" transform="matrix(0.7626 0 0 -0.7819 271.0002 853.4996)" style="overflow:visible;"/>
<use xlink:href="#Red_Rose"  width="68.2" height="60.1" x="-34.1" y="-30.1" transform="matrix(0.7626 0 0 -0.7819 70.0002 803.4996)" style="overflow:visible;"/>
<use xlink:href="#Red_Rose"  width="68.2" height="60.1" x="-34.1" y="-30.1" transform="matrix(0.7626 0 0 -0.7819 26.0002 703.4996)" style="overflow:visible;"/>
<use xlink:href="#Red_Rose"  width="68.2" height="60.1" x="-34.1" y="-30.1" transform="matrix(0.7626 0 0 -0.7819 196.0002 796.4996)" style="overflow:visible;"/>
<use xlink:href="#Red_Rose"  width="68.2" height="60.1" x="-34.1" y="-30.1" transform="matrix(0.7626 0 0 -0.7819 120.0002 715.4996)" style="overflow:visible;"/>
<use xlink:href="#Red_Rose"  width="68.2" height="60.1" x="-34.1" y="-30.1" transform="matrix(0.7626 0 0 -0.7819 36.0002 620.4996)" style="overflow:visible;"/>
</svg>
