<svg id="spritsheet" xmlns="http://www.w3.org/2000/svg" xmlns:xlink="http://www.w3.org/1999/xlink" width="2800" height="500" viewBox="0 0 2800 500"><defs><style>.cls-1,.cls-2{fill:none;}.cls-1{stroke:#1d1d1b;stroke-width:0.3px;}.cls-3{fill:#876430;}.cls-4{fill:#937144;}.cls-5{fill:#a3804a;}.cls-6{fill:#a07c4b;}.cls-7{fill:#a07735;}.cls-8{fill:#996f37;}.cls-9{fill:#f286d4;}.cls-10{fill:#dd3ec0;}</style><symbol id="Deleted_Symbol" data-name="Deleted Symbol" viewBox="0 0 60.2 24.43"><line class="cls-1" x1="60.11" y1="6" x2="58.11" y2="7.5"/><line class="cls-1" x1="46.94" y1="16.5" x2="42.69" y2="15.75"/><line class="cls-1" x1="56.44" y1="11.08" x2="53.44" y2="11.08"/><line class="cls-1" x1="51.16" y1="19.6" x2="52.27" y2="16.64"/><line class="cls-1" x1="34.68" y1="2.64" x2="33.03" y2="0.08"/><line class="cls-1" x1="20.23" y1="23.05" x2="22.09" y2="20.37"/><line class="cls-1" x1="48.86" y1="6.41" x2="46.86" y2="9.66"/><line class="cls-1" x1="0.11" y1="13.33" x2="2.36" y2="10.83"/><line class="cls-1" x1="9.61" y1="14.5" x2="13.61" y2="12"/><line class="cls-1" x1="8.28" y1="18.17" x2="6.28" y2="16.92"/><line class="cls-1" x1="22.98" y1="7.37" x2="20.23" y2="5.12"/><line class="cls-1" x1="35.19" y1="17.08" x2="33.19" y2="15.83"/><line class="cls-1" x1="23.78" y1="17.68" x2="26.83" y2="17.81"/><line class="cls-1" x1="26.03" y1="12.47" x2="28.42" y2="14.29"/><line class="cls-1" x1="33.17" y1="8.48" x2="34.29" y2="11.54"/><line class="cls-1" x1="27.69" y1="3.75" x2="24.44" y2="2.75"/><line class="cls-1" x1="42.07" y1="10.12" x2="39.32" y2="8.37"/><line class="cls-1" x1="41.94" y1="4.75" x2="39.94" y2="6.25"/><line class="cls-1" x1="9.86" y1="5.5" x2="10.36" y2="8.75"/><line class="cls-1" x1="17.86" y1="12" x2="21.36" y2="11.25"/><line class="cls-1" x1="30.44" y1="24.42" x2="30.55" y2="21.42"/><line class="cls-1" x1="14.41" y1="19.82" x2="12.98" y2="17.77"/></symbol><symbol id="Dashes" data-name="Dashes" viewBox="0 0 60.19 24.41"><use width="60.2" height="24.42" xlink:href="#Deleted_Symbol"/></symbol></defs><title>spritesheetudenbaggrundsfarve</title><rect class="cls-2" width="350" height="500"/><polygon class="cls-3" points="53.11 291.38 45.81 291.97 38.31 292.45 30.88 291.21 24.2 287.61 17.16 285.24 12.44 279.55 9.03 273.28 10.43 279.9 12.4 286.61 16.1 292.55 19.39 298.87 25.68 302.42 30.21 308.11 37.33 309.59 43.58 312.68 50.39 314.15 58.07 314.67 65.54 314.49 67.27 308.95 64.48 301.74 58.8 296.4 53.11 291.38"/><polygon class="cls-4" points="189.67 411.35 197.54 408.82 205.56 407.22 213 410.83 217.71 417.51 214.3 423.61 208.1 427.31 201.19 430.35 193.58 430.42 186.37 433.28 178.76 432.31 171.28 433.41 163.8 432.33 156.1 432.97 151.69 428.49 155.88 420.6 165 419.25 166.62 414.46 165.07 407.59 162.26 401.1 160.81 394.21 158.84 388.01 164.96 386.6 171.21 384.6 177.53 382.9 183.6 383.59 184.46 390.16 187.26 396.94 189.61 403.85 189.67 411.35"/><path d="M216.46,416.47s-19.59-5.55-17.33,0"/><path d="M207.7,425.22s-19.58-5.54-17.33,0"/><polygon class="cls-4" points="103.65 400.59 110.34 398.76 117.07 397.52 123.2 400.77 127.22 406.28 127.29 413.06 125.53 419.56 119.77 424.32 112.18 425.04 104.91 427.8 97.31 426.5 89.72 427.01 82.32 425.29 74.58 425.28 68.03 421.1 63.15 415.8 66.69 410.57 72.52 407.91 78.37 408.87 80.26 402.46 81.15 395.14 81.47 387.72 80.71 380.34 79.32 373.04 78.76 364.61 87.65 365.77 96.01 365.29 104.4 363.26 105.31 370.85 103.11 378.24 105.28 385.66 104.64 393.07 103.65 400.59"/><path d="M127.8,411.26s-17.28-10-16.29-2.59"/><path d="M117.79,421.15s-17.28-10-16.29-2.59"/><polygon class="cls-5" points="240.72 317.74 243.48 325.13 240.49 332.1 236.7 338.54 233.88 344.97 234.26 352.83 230.57 359.06 226.7 365.14 219.54 368.58 214.5 373.33 211.38 380.17 208.1 387.57 202.07 391.81 193.36 391.24 187.81 395.92 180.37 396.37 173.43 397.41 167.33 404.17 159.75 406.16 151.78 404.45 144.13 404.7 136.79 406.67 129.7 404.36 123.02 400.94 115.87 400.25 108.92 398.47 100.48 399.81 93.57 396.86 88.5 390.8 84.17 384.34 79.06 379.4 74.09 374.4 67.32 370.92 60.08 367.19 59.49 358.8 52.14 354.37 52.51 346.15 48.43 339.76 50.95 331.76 45.1 325.22 47.87 317.74 51.23 310.81 47.22 303.04 49.15 295.91 53.78 289.8 57.34 283.6 61.23 277.69 61.88 269.55 68.87 265.85 73.76 260.74 79.46 256.54 81.43 247.42 89.13 245.67 94.96 241.22 101.69 238.4 109.13 237.58 115.13 232.59 123.3 235.87 130.01 233.39 137.12 233.73 144.13 232.67 151.56 227.42 158.21 233.66 165.51 233.16 172.21 235.83 178.86 238.33 186.56 238.4 191.52 244.56 198.01 247.43 206.64 247.67 208.64 256.71 215.46 259.79 223.55 262.36 223.6 271.53 230.72 275.51 234.97 281.66 234.04 289.96 238.48 296.09 238.19 303.56 240.32 310.51 240.72 317.74"/><polygon class="cls-5" points="206.34 412.15 214.35 410.69 222.17 408.52 230.27 410.9 233.46 418.59 230.93 423.89 225.22 429.14 217.5 429.7 210.06 430.76 202.57 431.5 195.13 433.33 187.54 432.77 179.91 433.95 172.71 430.68 167.11 428.31 172.41 421.41 180.87 422 182.32 415.31 181.74 408.48 179.43 402.07 175.89 396.13 174.34 388.96 181.12 388.17 187.82 388.21 193.93 384.8 200.44 385.15 201.89 391.69 204.5 398.23 205.46 405.13 206.34 412.15"/><path d="M233.44,417.13s-19.87-5.32-17.59,0"/><path d="M224.56,425.53s-19.88-5.32-17.6,0"/><polygon class="cls-4" points="260.99 188.94 256.53 183.97 255.03 176.32 249.87 171.41 244.02 167.35 238 163.76 233.16 158.09 226.43 155.51 218.76 157.05 212.25 154.64 205.26 153.49 198.28 154.5 191.33 155.95 184.8 158.67 179.52 163.55 173.75 167.31 167.49 170.89 164.43 177.44 161.54 183.7 158.03 189.6 157.19 196.47 152.81 202.64 154.16 209.71 155.72 216.31 156.47 223.25 162.51 227.37 169.91 225.24 177.32 224.67 184.93 225.73 191.65 222.07 197.48 218.44 202.27 213.62 203.15 205.32 208.22 211.79 213.89 215.78 219.48 220.13 227.05 219.49 233.41 221.01 241 220.92 246.21 214.96 250.85 208.88 255.63 202.91 256.72 194.9 260.99 188.94"/><polygon class="cls-6" points="334.39 279.38 339.23 286.68 336.46 293.64 332.89 300.14 336.54 308.63 333.2 315.29 329.09 321.45 323.54 326.59 320.51 333.13 317.12 339.63 310.7 343.5 304.04 346.66 301.52 354.85 294.78 357.82 289.4 363.05 281.44 363.07 276.05 369.2 267.81 367.08 261.66 373.77 253.57 367.62 246.57 372.49 239.53 369.26 232.52 368.56 225.23 368.69 218.35 366.65 210.94 365.8 206.19 359.07 197.29 360.14 192.56 354.09 186.52 350.02 179.53 346.71 177.64 338.55 170.56 334.85 168.69 327.34 166.63 320.32 163.88 313.81 157.6 308.42 159.8 300.32 157.13 293.62 155.68 286.57 154.94 279.38 155.52 272.17 153.13 264.51 155.6 257.44 156.71 250.05 158.87 242.89 163.62 236.91 170.63 232.59 171.94 224.89 178.62 221.03 183.55 216 186.79 209.04 190.8 202.29 200.01 202.97 205.75 198.83 211.67 194.69 217.79 190.4 225.95 193.01 232.41 189.54 239.38 187.58 246.57 188.79 253.58 189.84 261.18 186.71 267.59 191.36 275.63 189.54 282.64 191.91 288.61 196.49 292.62 203.79 299.68 205.89 306.76 208.58 308.89 216.7 316.1 219.7 321.88 224.41 324.48 231.4 326.6 238.38 334.19 242.93 334.42 250.69 335.96 257.81 339.49 264.6 337.45 272.19 334.39 279.38"/><polygon class="cls-7" points="240.94 199.29 236.48 194.22 235.39 186.29 230.34 181.17 224.57 176.85 218.68 172.91 214.31 166.72 207.75 163.56 199.79 164.6 193.53 161.35 186.66 159.32 179.52 159.55 172.37 160.23 165.5 162.33 159.58 166.82 153.21 169.94 146.28 172.69 142.3 179.02 138.47 185.01 133.96 190.47 132.06 197.36 126.39 202.81 126.43 210.26 126.35 217.35 124.2 224.38 124.53 231.7 129.1 237.45 134.13 240.11 141.38 241.86 148.43 239.44 155.41 238.34 162.51 238.35 168.79 235.42 175.95 233.12 179.32 226.34 179.39 220.95 185.44 222.82 190.7 228.08 195.75 234.4 203.44 236.13 211.15 236.43 218.68 234.26 221.82 227.31 229.41 224.71 233.06 218.55 237.12 212.72 238.3 205.41 240.94 199.29"/><ellipse cx="289.31" cy="241.91" rx="6.52" ry="19.39"/><polygon points="288.02 230.01 277.36 223.79 278.08 222.52 288.75 228.74 288.02 230.01"/><rect x="274.02" y="230.57" width="12.32" height="1.46"/><polygon points="287.96 228.13 281.21 217.72 282.43 216.92 289.17 227.33 287.96 228.13"/><ellipse cx="306.78" cy="239.91" rx="6.52" ry="19.39"/><polygon points="318.75 221.35 309.37 229.41 308.43 228.3 317.81 220.24 318.75 221.35"/><rect x="309.16" y="229.3" width="12.32" height="1.46"/><polygon points="306.85 225.93 311.76 214.53 313.09 215.11 308.18 226.52 306.85 225.93"/><path d="M330.7,295.09s-18.23,62.35-50.25,2.94C280.45,298,312.28,323,330.7,295.09Z"/><path class="cls-8" d="M305.77,269.35s-.19,35.69-25.27,28.34c-.05,0-.08,0-.05.08,2.23,2.66,29.88,34.39,50.25-3.75,0,0,0-.1,0-.08C328.81,294.84,307.26,304.63,305.77,269.35Z"/><ellipse class="cls-9" cx="318.41" cy="326.61" rx="7.11" ry="12.04" transform="translate(-98.16 140.8) rotate(-21.69)"/><path class="cls-10" d="M313.55,318.56s12.35,12.6,7.63,13.11"/><path class="cls-9" d="M319.66,316.65s-12.54-7.54-26.28,0C293.38,316.65,306.82,332.49,319.66,316.65Z"/><use width="60.19" height="24.41" transform="translate(294.36 295.09) scale(0.4 0.41)" xlink:href="#Dashes"/><ellipse cx="305.58" cy="271.97" rx="6.59" ry="19.2" transform="translate(22.19 566.98) rotate(-87.82)"/><polygon class="cls-5" points="117.75 413.29 124.51 412.9 130.93 410.85 137.77 411.6 142.01 417.05 144.42 422.67 143.49 429.16 136.27 430.43 129.38 431.45 122.41 431.96 115.42 433.56 108.38 432.72 101.25 433.82 94.47 430.64 87.36 430.87 80.34 429.82 76.75 426.04 82.27 419.22 90.8 420.19 93.4 413.97 91.09 407.43 90.42 400.66 89.28 393.94 88.14 388.35 94.28 385.63 101.15 386.78 107.92 386.19 115.3 384.76 115.93 392.36 116.95 399.26 116.17 406.35 117.75 413.29"/><path d="M145,421.06s-19.81-7.35-18-1.81"/><path d="M135.07,428.53s-19.81-7.36-18-1.81"/><rect class="cls-2" x="349" width="350" height="500"/><polygon class="cls-3" points="405.11 291.38 397.81 291.97 390.31 292.45 382.88 291.21 376.2 287.61 369.16 285.24 364.44 279.55 361.03 273.28 362.43 279.9 364.4 286.61 368.1 292.55 371.39 298.87 377.68 302.42 382.21 308.11 389.33 309.59 395.57 312.68 402.39 314.15 410.07 314.67 417.54 314.49 419.27 308.95 416.48 301.74 410.8 296.4 405.11 291.38"/><polygon class="cls-4" points="541.67 411.35 549.54 408.82 557.55 407.22 565 410.83 569.71 417.51 566.3 423.61 560.1 427.31 553.19 430.35 545.58 430.42 538.37 433.28 530.76 432.31 523.28 433.41 515.8 432.33 508.1 432.97 503.69 428.49 507.88 420.6 517 419.25 518.62 414.46 517.08 407.59 514.26 401.1 512.81 394.21 510.84 388.01 516.96 386.6 523.21 384.6 529.52 382.9 535.6 383.59 536.46 390.16 539.26 396.94 541.61 403.85 541.67 411.35"/><path d="M568.46,416.47s-19.59-5.55-17.33,0"/><path d="M559.7,425.22s-19.58-5.54-17.33,0"/><polygon class="cls-4" points="455.65 400.59 462.34 398.76 469.07 397.52 475.2 400.77 479.22 406.28 479.29 413.06 477.53 419.56 471.76 424.32 464.18 425.04 456.91 427.8 449.31 426.5 441.72 427.01 434.32 425.29 426.58 425.28 420.03 421.1 415.15 415.8 418.69 410.57 424.52 407.91 430.37 408.87 432.26 402.46 433.15 395.14 433.48 387.72 432.71 380.34 431.32 373.04 430.76 364.61 439.65 365.77 448.01 365.29 456.4 363.26 457.31 370.85 455.11 378.24 457.28 385.66 456.64 393.07 455.65 400.59"/><path d="M479.8,411.26s-17.28-10-16.29-2.59"/><path d="M469.79,421.15s-17.28-10-16.29-2.59"/><polygon class="cls-5" points="592.72 317.74 595.48 325.13 592.49 332.1 588.7 338.54 585.88 344.97 586.26 352.83 582.57 359.06 578.7 365.14 571.54 368.58 566.5 373.33 563.38 380.17 560.1 387.57 554.08 391.81 545.36 391.24 539.82 395.92 532.37 396.37 525.43 397.41 519.33 404.17 511.75 406.16 503.77 404.45 496.13 404.7 488.79 406.67 481.7 404.36 475.02 400.94 467.87 400.25 460.92 398.47 452.48 399.81 445.57 396.86 440.5 390.8 436.17 384.34 431.06 379.4 426.09 374.4 419.32 370.92 412.08 367.19 411.49 358.8 404.14 354.37 404.51 346.15 400.43 339.76 402.95 331.76 397.1 325.22 399.87 317.74 403.23 310.81 399.22 303.04 401.15 295.91 405.79 289.8 409.35 283.6 413.23 277.69 413.88 269.55 420.87 265.85 425.76 260.74 431.46 256.54 433.43 247.42 441.13 245.67 446.96 241.22 453.69 238.4 461.13 237.58 467.13 232.59 475.3 235.87 482.01 233.39 489.12 233.73 496.13 232.67 503.56 227.42 510.21 233.66 517.51 233.16 524.21 235.83 530.86 238.33 538.56 238.4 543.52 244.56 550.01 247.43 558.64 247.67 560.64 256.71 567.46 259.79 575.55 262.36 575.6 271.53 582.72 275.51 586.97 281.66 586.04 289.96 590.48 296.09 590.19 303.56 592.32 310.51 592.72 317.74"/><polygon class="cls-5" points="546.47 410.49 551.61 404.12 557.91 400.9 564.86 399.82 571.23 402.75 575.64 408.09 578.83 414.93 574.43 421.17 569.08 426.04 563.67 430.89 556.95 433.76 550.53 436.98 544.8 441.83 537.93 444.3 530.64 445.22 523.69 447.69 518.98 444.23 518.61 437.7 522.29 432.84 527.55 429.74 526.17 423.64 523.64 416.57 519.24 410.52 515.92 403.75 509.74 399 506.36 392.09 512.47 389.1 516.77 383.53 523.01 380.83 528.95 376.23 531.29 384.31 537.15 389.53 539.6 396.7 542.39 403.6 546.47 410.49"/><path d="M574.78,406.54s-21.14.28-16.46,6.22"/><path d="M570.49,420.33s-21.14.28-16.46,6.22"/><polygon class="cls-4" points="612.99 188.94 608.53 183.97 607.03 176.32 601.87 171.41 596.02 167.35 590 163.76 585.16 158.09 578.43 155.51 570.76 157.05 564.25 154.64 557.26 153.49 550.28 154.5 543.33 155.95 536.8 158.67 531.52 163.55 525.75 167.31 519.49 170.89 516.43 177.44 513.54 183.7 510.02 189.6 509.19 196.47 504.81 202.64 506.16 209.71 507.72 216.31 508.47 223.25 514.51 227.37 521.91 225.24 529.32 224.67 536.93 225.73 543.65 222.07 549.48 218.44 554.27 213.62 555.15 205.32 560.22 211.79 565.89 215.78 571.48 220.13 579.05 219.49 585.41 221.01 593 220.92 598.21 214.96 602.85 208.88 607.63 202.91 608.72 194.9 612.99 188.94"/><polygon class="cls-6" points="686.39 279.38 691.23 286.68 688.46 293.64 684.89 300.14 688.53 308.63 685.2 315.29 681.09 321.45 675.54 326.59 672.51 333.13 669.12 339.63 662.7 343.5 656.04 346.66 653.52 354.85 646.78 357.82 641.4 363.05 633.45 363.07 628.05 369.2 619.81 367.08 613.66 373.77 605.58 367.62 598.57 372.49 591.53 369.26 584.52 368.56 577.23 368.69 570.35 366.65 562.94 365.8 558.19 359.07 549.29 360.14 544.55 354.09 538.52 350.02 531.53 346.71 529.64 338.55 522.56 334.85 520.69 327.34 518.63 320.32 515.88 313.81 509.6 308.42 511.8 300.32 509.13 293.62 507.68 286.57 506.94 279.38 507.52 272.17 505.13 264.51 507.6 257.44 508.7 250.05 510.87 242.89 515.62 236.91 522.63 232.59 523.94 224.89 530.62 221.03 535.55 216 538.79 209.04 542.8 202.29 552.01 202.97 557.75 198.83 563.67 194.69 569.79 190.4 577.95 193.01 584.41 189.54 591.38 187.58 598.57 188.79 605.58 189.84 613.18 186.71 619.59 191.36 627.63 189.54 634.64 191.91 640.61 196.49 644.62 203.79 651.68 205.89 658.76 208.58 660.89 216.7 668.1 219.7 673.88 224.41 676.48 231.4 678.6 238.38 686.19 242.93 686.42 250.69 687.96 257.81 691.49 264.6 689.45 272.19 686.39 279.38"/><polygon class="cls-7" points="592.94 199.29 588.48 194.22 587.39 186.29 582.34 181.17 576.57 176.85 570.68 172.91 566.31 166.72 559.75 163.56 551.79 164.6 545.53 161.35 538.66 159.32 531.52 159.55 524.37 160.23 517.5 162.33 511.58 166.82 505.2 169.94 498.27 172.69 494.3 179.02 490.47 185.01 485.96 190.47 484.06 197.36 478.39 202.81 478.43 210.26 478.35 217.35 476.2 224.38 476.53 231.7 481.1 237.45 486.13 240.11 493.38 241.86 500.43 239.44 507.41 238.34 514.51 238.35 520.79 235.42 527.95 233.12 531.32 226.34 531.39 220.95 537.44 222.82 542.7 228.08 547.75 234.4 555.44 236.13 563.15 236.43 570.68 234.26 573.83 227.31 581.41 224.71 585.06 218.55 589.12 212.72 590.3 205.41 592.94 199.29"/><ellipse cx="641.31" cy="241.91" rx="6.52" ry="19.39"/><polygon points="640.02 230.01 629.36 223.79 630.08 222.52 640.75 228.74 640.02 230.01"/><rect x="626.02" y="230.57" width="12.32" height="1.46"/><polygon points="639.96 228.13 633.22 217.72 634.43 216.92 641.17 227.33 639.96 228.13"/><ellipse cx="658.78" cy="239.91" rx="6.52" ry="19.39"/><polygon points="670.75 221.35 661.37 229.41 660.43 228.3 669.81 220.24 670.75 221.35"/><rect x="661.16" y="229.3" width="12.32" height="1.46"/><polygon points="658.85 225.93 663.76 214.53 665.09 215.11 660.18 226.52 658.85 225.93"/><path d="M682.7,295.09s-18.23,62.35-50.25,2.94C632.45,298,664.28,323,682.7,295.09Z"/><path class="cls-8" d="M657.77,269.35s-.19,35.69-25.27,28.34c0,0-.08,0,0,.08,2.23,2.66,29.88,34.39,50.25-3.75,0,0,0-.1,0-.08C680.81,294.84,659.26,304.63,657.77,269.35Z"/><ellipse class="cls-9" cx="670.41" cy="326.61" rx="7.11" ry="12.04" transform="translate(-73.24 270.9) rotate(-21.69)"/><path class="cls-10" d="M665.55,318.56s12.35,12.6,7.63,13.11"/><path class="cls-9" d="M671.66,316.65s-12.54-7.54-26.28,0C645.38,316.65,658.82,332.49,671.66,316.65Z"/><use width="60.19" height="24.41" transform="translate(646.36 295.09) scale(0.4 0.41)" xlink:href="#Dashes"/><ellipse cx="657.58" cy="271.97" rx="6.59" ry="19.2" transform="translate(360.8 918.73) rotate(-87.82)"/><polygon class="cls-5" points="480.15 413.66 485.66 407.81 492.86 406.56 499.35 406.22 505.59 408.67 509.41 414.47 510.56 420.77 507.66 427.54 502.24 432.83 494.98 435.27 489.13 440.16 482.01 442.53 474.53 443.6 467.93 447.47 460.72 449.68 453.12 448.19 447.66 445.64 449.25 439.25 452.93 434.35 458.62 430.68 459.3 424.99 454.61 418.75 452.26 411.43 447.89 405.15 445.62 397.68 441.73 392.54 446.38 387.87 452.23 384.25 458.82 382 464.99 378.04 468.21 385.35 470.1 392.83 474.91 398.98 477.67 406.08 480.15 413.66"/><path d="M509.24,412.46s-21.67-1.6-17.43,4.85"/><path d="M503.55,426.1s-21.67-1.6-17.43,4.85"/><rect class="cls-2" x="694" width="350" height="500"/><polygon class="cls-3" points="747.11 291.38 739.81 291.97 732.31 292.45 724.88 291.21 718.2 287.61 711.16 285.24 706.44 279.55 703.03 273.28 704.43 279.9 706.4 286.61 710.1 292.55 713.39 298.87 719.68 302.42 724.21 308.11 731.33 309.59 737.58 312.68 744.39 314.15 752.07 314.67 759.54 314.49 761.27 308.95 758.48 301.74 752.8 296.4 747.11 291.38"/><polygon class="cls-4" points="883.67 411.35 891.54 408.82 899.55 407.22 907 410.83 911.71 417.51 908.3 423.61 902.1 427.31 895.19 430.35 887.58 430.42 880.37 433.28 872.76 432.31 865.28 433.41 857.8 432.33 850.1 432.97 845.69 428.49 849.88 420.6 859 419.25 860.62 414.46 859.08 407.59 856.26 401.1 854.81 394.21 852.84 388.01 858.96 386.6 865.21 384.6 871.52 382.9 877.6 383.59 878.46 390.16 881.26 396.94 883.61 403.85 883.67 411.35"/><path d="M910.46,416.47s-19.59-5.55-17.33,0"/><path d="M901.7,425.22s-19.58-5.54-17.33,0"/><polygon class="cls-4" points="797.65 400.59 804.34 398.76 811.07 397.52 817.2 400.77 821.22 406.28 821.29 413.06 819.53 419.56 813.76 424.32 806.18 425.04 798.91 427.8 791.3 426.5 783.72 427.01 776.32 425.29 768.58 425.28 762.03 421.1 757.15 415.8 760.69 410.57 766.52 407.91 772.37 408.87 774.26 402.46 775.15 395.14 775.48 387.72 774.71 380.34 773.32 373.04 772.76 364.61 781.65 365.77 790.01 365.29 798.4 363.26 799.31 370.85 797.11 378.24 799.28 385.66 798.64 393.07 797.65 400.59"/><path d="M821.8,411.26s-17.28-10-16.29-2.59"/><path d="M811.79,421.15s-17.28-10-16.29-2.59"/><polygon class="cls-5" points="934.72 317.74 937.48 325.13 934.49 332.1 930.7 338.54 927.88 344.97 928.26 352.83 924.57 359.06 920.7 365.14 913.54 368.58 908.5 373.33 905.38 380.17 902.1 387.57 896.08 391.81 887.36 391.24 881.82 395.92 874.37 396.37 867.43 397.41 861.33 404.17 853.75 406.16 845.77 404.45 838.13 404.7 830.79 406.67 823.7 404.36 817.02 400.94 809.87 400.25 802.92 398.47 794.48 399.81 787.57 396.86 782.5 390.8 778.17 384.34 773.05 379.4 768.09 374.4 761.32 370.92 754.08 367.19 753.49 358.8 746.14 354.37 746.51 346.15 742.43 339.76 744.95 331.76 739.1 325.22 741.87 317.74 745.23 310.81 741.22 303.04 743.15 295.91 747.78 289.8 751.35 283.6 755.23 277.69 755.88 269.55 762.87 265.85 767.76 260.74 773.46 256.54 775.43 247.42 783.13 245.67 788.96 241.22 795.69 238.4 803.13 237.58 809.13 232.59 817.3 235.87 824.01 233.39 831.12 233.73 838.13 232.67 845.56 227.42 852.21 233.66 859.51 233.16 866.21 235.83 872.86 238.33 880.56 238.4 885.52 244.56 892.01 247.43 900.64 247.67 902.64 256.71 909.46 259.79 917.55 262.36 917.6 271.53 924.72 275.51 928.97 281.66 928.04 289.96 932.48 296.09 932.19 303.56 934.32 310.51 934.72 317.74"/><polygon class="cls-5" points="886.89 427.07 894.94 426.05 901.72 428.06 907.49 432.07 910.08 438.59 909.6 445.5 907.14 452.6 899.68 454.11 892.44 453.95 885.18 453.7 878.33 451.18 871.46 449.08 864 448.55 857.32 445.6 851.39 441.28 844.69 438.22 843.62 432.46 847.9 427.53 853.92 426.5 859.85 427.94 863.1 422.58 866.1 415.7 867.13 408.3 869.35 401.11 868.27 393.41 870.54 386.07 877.03 388.09 883.97 387.14 890.35 389.44 897.79 390.23 893.99 397.68 894.52 405.47 891.39 412.37 888.69 419.3 886.89 427.07"/><path d="M910,443.78s-15.48-14.4-16.19-6.87"/><path d="M897.4,450.79s-15.48-14.4-16.19-6.87"/><polygon class="cls-4" points="956.14 188.9 950.34 184.11 948.11 177.09 942.11 173.14 937.84 167.56 933.08 162.17 926.52 159.32 919.8 157.22 913.09 155.52 906.18 155.79 899.18 152.46 892.38 155.02 886.29 158.77 879.3 159.74 872.45 161.85 868.33 168.02 860.97 170.41 858.73 177.66 853.35 182.51 851.83 189.52 850.25 196.22 850.01 203.06 847.81 209.72 846.72 216.95 851.33 222.68 856.41 225.44 863.97 227.59 871.28 224.06 879 226.21 886 223.1 892.54 219.73 895.72 213.43 897.66 206.35 903.87 209.73 907.69 216.08 915.18 216.67 920.76 220.6 927.31 219.94 932.88 217.87 940.08 214.84 944.32 208.48 949.48 202.82 951.49 195.29 956.14 188.9"/><polygon class="cls-6" points="1028.39 279.38 1033.23 286.68 1030.46 293.64 1026.89 300.14 1030.54 308.63 1027.2 315.29 1023.09 321.45 1017.54 326.59 1014.51 333.13 1011.12 339.63 1004.7 343.5 998.04 346.66 995.52 354.85 988.78 357.82 983.4 363.05 975.45 363.07 970.05 369.2 961.81 367.08 955.66 373.77 947.58 367.62 940.57 372.49 933.53 369.26 926.52 368.56 919.23 368.69 912.35 366.65 904.94 365.8 900.19 359.07 891.29 360.14 886.55 354.09 880.52 350.02 873.53 346.71 871.64 338.55 864.56 334.85 862.69 327.34 860.63 320.32 857.88 313.81 851.6 308.42 853.8 300.32 851.13 293.62 849.68 286.57 848.95 279.38 849.52 272.17 847.13 264.51 849.6 257.44 850.71 250.05 852.87 242.89 857.62 236.91 864.63 232.59 865.94 224.89 872.62 221.03 877.55 216 880.79 209.04 884.8 202.29 894.01 202.97 899.75 198.83 905.67 194.69 911.79 190.4 919.95 193.01 926.41 189.54 933.38 187.58 940.57 188.79 947.58 189.84 955.18 186.71 961.59 191.36 969.63 189.54 976.64 191.91 982.61 196.49 986.62 203.79 993.68 205.89 1000.76 208.58 1002.89 216.7 1010.1 219.7 1015.88 224.41 1018.48 231.4 1020.6 238.38 1028.19 242.93 1028.42 250.69 1029.96 257.81 1033.49 264.6 1031.45 272.19 1028.39 279.38"/><polygon class="cls-7" points="934.94 199.29 930.48 194.22 929.39 186.29 924.34 181.17 918.57 176.85 912.68 172.91 908.31 166.72 901.75 163.56 893.79 164.6 887.53 161.35 880.66 159.32 873.52 159.55 866.37 160.23 859.5 162.33 853.58 166.82 847.21 169.94 840.27 172.69 836.3 179.02 832.47 185.01 827.96 190.47 826.06 197.36 820.39 202.81 820.43 210.26 820.35 217.35 818.2 224.38 818.53 231.7 823.1 237.45 828.13 240.11 835.38 241.86 842.43 239.44 849.41 238.34 856.51 238.35 862.79 235.42 869.95 233.12 873.32 226.34 873.39 220.95 879.44 222.82 884.7 228.08 889.75 234.4 897.44 236.13 905.15 236.43 912.68 234.26 915.83 227.31 923.41 224.71 927.06 218.55 931.12 212.72 932.3 205.41 934.94 199.29"/><ellipse cx="983.31" cy="241.91" rx="6.52" ry="19.39"/><polygon points="982.02 230.01 971.36 223.79 972.08 222.52 982.75 228.74 982.02 230.01"/><rect x="968.02" y="230.57" width="12.32" height="1.46"/><polygon points="981.96 228.13 975.22 217.72 976.43 216.92 983.17 227.33 981.96 228.13"/><ellipse cx="1000.78" cy="239.91" rx="6.52" ry="19.39"/><polygon points="1012.75 221.35 1003.37 229.41 1002.43 228.3 1011.81 220.24 1012.75 221.35"/><rect x="1003.16" y="229.3" width="12.32" height="1.46"/><polygon points="1000.85 225.93 1005.76 214.53 1007.09 215.11 1002.18 226.52 1000.85 225.93"/><path d="M1024.7,295.09s-18.23,62.35-50.25,2.94C974.45,298,1006.28,323,1024.7,295.09Z"/><path class="cls-8" d="M999.77,269.35s-.19,35.69-25.27,28.34c0,0-.08,0,0,.08,2.23,2.66,29.88,34.39,50.25-3.75,0,0,0-.1,0-.08C1022.81,294.84,1001.26,304.63,999.77,269.35Z"/><ellipse class="cls-9" cx="1012.41" cy="326.61" rx="7.11" ry="12.04" transform="translate(-49.03 397.29) rotate(-21.69)"/><path class="cls-10" d="M1007.55,318.56s12.35,12.6,7.63,13.11"/><path class="cls-9" d="M1013.66,316.65s-12.54-7.54-26.28,0C987.38,316.65,1000.82,332.49,1013.66,316.65Z"/><use width="60.19" height="24.41" transform="translate(988.36 295.09) scale(0.4 0.41)" xlink:href="#Dashes"/><ellipse cx="999.58" cy="271.97" rx="6.59" ry="19.2" transform="translate(689.8 1260.48) rotate(-87.82)"/><polygon class="cls-5" points="815.5 427.5 823.56 427.9 829.13 432.67 833.56 437.39 835.74 443.72 833.75 450.36 829.71 455.29 822.68 457.5 815.13 456.79 808.6 452.74 801.06 451.5 794.67 447.57 789.05 442.49 781.8 440.01 775.44 435.94 771.73 429.11 770.14 423.32 776.04 420.41 782.15 420.09 788.67 422 793.44 418.9 795.12 411.26 799.25 404.76 801.19 397.36 805.5 390.82 806.88 384.57 813.45 385.04 819.99 387.15 825.96 390.79 832.98 392.93 829.46 400.12 824.91 406.36 823.39 414.04 819.73 420.73 815.5 427.5"/><path d="M835.22,449s-12.76-17.58-15-10.18"/><path d="M821.13,453.41s-12.77-17.59-15-10.19"/><rect class="cls-2" x="1044" width="350" height="500"/><polygon class="cls-3" points="1097.11 291.38 1089.81 291.97 1082.31 292.45 1074.88 291.21 1068.2 287.61 1061.16 285.24 1056.44 279.55 1053.03 273.28 1054.43 279.9 1056.4 286.61 1060.1 292.55 1063.39 298.87 1069.68 302.42 1074.21 308.11 1081.33 309.59 1087.58 312.68 1094.39 314.15 1102.07 314.67 1109.54 314.49 1111.27 308.95 1108.48 301.74 1102.8 296.4 1097.11 291.38"/><polygon class="cls-4" points="1233.67 411.35 1241.54 408.82 1249.56 407.22 1257 410.83 1261.71 417.51 1258.3 423.61 1252.1 427.31 1245.19 430.35 1237.58 430.42 1230.37 433.28 1222.76 432.31 1215.28 433.41 1207.8 432.33 1200.1 432.97 1195.69 428.49 1199.88 420.6 1209 419.25 1210.62 414.46 1209.08 407.59 1206.26 401.1 1204.81 394.21 1202.84 388.01 1208.96 386.6 1215.21 384.6 1221.53 382.9 1227.6 383.59 1228.46 390.16 1231.26 396.94 1233.61 403.85 1233.67 411.35"/><path d="M1260.46,416.47s-19.59-5.55-17.33,0"/><path d="M1251.7,425.22s-19.58-5.54-17.33,0"/><polygon class="cls-4" points="1147.65 400.59 1154.34 398.76 1161.07 397.52 1167.2 400.77 1171.22 406.28 1171.29 413.06 1169.53 419.56 1163.77 424.32 1156.18 425.04 1148.91 427.8 1141.31 426.5 1133.72 427.01 1126.32 425.29 1118.58 425.28 1112.03 421.1 1107.15 415.8 1110.69 410.57 1116.52 407.91 1122.37 408.87 1124.26 402.46 1125.15 395.14 1125.47 387.72 1124.71 380.34 1123.32 373.04 1122.76 364.61 1131.65 365.77 1140.01 365.29 1148.4 363.26 1149.31 370.85 1147.11 378.24 1149.28 385.66 1148.64 393.07 1147.65 400.59"/><path d="M1171.8,411.26s-17.28-10-16.29-2.59"/><path d="M1161.79,421.15s-17.28-10-16.29-2.59"/><polygon class="cls-5" points="1284.72 317.74 1287.48 325.13 1284.49 332.1 1280.7 338.54 1277.88 344.97 1278.26 352.83 1274.57 359.06 1270.7 365.14 1263.54 368.58 1258.5 373.33 1255.38 380.17 1252.1 387.57 1246.08 391.81 1237.36 391.24 1231.82 395.92 1224.37 396.37 1217.43 397.41 1211.33 404.17 1203.75 406.16 1195.78 404.45 1188.13 404.7 1180.79 406.67 1173.7 404.36 1167.02 400.94 1159.87 400.25 1152.92 398.47 1144.48 399.81 1137.57 396.86 1132.51 390.8 1128.17 384.34 1123.06 379.4 1118.09 374.4 1111.32 370.92 1104.08 367.19 1103.49 358.8 1096.14 354.37 1096.51 346.15 1092.43 339.76 1094.95 331.76 1089.1 325.22 1091.87 317.74 1095.23 310.81 1091.22 303.04 1093.15 295.91 1097.79 289.8 1101.35 283.6 1105.23 277.69 1105.88 269.55 1112.87 265.85 1117.76 260.74 1123.46 256.54 1125.43 247.42 1133.13 245.67 1138.96 241.22 1145.69 238.4 1153.13 237.58 1159.13 232.59 1167.3 235.87 1174.01 233.39 1181.12 233.73 1188.13 232.67 1195.56 227.42 1202.21 233.66 1209.52 233.16 1216.21 235.83 1222.86 238.33 1230.56 238.4 1235.52 244.56 1242.02 247.43 1250.64 247.67 1252.64 256.71 1259.46 259.79 1267.55 262.36 1267.6 271.53 1274.72 275.51 1278.96 281.66 1278.05 289.96 1282.48 296.09 1282.19 303.56 1284.32 310.51 1284.72 317.74"/><polygon class="cls-4" points="1304.99 188.94 1300.53 183.97 1299.03 176.32 1293.87 171.41 1288.02 167.35 1282 163.76 1277.16 158.09 1270.43 155.51 1262.77 157.05 1256.25 154.64 1249.27 153.49 1242.28 154.5 1235.33 155.95 1228.8 158.67 1223.52 163.55 1217.75 167.31 1211.48 170.89 1208.43 177.44 1205.54 183.7 1202.03 189.6 1201.18 196.47 1196.81 202.64 1198.16 209.71 1199.72 216.31 1200.47 223.25 1206.51 227.37 1213.91 225.24 1221.32 224.67 1228.93 225.73 1235.65 222.07 1241.48 218.44 1246.27 213.62 1247.15 205.32 1252.22 211.79 1257.89 215.78 1263.48 220.13 1271.05 219.49 1277.41 221.01 1285 220.92 1290.21 214.96 1294.85 208.88 1299.63 202.91 1300.72 194.9 1304.99 188.94"/><polygon class="cls-6" points="1378.39 279.38 1383.23 286.68 1380.46 293.64 1376.89 300.14 1380.54 308.63 1377.2 315.29 1373.09 321.45 1367.54 326.59 1364.52 333.13 1361.12 339.63 1354.7 343.5 1348.04 346.66 1345.52 354.85 1338.78 357.82 1333.4 363.05 1325.44 363.07 1320.05 369.2 1311.81 367.08 1305.66 373.77 1297.58 367.62 1290.57 372.49 1283.53 369.26 1276.52 368.56 1269.23 368.69 1262.35 366.65 1254.94 365.8 1250.19 359.07 1241.29 360.14 1236.56 354.09 1230.52 350.02 1223.53 346.71 1221.64 338.55 1214.56 334.85 1212.69 327.34 1210.63 320.32 1207.88 313.81 1201.6 308.42 1203.8 300.32 1201.13 293.62 1199.68 286.57 1198.94 279.38 1199.52 272.17 1197.13 264.51 1199.6 257.44 1200.7 250.05 1202.87 242.89 1207.62 236.91 1214.63 232.59 1215.94 224.89 1222.62 221.03 1227.55 216 1230.79 209.04 1234.8 202.29 1244.02 202.97 1249.75 198.83 1255.67 194.69 1261.79 190.4 1269.95 193.01 1276.41 189.54 1283.38 187.58 1290.57 188.79 1297.58 189.84 1305.18 186.71 1311.59 191.36 1319.63 189.54 1326.64 191.91 1332.61 196.49 1336.62 203.79 1343.68 205.89 1350.76 208.58 1352.89 216.7 1360.1 219.7 1365.88 224.41 1368.48 231.4 1370.6 238.38 1378.19 242.93 1378.42 250.69 1379.96 257.81 1383.49 264.6 1381.45 272.19 1378.39 279.38"/><polygon class="cls-7" points="1284.94 199.29 1280.48 194.22 1279.39 186.29 1274.34 181.17 1268.57 176.85 1262.68 172.91 1258.31 166.72 1251.75 163.56 1243.79 164.6 1237.53 161.35 1230.66 159.32 1223.52 159.55 1216.37 160.23 1209.5 162.33 1203.58 166.82 1197.2 169.94 1190.28 172.69 1186.3 179.02 1182.47 185.01 1177.96 190.47 1176.06 197.36 1170.39 202.81 1170.43 210.26 1170.35 217.35 1168.2 224.38 1168.53 231.7 1173.1 237.45 1178.13 240.11 1185.38 241.86 1192.43 239.44 1199.41 238.34 1206.51 238.35 1212.79 235.42 1219.95 233.12 1223.32 226.34 1223.39 220.95 1229.44 222.82 1234.7 228.08 1239.75 234.4 1247.44 236.13 1255.15 236.43 1262.68 234.26 1265.83 227.31 1273.41 224.71 1277.06 218.55 1281.12 212.72 1282.3 205.41 1284.94 199.29"/><ellipse cx="1333.31" cy="241.91" rx="6.52" ry="19.39"/><polygon points="1332.02 230.01 1321.36 223.79 1322.08 222.52 1332.75 228.74 1332.02 230.01"/><rect x="1318.02" y="230.57" width="12.32" height="1.46"/><polygon points="1331.96 228.13 1325.21 217.72 1326.43 216.92 1333.17 227.33 1331.96 228.13"/><ellipse cx="1350.78" cy="239.91" rx="6.52" ry="19.39"/><polygon points="1362.75 221.35 1353.37 229.41 1352.43 228.3 1361.81 220.24 1362.75 221.35"/><rect x="1353.16" y="229.3" width="12.32" height="1.46"/><polygon points="1350.85 225.93 1355.76 214.53 1357.09 215.11 1352.18 226.52 1350.85 225.93"/><path d="M1374.7,295.09s-18.23,62.35-50.25,2.94C1324.45,298,1356.28,323,1374.7,295.09Z"/><path class="cls-8" d="M1349.77,269.35s-.19,35.69-25.27,28.34c0,0-.08,0,0,.08,2.23,2.66,29.88,34.39,50.25-3.75,0,0,0-.1,0-.08C1372.81,294.84,1351.26,304.63,1349.77,269.35Z"/><ellipse class="cls-9" cx="1362.41" cy="326.61" rx="7.11" ry="12.04" transform="translate(-24.25 526.65) rotate(-21.69)"/><path class="cls-10" d="M1357.55,318.56s12.35,12.6,7.63,13.11"/><path class="cls-9" d="M1363.66,316.65s-12.54-7.54-26.28,0C1337.38,316.65,1350.82,332.49,1363.66,316.65Z"/><use width="60.19" height="24.41" transform="translate(1338.36 295.09) scale(0.4 0.41)" xlink:href="#Dashes"/><ellipse cx="1349.58" cy="271.97" rx="6.59" ry="19.2" transform="translate(1026.49 1610.23) rotate(-87.82)"/><polygon class="cls-5" points="1161.94 436.19 1165.44 435.42 1160.81 432.45 1155.64 426.6 1150.04 421.37 1144.31 421.88 1139.29 423.76 1131.96 430.1 1133.34 437.27 1137.16 443.42 1138.83 450.36 1142.78 456.24 1146.08 462.63 1152.26 466.31 1158.89 465.36 1164.77 461.57 1167.96 455.61 1168.43 448.97 1167.27 441.83 1161.94 436.19"/><path d="M1160.63,464.83s3.56-21.43-3.25-17.8"/><path d="M1147.57,457.93s3.55-21.44-3.26-17.8"/><polygon class="cls-5" points="1155.15 430.14 1147.34 431.25 1140.67 426.77 1135.26 427.75 1136.33 422.29 1132.12 415.58 1134.01 408.86 1134.53 402.15 1133.41 395.44 1132.01 388.72 1134.02 382.02 1140.66 382.44 1147.33 381.74 1154.69 381.31 1152.53 388.71 1151.87 395.42 1151.96 402.14 1153.44 408.85 1151.78 415.56 1155.46 422.17 1155.15 430.14"/><polygon class="cls-5" points="1227.94 433.19 1231.44 432.42 1226.81 429.45 1221.64 423.6 1216.04 418.37 1210.31 418.88 1205.29 420.76 1197.96 427.1 1199.34 434.27 1203.16 440.42 1204.83 447.36 1208.78 453.24 1212.08 459.63 1218.26 463.31 1224.89 462.36 1230.77 458.57 1233.96 452.61 1234.43 445.97 1233.27 438.83 1227.94 433.19"/><path d="M1226.63,461.83s3.56-21.43-3.25-17.8"/><path d="M1213.57,454.93s3.55-21.44-3.26-17.8"/><polygon class="cls-5" points="1221.15 427.14 1213.34 428.25 1206.67 423.77 1201.26 424.75 1202.33 419.29 1198.12 412.58 1200.01 405.86 1200.53 399.15 1199.41 392.44 1198.01 385.72 1200.02 379.02 1206.66 379.44 1213.33 378.74 1220.69 378.31 1218.53 385.71 1217.87 392.42 1217.96 399.14 1219.44 405.85 1217.78 412.56 1221.46 419.17 1221.15 427.14"/><rect class="cls-2" x="2447" width="350" height="500"/><polygon class="cls-3" points="2500.11 291.38 2492.81 291.97 2485.31 292.45 2477.88 291.21 2471.2 287.61 2464.16 285.24 2459.44 279.55 2456.03 273.28 2457.43 279.9 2459.4 286.61 2463.1 292.55 2466.39 298.87 2472.68 302.42 2477.21 308.11 2484.33 309.59 2490.57 312.68 2497.39 314.15 2505.07 314.67 2512.54 314.49 2514.27 308.95 2511.48 301.74 2505.8 296.4 2500.11 291.38"/><polygon class="cls-4" points="2564.94 436.19 2568.44 435.42 2563.81 432.45 2558.64 426.6 2553.04 421.37 2547.31 421.88 2542.28 423.76 2534.96 430.1 2536.34 437.27 2540.16 443.42 2541.83 450.36 2545.78 456.24 2549.08 462.63 2555.26 466.31 2561.89 465.36 2567.77 461.57 2570.96 455.61 2571.43 448.97 2570.27 441.83 2564.94 436.19"/><polygon class="cls-4" points="2558.15 430.14 2550.34 431.25 2543.67 426.77 2538.26 427.75 2539.33 422.29 2535.12 415.58 2537.01 408.86 2537.53 402.15 2536.41 395.44 2535.01 388.72 2537.02 382.02 2543.66 382.44 2550.33 381.74 2557.7 381.31 2555.53 388.71 2554.87 395.42 2554.96 402.14 2556.44 408.85 2554.78 415.56 2558.46 422.17 2558.15 430.14"/><polygon class="cls-5" points="2551.62 411.06 2557.22 410.56 2563.65 409.49 2570.39 411.23 2573.49 417.47 2574.14 424.05 2573.24 431.44 2565.91 433.82 2559.17 437.42 2551.54 437.13 2544.03 438.26 2536.44 438.23 2528.79 437.96 2521.54 435.38 2514.85 431.93 2510.35 427.11 2513.92 421.98 2519.4 419.44 2525.57 418.68 2528.4 413.57 2527.75 406.14 2527.59 398.75 2526.5 391.41 2526.59 384 2525.56 375.76 2534.37 376.65 2542.55 373.98 2551.11 374.3 2551.9 381.85 2551.87 389.25 2550.38 396.64 2550.87 404.05 2551.62 411.06"/><path d="M2574.54,422.26s-17.28-10-16.29-2.59"/><path d="M2564.53,432.15s-17.28-10-16.29-2.59"/><polygon class="cls-4" points="2632.94 440.19 2636.44 439.42 2631.81 436.45 2626.64 430.6 2621.04 425.37 2615.31 425.88 2610.28 427.76 2602.96 434.1 2604.34 441.27 2608.16 447.42 2609.83 454.36 2613.78 460.24 2617.08 466.63 2623.26 470.31 2629.89 469.36 2635.77 465.57 2638.96 459.61 2639.43 452.97 2638.27 445.83 2632.94 440.19"/><path d="M2631.63,468.83s3.56-21.43-3.25-17.8"/><path d="M2618.57,461.93s3.55-21.44-3.26-17.8"/><polygon class="cls-4" points="2626.15 434.14 2618.34 435.25 2611.67 430.77 2606.26 431.75 2607.33 426.29 2603.12 419.58 2605.01 412.86 2605.53 406.15 2604.41 399.44 2603.01 392.72 2605.02 386.02 2611.66 386.44 2618.33 385.74 2625.7 385.31 2623.53 392.71 2622.87 399.42 2622.96 406.14 2624.44 412.85 2622.78 419.56 2626.46 426.17 2626.15 434.14"/><polygon class="cls-5" points="2637.62 410.53 2644.23 407.36 2652.28 409.39 2659.08 411.93 2662.9 418.18 2662.57 425.14 2655.29 427.84 2648.03 429.65 2640.78 431.67 2633.38 433.4 2625.78 432.8 2618.28 432.75 2610.76 432.91 2603.21 432.41 2598.76 428.53 2604.19 422.39 2611.63 421.64 2613.64 414.46 2613.11 407.32 2609.19 401.12 2608.16 394.09 2604.86 386.65 2612 386.8 2618.2 384.54 2624.74 384.08 2630.6 383.6 2632.25 389.99 2634.18 396.96 2635.76 403.98 2637.62 410.53"/><path d="M2663.46,416.47s-19.59-5.55-17.33,0"/><path d="M2654.7,425.22s-19.58-5.54-17.33,0"/><polygon class="cls-5" points="2687.72 317.74 2690.48 325.13 2687.49 332.1 2683.7 338.54 2680.88 344.97 2681.26 352.83 2677.57 359.06 2673.7 365.14 2666.54 368.58 2661.5 373.33 2658.38 380.17 2655.1 387.57 2649.07 391.81 2640.36 391.24 2634.82 395.92 2627.37 396.37 2620.43 397.41 2614.33 404.17 2606.75 406.16 2598.78 404.45 2591.13 404.7 2583.79 406.67 2576.7 404.36 2570.02 400.94 2562.87 400.25 2555.92 398.47 2547.48 399.81 2540.57 396.86 2535.51 390.8 2531.17 384.34 2526.05 379.4 2521.09 374.4 2514.32 370.92 2507.08 367.19 2506.49 358.8 2499.14 354.37 2499.51 346.15 2495.43 339.76 2497.95 331.76 2492.1 325.22 2494.87 317.74 2498.23 310.81 2494.22 303.04 2496.15 295.91 2500.78 289.8 2504.34 283.6 2508.23 277.69 2508.88 269.55 2515.87 265.85 2520.76 260.74 2526.46 256.54 2528.43 247.42 2536.13 245.67 2541.96 241.22 2548.69 238.4 2556.13 237.58 2562.13 232.59 2570.3 235.87 2577.01 233.39 2584.12 233.73 2591.13 232.67 2598.56 227.42 2605.21 233.66 2612.51 233.16 2619.21 235.83 2625.86 238.33 2633.56 238.4 2638.52 244.56 2645.01 247.43 2653.64 247.67 2655.64 256.71 2662.46 259.79 2670.55 262.36 2670.6 271.53 2677.72 275.51 2681.97 281.66 2681.05 289.96 2685.48 296.09 2685.19 303.56 2687.32 310.51 2687.72 317.74"/><polygon class="cls-4" points="2707.99 188.94 2703.53 183.97 2702.03 176.32 2696.87 171.41 2691.02 167.35 2685 163.76 2680.16 158.09 2673.43 155.51 2665.76 157.05 2659.25 154.64 2652.26 153.49 2645.28 154.5 2638.33 155.95 2631.8 158.67 2626.52 163.55 2620.75 167.31 2614.49 170.89 2611.43 177.44 2608.54 183.7 2605.03 189.6 2604.18 196.47 2599.81 202.64 2601.16 209.71 2602.72 216.31 2603.47 223.25 2609.51 227.37 2616.91 225.24 2624.32 224.67 2631.93 225.73 2638.65 222.07 2644.48 218.44 2649.27 213.62 2650.15 205.32 2655.22 211.79 2660.89 215.78 2666.48 220.13 2674.05 219.49 2680.41 221.01 2688 220.92 2693.21 214.96 2697.85 208.88 2702.63 202.91 2703.72 194.9 2707.99 188.94"/><polygon class="cls-6" points="2781.39 279.38 2786.23 286.68 2783.46 293.64 2779.89 300.14 2783.53 308.63 2780.2 315.29 2776.09 321.45 2770.54 326.59 2767.51 333.13 2764.12 339.63 2757.7 343.5 2751.04 346.66 2748.52 354.85 2741.78 357.82 2736.41 363.05 2728.45 363.07 2723.05 369.2 2714.81 367.08 2708.66 373.77 2700.57 367.62 2693.57 372.49 2686.53 369.26 2679.52 368.56 2672.23 368.69 2665.35 366.65 2657.94 365.8 2653.19 359.07 2644.29 360.14 2639.55 354.09 2633.52 350.02 2626.53 346.71 2624.64 338.55 2617.56 334.85 2615.69 327.34 2613.64 320.32 2610.88 313.81 2604.6 308.42 2606.8 300.32 2604.13 293.62 2602.68 286.57 2601.95 279.38 2602.52 272.17 2600.13 264.51 2602.6 257.44 2603.7 250.05 2605.87 242.89 2610.62 236.91 2617.63 232.59 2618.94 224.89 2625.62 221.03 2630.55 216 2633.79 209.04 2637.8 202.29 2647.01 202.97 2652.75 198.83 2658.67 194.69 2664.79 190.4 2672.95 193.01 2679.41 189.54 2686.38 187.58 2693.57 188.79 2700.58 189.84 2708.18 186.71 2714.59 191.36 2722.63 189.54 2729.64 191.91 2735.61 196.49 2739.62 203.79 2746.68 205.89 2753.76 208.58 2755.89 216.7 2763.1 219.7 2768.88 224.41 2771.48 231.4 2773.6 238.38 2781.19 242.93 2781.42 250.69 2782.96 257.81 2786.49 264.6 2784.45 272.19 2781.39 279.38"/><polygon class="cls-7" points="2687.94 199.29 2683.48 194.22 2682.39 186.29 2677.34 181.17 2671.57 176.85 2665.68 172.91 2661.31 166.72 2654.75 163.56 2646.79 164.6 2640.53 161.35 2633.66 159.32 2626.52 159.55 2619.37 160.23 2612.5 162.33 2606.58 166.82 2600.2 169.94 2593.28 172.69 2589.3 179.02 2585.47 185.01 2580.96 190.47 2579.06 197.36 2573.39 202.81 2573.43 210.26 2573.35 217.35 2571.2 224.38 2571.53 231.7 2576.1 237.45 2581.13 240.11 2588.38 241.86 2595.43 239.44 2602.41 238.34 2609.51 238.35 2615.79 235.42 2622.95 233.12 2626.32 226.34 2626.39 220.95 2632.44 222.82 2637.7 228.08 2642.75 234.4 2650.44 236.13 2658.15 236.43 2665.68 234.26 2668.82 227.31 2676.41 224.71 2680.06 218.55 2684.12 212.72 2685.3 205.41 2687.94 199.29"/><ellipse cx="2736.31" cy="241.91" rx="6.52" ry="19.39"/><polygon points="2735.02 230.01 2724.36 223.79 2725.08 222.52 2735.75 228.74 2735.02 230.01"/><rect x="2721.02" y="230.57" width="12.32" height="1.46"/><polygon points="2734.96 228.13 2728.22 217.72 2729.43 216.92 2736.17 227.33 2734.96 228.13"/><ellipse cx="2753.78" cy="239.91" rx="6.52" ry="19.39"/><polygon points="2765.75 221.35 2756.37 229.41 2755.43 228.3 2764.81 220.24 2765.75 221.35"/><rect x="2756.16" y="229.3" width="12.32" height="1.46"/><polygon points="2753.85 225.93 2758.76 214.53 2760.09 215.11 2755.18 226.52 2753.85 225.93"/><path d="M2777.7,295.09s-18.23,62.35-50.25,2.94C2727.45,298,2759.28,323,2777.7,295.09Z"/><path class="cls-8" d="M2752.77,269.35s-.19,35.69-25.27,28.34c-.05,0-.08,0-.05.08,2.23,2.66,29.88,34.39,50.25-3.75,0,0,0-.1,0-.08C2775.81,294.84,2754.26,304.63,2752.77,269.35Z"/><ellipse class="cls-9" cx="2765.41" cy="326.61" rx="7.11" ry="12.04" transform="translate(75.09 1045.17) rotate(-21.69)"/><path class="cls-10" d="M2760.55,318.56s12.35,12.6,7.63,13.11"/><path class="cls-9" d="M2766.66,316.65s-12.54-7.54-26.28,0C2740.38,316.65,2753.82,332.49,2766.66,316.65Z"/><use width="60.19" height="24.41" transform="translate(2741.36 295.09) scale(0.4 0.41)" xlink:href="#Dashes"/><ellipse cx="2752.58" cy="271.97" rx="6.59" ry="19.2" transform="translate(2376.15 3012.21) rotate(-87.82)"/><path d="M2563.63,464.83s3.56-21.43-3.25-17.8"/><path d="M2550.57,457.93s3.55-21.44-3.26-17.8"/><rect class="cls-2" x="2094" width="350" height="500"/><polygon class="cls-3" points="2147.11 291.38 2139.81 291.97 2132.31 292.45 2124.88 291.21 2118.2 287.61 2111.16 285.24 2106.44 279.55 2103.03 273.28 2104.43 279.9 2106.4 286.61 2110.1 292.55 2113.39 298.87 2119.68 302.42 2124.21 308.11 2131.33 309.59 2137.57 312.68 2144.39 314.15 2152.07 314.67 2159.54 314.49 2161.27 308.95 2158.48 301.74 2152.8 296.4 2147.11 291.38"/><polygon class="cls-4" points="2287.45 426.96 2294.92 426.3 2301.16 429.42 2307.21 432.3 2310.01 438.6 2310.3 445.58 2306.25 451.3 2299.47 452.67 2292.39 454.93 2285.42 452.26 2278.18 451.81 2270.91 450.87 2264.25 447.87 2257.78 444.58 2251.51 441.05 2245.18 437.63 2243.43 432.23 2247.84 427.44 2253.97 425.04 2260.4 427.14 2263.01 422.55 2265.7 415.61 2265.92 408.07 2267.34 400.78 2268.32 393.42 2270.76 386.89 2277.03 388.04 2283.63 389.09 2290.26 389.94 2297.17 390.59 2296.12 398.21 2292.08 404.87 2290.66 412.19 2290.04 419.72 2287.45 426.96"/><path d="M2310,443.78s-15.48-14.4-16.19-6.87"/><path d="M2297.4,450.79s-15.48-14.4-16.19-6.87"/><polygon class="cls-5" points="2284.34 410.77 2291.56 408.94 2299.52 407.51 2306.95 410.88 2310.9 417.81 2308.06 423.32 2302.17 427.51 2295.32 430.92 2287.73 431.38 2280.18 431.34 2272.74 431.99 2265.28 432.12 2257.72 433.61 2250.07 433.15 2244.38 427.66 2249.95 420.69 2258.7 421.15 2260.16 414.52 2259.64 407.44 2256.36 401.07 2255.93 393.83 2252.11 387 2259.07 387.21 2265.2 384.56 2271.58 383.23 2277.5 383.72 2280.69 389.7 2282.19 396.75 2283.18 403.89 2284.34 410.77"/><path d="M2310.46,416.47s-19.59-5.55-17.33,0"/><path d="M2301.7,425.22s-19.58-5.54-17.33,0"/><polygon class="cls-4" points="2356.14 188.9 2350.34 184.11 2348.11 177.09 2342.11 173.14 2337.84 167.56 2333.08 162.17 2326.52 159.32 2319.8 157.22 2313.09 155.52 2306.18 155.79 2299.18 152.46 2292.39 155.02 2286.29 158.77 2279.3 159.74 2272.45 161.85 2268.33 168.02 2260.97 170.41 2258.72 177.66 2253.35 182.51 2251.83 189.52 2250.25 196.22 2250.01 203.06 2247.81 209.72 2246.72 216.95 2251.33 222.68 2256.41 225.44 2263.97 227.59 2271.28 224.06 2279 226.21 2286 223.1 2292.54 219.73 2295.72 213.43 2297.66 206.35 2303.87 209.73 2307.69 216.08 2315.18 216.67 2320.76 220.6 2327.31 219.94 2332.88 217.87 2340.08 214.84 2344.32 208.48 2349.48 202.82 2351.49 195.29 2356.14 188.9"/><polygon class="cls-4" points="2215.71 427.5 2223.52 428.04 2229.18 432.58 2234.88 436.69 2236.66 443.74 2236.08 451.12 2229.55 454.93 2222.71 457 2215.12 456.81 2208.09 454.09 2201.64 450.25 2195.52 446 2188.97 442.62 2182.15 439.52 2176.91 434.2 2171.7 429.14 2170.47 423.91 2176.36 421.19 2182.44 418.91 2187.73 422.92 2192.11 418.14 2196.8 412 2199.81 404.98 2200.92 397.26 2204.44 390.45 2206.74 382.36 2213.22 385.63 2219.24 389.11 2226.21 390.12 2232.08 393.23 2228.88 399.85 2227.23 407.45 2222.39 413.57 2220.48 421.11 2215.71 427.5"/><path d="M2235.22,449s-12.76-17.58-15-10.18"/><path d="M2221.13,453.41s-12.77-17.59-15-10.19"/><polygon class="cls-5" points="2197.7 400.57 2204.43 399.32 2211.12 397.22 2217.32 400.62 2221.44 406.2 2222.87 412.89 2220.57 420.5 2213.46 423.54 2206.18 425 2198.91 427.83 2191.29 427.4 2183.76 426.52 2176.32 425.29 2168.55 425.38 2162.26 420.61 2159.03 417.07 2162.31 411.93 2166.5 407.81 2172.55 408.39 2175.78 402.58 2175.64 395.13 2173.79 387.8 2173.87 380.4 2173.7 373.01 2173.44 366.1 2181.68 366.14 2189.94 364.44 2198.26 363.44 2197.71 370.83 2197.77 378.24 2198.64 385.65 2198.9 393.08 2197.7 400.57"/><path d="M2221.8,411.26s-17.28-10-16.29-2.59"/><path d="M2211.79,421.15s-17.28-10-16.29-2.59"/><polygon class="cls-5" points="2334.72 317.74 2337.48 325.13 2334.49 332.1 2330.7 338.54 2327.88 344.97 2328.26 352.83 2324.57 359.06 2320.7 365.14 2313.54 368.58 2308.5 373.33 2305.38 380.17 2302.1 387.57 2296.07 391.81 2287.36 391.24 2281.82 395.92 2274.37 396.37 2267.43 397.41 2261.33 404.17 2253.75 406.16 2245.78 404.45 2238.13 404.7 2230.79 406.67 2223.7 404.36 2217.02 400.94 2209.87 400.25 2202.92 398.47 2194.48 399.81 2187.57 396.86 2182.51 390.8 2178.17 384.34 2173.05 379.4 2168.09 374.4 2161.32 370.92 2154.08 367.19 2153.49 358.8 2146.14 354.37 2146.51 346.15 2142.43 339.76 2144.95 331.76 2139.1 325.22 2141.87 317.74 2145.23 310.81 2141.22 303.04 2143.15 295.91 2147.78 289.8 2151.34 283.6 2155.23 277.69 2155.88 269.55 2162.87 265.85 2167.76 260.74 2173.46 256.54 2175.43 247.42 2183.13 245.67 2188.96 241.22 2195.69 238.4 2203.13 237.58 2209.13 232.59 2217.3 235.87 2224.01 233.39 2231.12 233.73 2238.13 232.67 2245.56 227.42 2252.21 233.66 2259.51 233.16 2266.21 235.83 2272.86 238.33 2280.56 238.4 2285.52 244.56 2292.01 247.43 2300.64 247.67 2302.64 256.71 2309.46 259.79 2317.55 262.36 2317.6 271.53 2324.72 275.51 2328.97 281.66 2328.05 289.96 2332.48 296.09 2332.19 303.56 2334.32 310.51 2334.72 317.74"/><polygon class="cls-6" points="2428.39 279.38 2433.23 286.68 2430.46 293.64 2426.89 300.14 2430.53 308.63 2427.2 315.29 2423.09 321.45 2417.54 326.59 2414.51 333.13 2411.12 339.63 2404.7 343.5 2398.04 346.66 2395.52 354.85 2388.78 357.82 2383.41 363.05 2375.45 363.07 2370.05 369.2 2361.81 367.08 2355.66 373.77 2347.57 367.62 2340.57 372.49 2333.53 369.26 2326.52 368.56 2319.23 368.69 2312.35 366.65 2304.94 365.8 2300.19 359.07 2291.29 360.14 2286.55 354.09 2280.52 350.02 2273.53 346.71 2271.64 338.55 2264.56 334.85 2262.69 327.34 2260.64 320.32 2257.88 313.81 2251.6 308.42 2253.8 300.32 2251.13 293.62 2249.68 286.57 2248.95 279.38 2249.52 272.17 2247.13 264.51 2249.6 257.44 2250.7 250.05 2252.87 242.89 2257.62 236.91 2264.63 232.59 2265.94 224.89 2272.62 221.03 2277.55 216 2280.79 209.04 2284.8 202.29 2294.01 202.97 2299.75 198.83 2305.67 194.69 2311.79 190.4 2319.95 193.01 2326.41 189.54 2333.38 187.58 2340.57 188.79 2347.58 189.84 2355.18 186.71 2361.59 191.36 2369.63 189.54 2376.64 191.91 2382.61 196.49 2386.62 203.79 2393.68 205.89 2400.76 208.58 2402.89 216.7 2410.1 219.7 2415.88 224.41 2418.48 231.4 2420.6 238.38 2428.19 242.93 2428.42 250.69 2429.96 257.81 2433.49 264.6 2431.45 272.19 2428.39 279.38"/><polygon class="cls-7" points="2334.94 199.29 2330.48 194.22 2329.39 186.29 2324.34 181.17 2318.57 176.85 2312.68 172.91 2308.31 166.72 2301.75 163.56 2293.79 164.6 2287.53 161.35 2280.66 159.32 2273.52 159.55 2266.37 160.23 2259.5 162.33 2253.58 166.82 2247.2 169.94 2240.28 172.69 2236.3 179.02 2232.47 185.01 2227.96 190.47 2226.06 197.36 2220.39 202.81 2220.43 210.26 2220.35 217.35 2218.2 224.38 2218.53 231.7 2223.1 237.45 2228.13 240.11 2235.38 241.86 2242.43 239.44 2249.41 238.34 2256.51 238.35 2262.79 235.42 2269.95 233.12 2273.32 226.34 2273.39 220.95 2279.44 222.82 2284.7 228.08 2289.75 234.4 2297.44 236.13 2305.15 236.43 2312.68 234.26 2315.82 227.31 2323.41 224.71 2327.06 218.55 2331.12 212.72 2332.3 205.41 2334.94 199.29"/><ellipse cx="2383.31" cy="241.91" rx="6.52" ry="19.39"/><polygon points="2382.02 230.01 2371.36 223.79 2372.08 222.52 2382.75 228.74 2382.02 230.01"/><rect x="2368.02" y="230.57" width="12.32" height="1.46"/><polygon points="2381.96 228.13 2375.22 217.72 2376.43 216.92 2383.17 227.33 2381.96 228.13"/><ellipse cx="2400.78" cy="239.91" rx="6.52" ry="19.39"/><polygon points="2412.75 221.35 2403.37 229.41 2402.43 228.3 2411.81 220.24 2412.75 221.35"/><rect x="2403.16" y="229.3" width="12.32" height="1.46"/><polygon points="2400.85 225.93 2405.76 214.53 2407.09 215.11 2402.18 226.52 2400.85 225.93"/><path d="M2424.7,295.09s-18.23,62.35-50.25,2.94C2374.45,298,2406.28,323,2424.7,295.09Z"/><path class="cls-8" d="M2399.77,269.35s-.19,35.69-25.27,28.34c-.05,0-.08,0-.05.08,2.23,2.66,29.88,34.39,50.25-3.75,0,0,0-.1,0-.08C2422.81,294.84,2401.26,304.63,2399.77,269.35Z"/><ellipse class="cls-9" cx="2412.41" cy="326.61" rx="7.11" ry="12.04" transform="translate(50.1 914.71) rotate(-21.69)"/><path class="cls-10" d="M2407.55,318.56s12.35,12.6,7.63,13.11"/><path class="cls-9" d="M2413.66,316.65s-12.54-7.54-26.28,0C2387.38,316.65,2400.82,332.49,2413.66,316.65Z"/><use width="60.19" height="24.41" transform="translate(2388.36 295.09) scale(0.4 0.41)" xlink:href="#Dashes"/><ellipse cx="2399.58" cy="271.97" rx="6.59" ry="19.2" transform="translate(2036.57 2659.47) rotate(-87.82)"/><rect class="cls-2" x="1746" y="1" width="350" height="500"/><polygon class="cls-3" points="1802.11 292.38 1794.81 292.97 1787.31 293.45 1779.88 292.21 1773.2 288.61 1766.16 286.24 1761.44 280.55 1758.03 274.28 1759.43 280.9 1761.4 287.61 1765.1 293.55 1768.39 299.87 1774.68 303.42 1779.21 309.11 1786.33 310.59 1792.58 313.68 1799.39 315.15 1807.07 315.67 1814.54 315.49 1816.27 309.95 1813.48 302.74 1807.8 297.4 1802.11 292.38"/><polygon class="cls-4" points="1877.87 413.82 1882.97 409.27 1889.63 406.78 1896.74 405.45 1903.07 409.12 1907.4 414.85 1906.97 421.58 1903.93 427.84 1898.16 432.31 1891.71 435.79 1885.66 440.16 1878.99 443.47 1871.73 445.22 1864.97 448.62 1857.48 449.28 1850.11 449.58 1843.63 446.44 1847.35 440.6 1848.97 434.03 1855.8 434.12 1856.04 426.08 1852.02 419.55 1849.72 412.18 1845.79 405.64 1840.53 399.91 1836.63 391.98 1843.52 389.13 1849.45 385.67 1855.96 383.24 1861.77 379.61 1863.94 386.93 1868.1 393.37 1871.1 400.35 1874.56 407.12 1877.87 413.82"/><path d="M1906.24,413.46s-21.67-1.6-17.43,4.85"/><path d="M1900.55,427.1s-21.67-1.6-17.43,4.85"/><polygon class="cls-5" points="1858.67 409.47 1864.86 406.5 1871.65 407.5 1876.95 410.94 1881.12 415.62 1883.04 421.95 1880.29 428.58 1873.93 431.87 1867.05 434.76 1859.54 435.07 1852.03 436.45 1844.57 434.62 1837.14 433.74 1829.66 432.9 1822.52 430.61 1818.43 425.16 1822.42 420.4 1827.16 416.52 1832.85 418.53 1836.68 411.6 1836.63 404.13 1835.79 396.74 1835.8 389.32 1834.81 381.98 1833.66 373.98 1842.3 373.79 1850.75 374.3 1859.59 371.71 1857.72 379.83 1859.79 387.25 1858.87 394.65 1857.51 402.04 1858.67 409.47"/><path d="M1876.54,420.26s-17.28-10-16.29-2.59"/><path d="M1866.53,430.15s-17.28-10-16.29-2.59"/><polygon class="cls-4" points="1943.73 411.12 1949.69 406.47 1954.96 402.05 1961.68 402.15 1967.88 404.23 1972.83 408.95 1973.32 415.4 1971.26 422.03 1966.62 427.68 1960.99 432.36 1954.11 435.04 1947.96 438.85 1941.76 442.75 1934.44 443.93 1927.45 445.52 1920.55 446.55 1915.79 445.21 1915.25 438.63 1917.98 432.35 1924.5 430.47 1924.28 424.11 1920.74 417.51 1915.76 411.83 1912.13 405.3 1908.2 398.95 1902.92 392.82 1908.8 389.1 1914.53 385.67 1919.55 381.16 1925.46 378.91 1928.48 385.2 1932.72 391.35 1936.93 397.51 1941.21 403.69 1943.73 411.12"/><path d="M1971.78,407.54s-21.14.28-16.46,6.22"/><path d="M1967.49,421.33s-21.14.28-16.46,6.22"/><polygon class="cls-5" points="1939 412.06 1946.54 409.81 1954.31 410.15 1961.27 412.7 1965.47 418.97 1963.16 424.45 1957.54 429.51 1950.25 431.63 1942.83 433.03 1935.37 434.2 1927.75 433.18 1920.28 433.4 1912.74 434.25 1905.56 431.69 1899.14 428.5 1905.31 422.18 1913.88 421.02 1915.31 415.5 1913.82 408.65 1911.9 401.9 1910.71 394.91 1908.08 389.33 1913.72 386.31 1920.31 386.15 1926.73 385 1932.45 384.79 1933.73 391.1 1934.9 398.22 1937.67 405.02 1939 412.06"/><path d="M1965.46,417.47s-19.59-5.55-17.33,0"/><path d="M1956.7,426.22s-19.58-5.54-17.33,0"/><polygon class="cls-5" points="1989.72 318.74 1992.48 326.13 1989.49 333.1 1985.7 339.54 1982.88 345.97 1983.26 353.83 1979.57 360.06 1975.7 366.14 1968.54 369.58 1963.5 374.33 1960.38 381.17 1957.1 388.57 1951.08 392.81 1942.36 392.24 1936.82 396.92 1929.37 397.37 1922.43 398.41 1916.33 405.17 1908.75 407.16 1900.78 405.45 1893.13 405.7 1885.79 407.67 1878.7 405.36 1872.02 401.94 1864.87 401.25 1857.92 399.47 1849.48 400.81 1842.57 397.86 1837.51 391.8 1833.17 385.34 1828.06 380.4 1823.09 375.4 1816.32 371.92 1809.08 368.19 1808.49 359.8 1801.14 355.37 1801.51 347.15 1797.43 340.76 1799.95 332.76 1794.1 326.22 1796.87 318.74 1800.23 311.81 1796.22 304.04 1798.15 296.91 1802.79 290.8 1806.35 284.6 1810.23 278.69 1810.88 270.55 1817.87 266.85 1822.76 261.74 1828.46 257.54 1830.43 248.42 1838.13 246.67 1843.96 242.22 1850.69 239.4 1858.13 238.58 1864.13 233.59 1872.3 236.87 1879.01 234.39 1886.12 234.73 1893.13 233.67 1900.56 228.42 1907.21 234.66 1914.52 234.16 1921.21 236.83 1927.86 239.33 1935.56 239.4 1940.52 245.56 1947.02 248.43 1955.64 248.67 1957.64 257.71 1964.46 260.79 1972.55 263.36 1972.6 272.53 1979.72 276.51 1983.96 282.66 1983.05 290.96 1987.48 297.09 1987.19 304.56 1989.32 311.51 1989.72 318.74"/><polygon class="cls-4" points="2009.99 189.94 2005.53 184.97 2004.03 177.32 1998.87 172.41 1993.02 168.35 1987 164.76 1982.16 159.09 1975.43 156.51 1967.77 158.05 1961.25 155.64 1954.27 154.49 1947.28 155.5 1940.33 156.95 1933.8 159.67 1928.52 164.55 1922.75 168.31 1916.48 171.89 1913.43 178.44 1910.54 184.7 1907.03 190.6 1906.18 197.47 1901.81 203.64 1903.16 210.71 1904.72 217.31 1905.47 224.25 1911.51 228.37 1918.91 226.24 1926.32 225.67 1933.93 226.73 1940.65 223.07 1946.48 219.44 1951.27 214.62 1952.15 206.32 1957.22 212.79 1962.89 216.78 1968.48 221.13 1976.05 220.49 1982.41 222.01 1990 221.92 1995.21 215.96 1999.85 209.88 2004.63 203.91 2005.72 195.9 2009.99 189.94"/><polygon class="cls-6" points="2083.39 280.38 2088.23 287.68 2085.46 294.64 2081.89 301.14 2085.53 309.63 2082.2 316.29 2078.09 322.45 2072.54 327.59 2069.51 334.13 2066.12 340.63 2059.7 344.5 2053.04 347.66 2050.52 355.85 2043.78 358.82 2038.4 364.05 2030.44 364.07 2025.05 370.2 2016.81 368.08 2010.66 374.77 2002.58 368.62 1995.57 373.49 1988.53 370.26 1981.52 369.56 1974.23 369.69 1967.35 367.65 1959.94 366.8 1955.19 360.07 1946.29 361.14 1941.56 355.09 1935.52 351.02 1928.53 347.71 1926.64 339.55 1919.56 335.85 1917.69 328.34 1915.63 321.32 1912.88 314.81 1906.6 309.42 1908.8 301.32 1906.13 294.62 1904.68 287.57 1903.94 280.38 1904.52 273.17 1902.13 265.51 1904.6 258.44 1905.7 251.05 1907.87 243.89 1912.62 237.91 1919.63 233.59 1920.94 225.89 1927.62 222.03 1932.55 217 1935.79 210.04 1939.8 203.29 1949.02 203.97 1954.75 199.83 1960.67 195.69 1966.79 191.4 1974.95 194.01 1981.41 190.54 1988.38 188.58 1995.57 189.79 2002.58 190.84 2010.18 187.71 2016.59 192.36 2024.63 190.54 2031.64 192.91 2037.61 197.49 2041.62 204.79 2048.68 206.89 2055.76 209.58 2057.89 217.7 2065.1 220.7 2070.88 225.41 2073.48 232.4 2075.6 239.38 2083.19 243.93 2083.42 251.69 2084.96 258.81 2088.49 265.6 2086.45 273.19 2083.39 280.38"/><polygon class="cls-7" points="1989.94 200.29 1985.48 195.22 1984.39 187.29 1979.34 182.17 1973.57 177.85 1967.68 173.91 1963.31 167.72 1956.75 164.56 1948.79 165.6 1942.53 162.35 1935.66 160.32 1928.52 160.55 1921.37 161.23 1914.5 163.33 1908.58 167.82 1902.2 170.94 1895.28 173.69 1891.3 180.02 1887.47 186.01 1882.96 191.47 1881.06 198.36 1875.39 203.81 1875.43 211.26 1875.35 218.35 1873.2 225.38 1873.53 232.7 1878.1 238.45 1883.13 241.11 1890.38 242.86 1897.43 240.44 1904.41 239.34 1911.51 239.35 1917.79 236.42 1924.95 234.12 1928.32 227.34 1928.39 221.95 1934.44 223.82 1939.7 229.08 1944.75 235.4 1952.44 237.13 1960.15 237.43 1967.68 235.26 1970.83 228.31 1978.41 225.71 1982.06 219.55 1986.12 213.72 1987.3 206.41 1989.94 200.29"/><ellipse cx="2038.31" cy="242.91" rx="6.52" ry="19.39"/><polygon points="2037.02 231.01 2026.36 224.79 2027.08 223.52 2037.75 229.74 2037.02 231.01"/><rect x="2023.02" y="231.57" width="12.32" height="1.46"/><polygon points="2036.96 229.13 2030.21 218.72 2031.43 217.92 2038.17 228.33 2036.96 229.13"/><ellipse cx="2055.78" cy="240.91" rx="6.52" ry="19.39"/><polygon points="2067.75 222.35 2058.37 230.41 2057.43 229.3 2066.81 221.24 2067.75 222.35"/><rect x="2058.16" y="230.3" width="12.32" height="1.46"/><polygon points="2055.85 226.93 2060.76 215.53 2062.09 216.11 2057.18 227.52 2055.85 226.93"/><path d="M2079.7,296.09s-18.23,62.35-50.25,2.94C2029.45,299,2061.28,324,2079.7,296.09Z"/><path class="cls-8" d="M2054.77,270.35s-.19,35.69-25.27,28.34c0,0-.08,0,0,.08,2.23,2.66,29.88,34.39,50.25-3.75,0,0,0-.1,0-.08C2077.81,295.84,2056.26,305.63,2054.77,270.35Z"/><ellipse class="cls-9" cx="2067.41" cy="327.61" rx="7.11" ry="12.04" transform="translate(25.3 787.27) rotate(-21.69)"/><path class="cls-10" d="M2062.55,319.56s12.35,12.6,7.63,13.11"/><path class="cls-9" d="M2068.66,317.65s-12.54-7.54-26.28,0C2042.38,317.65,2055.82,333.49,2068.66,317.65Z"/><use width="60.19" height="24.41" transform="translate(2043.36 296.09) scale(0.4 0.41)" xlink:href="#Dashes"/><ellipse cx="2054.58" cy="272.97" rx="6.59" ry="19.2" transform="translate(1703.69 2315.68) rotate(-87.82)"/><rect class="cls-2" x="1397" width="350" height="500"/><polygon class="cls-3" points="1446.11 291.38 1438.81 291.97 1431.31 292.45 1423.88 291.21 1417.2 287.61 1410.16 285.24 1405.44 279.55 1402.03 273.28 1403.43 279.9 1405.4 286.61 1409.1 292.55 1412.39 298.87 1418.68 302.42 1423.21 308.11 1430.33 309.59 1436.58 312.68 1443.39 314.15 1451.07 314.67 1458.54 314.49 1460.27 308.95 1457.48 301.74 1451.8 296.4 1446.11 291.38"/><polygon class="cls-4" points="1511.79 412.54 1517.16 412.28 1523.55 412.59 1530.46 411.71 1535.39 416.5 1539.19 422.08 1535.97 428.78 1528.88 429.91 1522.08 431.21 1515.15 431.98 1508.16 432.92 1501.13 432.37 1494.14 431.7 1486.92 433.15 1480.11 430.81 1473.1 429.76 1468.97 425.6 1475.46 420.11 1483.69 419.54 1485.78 413.99 1485.62 407.13 1483.5 400.59 1481.2 394.15 1480.19 387.05 1487.18 388.01 1493.94 387.44 1500.65 386.2 1507.55 385.33 1507.36 392.52 1509.61 399.26 1508.58 406.52 1511.79 412.54"/><path d="M1537.75,421.06s-19.82-7.35-18-1.81"/><path d="M1527.81,428.53s-19.81-7.36-18-1.81"/><polygon class="cls-5" points="1496.13 402.27 1502 400.33 1508.66 400.41 1514.11 403.74 1518.73 408.38 1519.85 414.97 1517.24 421.53 1511.35 425.93 1503.94 427.13 1496.61 429.19 1489.03 429.09 1481.56 427.81 1473.92 428.14 1466.37 427.07 1458.97 424.76 1455.3 418.08 1458.98 413.03 1463.9 408.53 1470.21 410.6 1471.69 404.44 1472.35 397.14 1473.76 389.69 1471.3 382.43 1470.99 375.05 1470.69 367.04 1479.25 366.22 1487.59 365.4 1496.17 365.23 1496.33 372.84 1496.63 380.25 1495.31 387.64 1497 395.03 1496.13 402.27"/><path d="M1520.54,411.26s-17.28-10-16.29-2.59"/><path d="M1510.53,421.15s-17.28-10-16.29-2.59"/><polygon class="cls-4" points="1598.94 412.51 1607.11 409.47 1615.12 408.98 1622.71 411.64 1626.8 418.46 1624.29 424.36 1618.18 429 1610.55 429.94 1602.98 430.21 1595.58 431.61 1588.05 431.7 1580.54 434.27 1572.94 433.45 1565.72 430.62 1560.81 428.78 1565.32 421.28 1574.09 420.52 1575.84 415.23 1574.09 408.66 1571.94 402.23 1569.68 395.85 1567.58 389.29 1573.99 387.45 1580.59 386.88 1587.22 386.46 1594.23 384.04 1593.94 391.9 1596.35 398.47 1597.09 405.37 1598.94 412.51"/><path d="M1626.44,417.13s-19.87-5.32-17.59,0"/><path d="M1617.56,425.53s-19.88-5.32-17.6,0"/><polygon class="cls-5" points="1583.84 410.34 1590.6 409.11 1598.31 409.21 1606.45 410.29 1610.22 417.69 1608.43 424.98 1601.5 428.4 1593.88 429.04 1586.59 430.45 1579.2 431.49 1571.78 432.7 1564.28 432.44 1556.83 431.92 1549.1 433 1544.15 428.15 1549.24 421.09 1557.75 420.85 1560.02 414.4 1557.9 407.63 1555.92 400.9 1554.38 394.01 1551.41 387.42 1557.76 385.52 1564.27 384.91 1570.93 385.1 1576.56 383.64 1578.37 389.97 1580.24 396.95 1580.68 404.29 1583.84 410.34"/><path d="M1609.46,416.47s-19.59-5.55-17.33,0"/><path d="M1600.7,425.22s-19.58-5.54-17.33,0"/><polygon class="cls-5" points="1633.72 317.74 1636.48 325.13 1633.49 332.1 1629.7 338.54 1626.88 344.97 1627.26 352.83 1623.57 359.06 1619.7 365.14 1612.54 368.58 1607.5 373.33 1604.38 380.17 1601.1 387.57 1595.08 391.81 1586.36 391.24 1580.82 395.92 1573.37 396.37 1566.43 397.41 1560.33 404.17 1552.75 406.16 1544.78 404.45 1537.13 404.7 1529.79 406.67 1522.7 404.36 1516.02 400.94 1508.87 400.25 1501.92 398.47 1493.48 399.81 1486.57 396.86 1481.51 390.8 1477.17 384.34 1472.06 379.4 1467.09 374.4 1460.32 370.92 1453.08 367.19 1452.49 358.8 1445.14 354.37 1445.51 346.15 1441.43 339.76 1443.95 331.76 1438.1 325.22 1440.87 317.74 1444.23 310.81 1440.22 303.04 1442.15 295.91 1446.79 289.8 1450.35 283.6 1454.23 277.69 1454.88 269.55 1461.87 265.85 1466.76 260.74 1472.46 256.54 1474.43 247.42 1482.13 245.67 1487.96 241.22 1494.69 238.4 1502.13 237.58 1508.13 232.59 1516.3 235.87 1523.01 233.39 1530.12 233.73 1537.13 232.67 1544.56 227.42 1551.21 233.66 1558.52 233.16 1565.21 235.83 1571.86 238.33 1579.56 238.4 1584.52 244.56 1591.02 247.43 1599.64 247.67 1601.64 256.71 1608.46 259.79 1616.55 262.36 1616.6 271.53 1623.72 275.51 1627.96 281.66 1627.05 289.96 1631.48 296.09 1631.19 303.56 1633.32 310.51 1633.72 317.74"/><polygon class="cls-4" points="1653.99 188.94 1649.53 183.97 1648.03 176.32 1642.87 171.41 1637.02 167.35 1631 163.76 1626.16 158.09 1619.43 155.51 1611.77 157.05 1605.25 154.64 1598.27 153.49 1591.28 154.5 1584.33 155.95 1577.8 158.67 1572.52 163.55 1566.75 167.31 1560.48 170.89 1557.43 177.44 1554.54 183.7 1551.03 189.6 1550.18 196.47 1545.81 202.64 1547.16 209.71 1548.72 216.31 1549.47 223.25 1555.51 227.37 1562.91 225.24 1570.32 224.67 1577.93 225.73 1584.65 222.07 1590.48 218.44 1595.27 213.62 1596.15 205.32 1601.22 211.79 1606.89 215.78 1612.48 220.13 1620.05 219.49 1626.41 221.01 1634 220.92 1639.21 214.96 1643.85 208.88 1648.63 202.91 1649.72 194.9 1653.99 188.94"/><polygon class="cls-6" points="1727.39 279.38 1732.23 286.68 1729.46 293.64 1725.89 300.14 1729.54 308.63 1726.2 315.29 1722.09 321.45 1716.54 326.59 1713.52 333.13 1710.12 339.63 1703.7 343.5 1697.04 346.66 1694.52 354.85 1687.78 357.82 1682.4 363.05 1674.44 363.07 1669.05 369.2 1660.81 367.08 1654.66 373.77 1646.58 367.62 1639.57 372.49 1632.53 369.26 1625.52 368.56 1618.23 368.69 1611.35 366.65 1603.94 365.8 1599.19 359.07 1590.29 360.14 1585.56 354.09 1579.52 350.02 1572.53 346.71 1570.64 338.55 1563.56 334.85 1561.69 327.34 1559.63 320.32 1556.88 313.81 1550.6 308.42 1552.8 300.32 1550.13 293.62 1548.68 286.57 1547.94 279.38 1548.52 272.17 1546.13 264.51 1548.6 257.44 1549.7 250.05 1551.87 242.89 1556.62 236.91 1563.63 232.59 1564.94 224.89 1571.62 221.03 1576.55 216 1579.79 209.04 1583.8 202.29 1593.02 202.97 1598.75 198.83 1604.67 194.69 1610.79 190.4 1618.95 193.01 1625.41 189.54 1632.38 187.58 1639.57 188.79 1646.58 189.84 1654.18 186.71 1660.59 191.36 1668.63 189.54 1675.64 191.91 1681.61 196.49 1685.62 203.79 1692.68 205.89 1699.76 208.58 1701.89 216.7 1709.1 219.7 1714.88 224.41 1717.48 231.4 1719.6 238.38 1727.19 242.93 1727.42 250.69 1728.96 257.81 1732.49 264.6 1730.45 272.19 1727.39 279.38"/><polygon class="cls-7" points="1633.94 199.29 1629.48 194.22 1628.39 186.29 1623.34 181.17 1617.57 176.85 1611.68 172.91 1607.31 166.72 1600.75 163.56 1592.79 164.6 1586.53 161.35 1579.66 159.32 1572.52 159.55 1565.37 160.23 1558.5 162.33 1552.58 166.82 1546.2 169.94 1539.28 172.69 1535.3 179.02 1531.47 185.01 1526.96 190.47 1525.06 197.36 1519.39 202.81 1519.43 210.26 1519.35 217.35 1517.2 224.38 1517.53 231.7 1522.1 237.45 1527.13 240.11 1534.38 241.86 1541.43 239.44 1548.41 238.34 1555.51 238.35 1561.79 235.42 1568.95 233.12 1572.32 226.34 1572.39 220.95 1578.44 222.82 1583.7 228.08 1588.75 234.4 1596.44 236.13 1604.15 236.43 1611.68 234.26 1614.83 227.31 1622.41 224.71 1626.06 218.55 1630.12 212.72 1631.3 205.41 1633.94 199.29"/><ellipse cx="1682.31" cy="241.91" rx="6.52" ry="19.39"/><polygon points="1681.02 230.01 1670.36 223.79 1671.08 222.52 1681.75 228.74 1681.02 230.01"/><rect x="1667.02" y="230.57" width="12.32" height="1.46"/><polygon points="1680.96 228.13 1674.21 217.72 1675.43 216.92 1682.17 227.33 1680.96 228.13"/><ellipse cx="1699.78" cy="239.91" rx="6.52" ry="19.39"/><polygon points="1711.75 221.35 1702.37 229.41 1701.43 228.3 1710.81 220.24 1711.75 221.35"/><rect x="1702.16" y="229.3" width="12.32" height="1.46"/><polygon points="1699.85 225.93 1704.76 214.53 1706.09 215.11 1701.18 226.52 1699.85 225.93"/><path d="M1723.7,295.09s-18.23,62.35-50.25,2.94C1673.45,298,1705.28,323,1723.7,295.09Z"/><path class="cls-8" d="M1698.77,269.35s-.19,35.69-25.27,28.34c0,0-.08,0,0,.08,2.23,2.66,29.88,34.39,50.25-3.75,0,0,0-.1,0-.08C1721.81,294.84,1700.26,304.63,1698.77,269.35Z"/><ellipse class="cls-9" cx="1711.41" cy="326.61" rx="7.11" ry="12.04" transform="translate(0.46 655.63) rotate(-21.69)"/><path class="cls-10" d="M1706.55,318.56s12.35,12.6,7.63,13.11"/><path class="cls-9" d="M1712.66,316.65s-12.54-7.54-26.28,0C1686.38,316.65,1699.82,332.49,1712.66,316.65Z"/><use width="60.19" height="24.41" transform="translate(1687.36 295.09) scale(0.4 0.41)" xlink:href="#Dashes"/><ellipse cx="1698.58" cy="271.97" rx="6.59" ry="19.2" transform="translate(1362.22 1958.98) rotate(-87.82)"/></svg>
